<svg width="350" height="220" viewBox="0 0 350 220" fill="none" xmlns="http://www.w3.org/2000/svg">
<rect width="350" height="220" rx="12" fill="url(#paint0_linear_296_485)"/>
<mask id="mask0_296_485" style="mask-type:alpha" maskUnits="userSpaceOnUse" x="0" y="0" width="350" height="220">
<rect width="350" height="220" rx="12" fill="url(#paint1_linear_296_485)" fill-opacity="0.1"/>
</mask>
<g mask="url(#mask0_296_485)">
<ellipse cx="170.5" cy="299.5" rx="189.5" ry="258.5" transform="rotate(90 170.5 299.5)" fill="url(#paint2_linear_296_485)"/>
</g>
<rect y="23" width="350" height="37" fill="#151A1F"/>
<rect x="23" y="69" width="230" height="28" fill="#DBDBDB"/>
<path d="M215.392 89L215.614 87.7273L220.216 83.6477C220.708 83.2045 221.119 82.8163 221.449 82.483C221.782 82.1458 222.042 81.8258 222.227 81.5227C222.417 81.2197 222.542 80.8977 222.602 80.5568C222.667 80.1705 222.633 79.8371 222.5 79.5568C222.371 79.2727 222.165 79.0549 221.881 78.9034C221.597 78.7481 221.256 78.6705 220.858 78.6705C220.441 78.6705 220.062 78.7557 219.722 78.9261C219.381 79.0966 219.097 79.3371 218.869 79.6477C218.642 79.9583 218.492 80.322 218.42 80.7386H216.75C216.867 80.0303 217.136 79.411 217.557 78.8807C217.977 78.3504 218.498 77.9394 219.119 77.6477C219.741 77.3523 220.413 77.2045 221.136 77.2045C221.871 77.2045 222.491 77.3504 222.994 77.642C223.502 77.9299 223.869 78.3239 224.097 78.8239C224.324 79.3201 224.384 79.8807 224.278 80.5057C224.203 80.9413 224.049 81.3655 223.818 81.7784C223.587 82.1875 223.231 82.6458 222.75 83.1534C222.269 83.6572 221.614 84.2689 220.784 84.9886L218.08 87.4091L218.062 87.4943H223.295L223.051 89H215.392ZM229.023 89.1591C228.311 89.1591 227.693 89.0208 227.17 88.7443C226.648 88.4678 226.258 88.089 226 87.608C225.742 87.1269 225.653 86.5795 225.733 85.9659H227.438C227.4 86.4621 227.555 86.8731 227.903 87.1989C228.252 87.5208 228.705 87.6818 229.261 87.6818C229.708 87.6818 230.123 87.5795 230.506 87.375C230.888 87.1667 231.208 86.8826 231.466 86.5227C231.727 86.1591 231.898 85.7424 231.977 85.2727C232.053 84.7992 232.019 84.3769 231.875 84.0057C231.731 83.6345 231.498 83.3428 231.176 83.1307C230.854 82.9148 230.46 82.8068 229.994 82.8068C229.646 82.8068 229.284 82.8693 228.909 82.9943C228.534 83.1155 228.218 83.2727 227.96 83.4659L226.392 83.2273L228.023 77.3636H234.42L234.176 78.8693H229.239L228.324 82.125H228.392C228.661 81.9015 228.994 81.7178 229.392 81.5739C229.79 81.4261 230.206 81.3523 230.642 81.3523C231.35 81.3523 231.955 81.5208 232.455 81.858C232.955 82.1951 233.314 82.6553 233.534 83.2386C233.758 83.822 233.805 84.4886 233.676 85.2386C233.555 85.9924 233.275 86.6648 232.835 87.2557C232.396 87.8466 231.847 88.3125 231.188 88.6534C230.528 88.9905 229.807 89.1591 229.023 89.1591ZM235.518 89L242.263 78.9545L242.286 78.8693H236.411L236.655 77.3636H244.348L244.087 78.9205L237.354 89H235.518Z" fill="#151A1F"/>
<defs>
<linearGradient id="paint0_linear_296_485" x1="0" y1="110" x2="350" y2="110" gradientUnits="userSpaceOnUse">
<stop stop-color="#FD4B1E"/>
<stop offset="1" stop-color="#9D0163"/>
</linearGradient>
<linearGradient id="paint1_linear_296_485" x1="0" y1="110" x2="350" y2="110" gradientUnits="userSpaceOnUse">
<stop stop-color="#832388"/>
<stop offset="0.508333" stop-color="#932883"/>
<stop offset="1" stop-color="#A32E7E"/>
</linearGradient>
<linearGradient id="paint2_linear_296_485" x1="57" y1="94.8826" x2="590.927" y2="384.604" gradientUnits="userSpaceOnUse">
<stop stop-color="white"/>
<stop offset="0.979167" stop-color="white"/>
</linearGradient>
</defs>
</svg>
