<svg width="446" height="78" viewBox="0 0 446 78" fill="none" xmlns="http://www.w3.org/2000/svg">
<path d="M98.343 59.997C87.5295 59.997 81.2155 55.455 80.9253 46.9571H92.9001C93.3354 49.741 94.5693 51.2794 98.2704 51.2794C101.464 51.2794 102.915 50.034 102.915 48.1294C102.915 46.2978 101.101 45.4188 95.8755 44.6862C85.7151 43.3675 81.4332 40.3641 81.4332 32.3789C81.4332 23.8812 88.9084 19.7789 97.6899 19.7789C107.052 19.7789 113.584 23.0022 114.455 32.1592H102.697C102.19 29.5952 100.811 28.3499 97.8351 28.3499C95.0046 28.3499 93.5532 29.5952 93.5532 31.3535C93.5532 33.1849 95.295 33.9175 99.9396 34.5035C110.463 35.8221 115.543 38.6059 115.543 46.8107C115.543 55.8946 108.866 59.997 98.343 59.997ZM143.029 71.8508V53.1283C141.134 56.785 136.908 59.9297 131.151 59.9297C122.335 59.9297 115.121 53.567 115.121 40.3296V39.7445C115.121 26.7266 122.262 19.7789 131.297 19.7789C137.272 19.7789 140.843 22.3384 143.029 26.2146V20.8027H156.072V71.8508H143.029ZM135.453 49.8365C140.115 49.8365 142.984 46.5354 142.984 40.0063V39.4194C142.984 32.9638 140.33 29.5158 135.596 29.5158C130.791 29.5158 128.208 32.8171 128.208 39.4928V40.0796C128.208 46.5354 131.006 49.8365 135.453 49.8365ZM171.862 59.5736C164.496 59.5736 159.027 55.06 159.027 45.4504V20.6255H172.081V43.3391C172.081 47.6344 173.759 49.7456 177.478 49.7456C181.416 49.7456 183.968 47.416 183.968 42.5384V20.6255H197.022V58.7H183.968V52.8032C181.927 56.7344 178.206 59.5736 171.862 59.5736ZM211.137 59.997C204.313 59.997 198.289 56.6271 198.289 48.4955C198.289 39.4849 205.837 35.9686 218.467 35.9686H222.097V35.0895C222.097 31.4266 221.225 29.0092 217.088 29.0092C213.531 29.0092 212.224 31.1336 211.935 33.5512H199.74C200.321 24.3207 207.508 19.7789 217.888 19.7789C228.34 19.7789 235.017 24.1009 235.017 34.2838V59.1178H222.387V54.6491C220.572 57.433 217.234 59.997 211.137 59.997ZM215.883 50.6833C219.59 50.6833 222.353 48.5985 222.353 45.3634V43.063H218.935C213.702 43.063 211.375 44.0694 211.375 47.1607C211.375 49.3173 212.829 50.6833 215.883 50.6833ZM252.736 59.997C243.92 59.997 236.706 53.6417 236.706 40.42V39.8356C236.706 26.833 243.847 19.8934 252.882 19.8934C258.857 19.8934 262.427 22.45 264.614 26.3216V4.11487H277.656V59.1204H264.614V52.9112C262.718 56.8559 258.493 59.997 252.736 59.997ZM257.038 49.8365C261.7 49.8365 264.57 46.5354 264.57 40.0063V39.4194C264.57 32.9638 261.915 29.5158 257.182 29.5158C252.375 29.5158 249.794 32.8171 249.794 39.4928V40.0796C249.794 46.5354 252.59 49.8365 257.038 49.8365Z" fill="url(#paint0_linear_507_15)"/>
<path fill-rule="evenodd" clip-rule="evenodd" d="M43.4957 0C38.318 2.51237 30.0628 7.025 24.6699 11.1384C11.504 21.1774 0 32.0632 0 45.7099C0 60.1542 11.2914 71.9706 28.7224 74.133C32.181 74.5608 29.2513 77.8625 29.2513 77.8625C29.2513 77.8625 31.5394 77.1249 33.0989 76.5947C33.5513 76.4404 34.3007 78 34.3007 78C34.3007 78 35.7046 76.3833 35.8512 76.4936C37.5389 77.7731 39.7959 78 39.7959 78C39.7959 78 36.8182 74.5724 40.527 74.0772C57.7169 71.7762 68.8229 60.0362 68.8229 45.7099C68.8229 31.332 60.193 21.2928 43.4491 10.498C41.2869 9.1044 41.0417 5.16863 43.4957 0ZM36.9336 14.4714C45.8241 22.5127 50.2694 32.5609 50.2694 42.609C50.2694 52.6559 45.8241 62.7041 36.9336 70.7456C49.4941 55.4108 52.1309 31.4499 36.9336 14.4714ZM31.8221 14.4688C22.9316 22.5102 18.4863 32.5584 18.4863 42.6065C18.4863 52.6547 22.9316 62.7016 31.8221 70.7429C19.2603 55.4081 16.6247 31.4474 31.8221 14.4688ZM34.3784 69.7848C35.0513 60.543 35.3883 51.3012 35.3883 42.0582C35.3883 32.8164 35.0513 23.5745 34.3784 14.3327C32.4171 32.8164 32.4171 51.3012 34.3784 69.7848ZM45.4624 17.4829C55.3316 25.7135 61.0304 35.1951 61.4906 44.3487C61.9497 53.5012 57.1699 62.3255 46.0821 69.2405C65.6223 52.2618 61.2793 33.5034 45.4624 17.4829ZM23.2932 17.4816C13.4239 25.7109 7.72506 35.1926 7.26485 44.3462C6.80465 53.4986 11.5844 62.323 22.6722 69.2378C3.13333 52.2593 7.47489 33.5007 23.2932 17.4816Z" fill="url(#paint1_linear_507_15)"/>
<path d="M313.192 57.8H300.87V21.4364H313.441C317.051 21.4364 320.153 22.1643 322.745 23.6203C325.349 25.0644 327.349 27.1418 328.746 29.8525C330.143 32.5632 330.841 35.8066 330.841 39.5827C330.841 43.3705 330.137 46.6257 328.729 49.3483C327.332 52.0708 325.314 54.1601 322.674 55.616C320.046 57.072 316.885 57.8 313.192 57.8ZM307.457 52.1004H312.873C315.406 52.1004 317.519 51.6388 319.211 50.7155C320.904 49.7803 322.177 48.3895 323.029 46.5429C323.881 44.6845 324.307 42.3644 324.307 39.5827C324.307 36.8009 323.881 34.4927 323.029 32.6579C322.177 30.8114 320.916 29.4323 319.247 28.5209C317.59 27.5976 315.53 27.1359 313.068 27.1359H307.457V52.1004ZM370.593 39.6182C370.593 43.5363 369.859 46.8921 368.392 49.6856C366.936 52.4674 364.947 54.598 362.426 56.0777C359.916 57.5573 357.069 58.2971 353.885 58.2971C350.701 58.2971 347.848 57.5573 345.327 56.0777C342.817 54.5862 340.829 52.4496 339.361 49.6679C337.905 46.8743 337.177 43.5244 337.177 39.6182C337.177 35.7001 337.905 32.3502 339.361 29.5685C340.829 26.7749 342.817 24.6383 345.327 23.1587C347.848 21.679 350.701 20.9392 353.885 20.9392C357.069 20.9392 359.916 21.679 362.426 23.1587C364.947 24.6383 366.936 26.7749 368.392 29.5685C369.859 32.3502 370.593 35.7001 370.593 39.6182ZM363.97 39.6182C363.97 36.8601 363.538 34.5341 362.674 32.6402C361.822 30.7344 360.638 29.2962 359.123 28.3256C357.608 27.3431 355.862 26.8518 353.885 26.8518C351.908 26.8518 350.162 27.3431 348.647 28.3256C347.132 29.2962 345.942 30.7344 345.078 32.6402C344.226 34.5341 343.8 36.8601 343.8 39.6182C343.8 42.3762 344.226 44.7081 345.078 46.6139C345.942 48.5078 347.132 49.9461 348.647 50.9285C350.162 51.8992 351.908 52.3845 353.885 52.3845C355.862 52.3845 357.608 51.8992 359.123 50.9285C360.638 49.9461 361.822 48.5078 362.674 46.6139C363.538 44.7081 363.97 42.3762 363.97 39.6182ZM408.947 33.7055H402.306C402.117 32.6165 401.768 31.6518 401.259 30.8114C400.75 29.9591 400.116 29.237 399.359 28.6452C398.601 28.0533 397.737 27.6094 396.766 27.3135C395.808 27.0057 394.772 26.8518 393.659 26.8518C391.682 26.8518 389.93 27.349 388.403 28.3433C386.876 29.3258 385.681 30.7699 384.817 32.6757C383.953 34.5696 383.521 36.8838 383.521 39.6182C383.521 42.3999 383.953 44.7436 384.817 46.6494C385.693 48.5434 386.888 49.9757 388.403 50.9463C389.93 51.9051 391.676 52.3845 393.641 52.3845C394.73 52.3845 395.748 52.2425 396.695 51.9584C397.654 51.6624 398.512 51.2304 399.27 50.6622C400.039 50.094 400.684 49.3956 401.205 48.567C401.738 47.7384 402.105 46.7915 402.306 45.7261L408.947 45.7616C408.698 47.4899 408.16 49.1115 407.331 50.6267C406.514 52.1418 405.443 53.4794 404.117 54.6395C402.791 55.7877 401.241 56.6873 399.465 57.3383C397.69 57.9775 395.719 58.2971 393.553 58.2971C390.357 58.2971 387.504 57.5573 384.994 56.0777C382.485 54.598 380.508 52.4614 379.064 49.6679C377.62 46.8743 376.898 43.5244 376.898 39.6182C376.898 35.7001 377.626 32.3502 379.082 29.5685C380.538 26.7749 382.52 24.6383 385.03 23.1587C387.539 21.679 390.38 20.9392 393.553 20.9392C395.577 20.9392 397.459 21.2233 399.199 21.7915C400.939 22.3596 402.49 23.1942 403.851 24.295C405.212 25.384 406.331 26.7216 407.207 28.3078C408.094 29.8821 408.674 31.6814 408.947 33.7055ZM435.741 31.4328C435.576 29.8821 434.877 28.6748 433.646 27.8106C432.427 26.9465 430.841 26.5145 428.888 26.5145C427.515 26.5145 426.337 26.7216 425.354 27.1359C424.372 27.5502 423.62 28.1125 423.099 28.8227C422.578 29.5329 422.312 30.3438 422.3 31.2552C422.3 32.0128 422.472 32.6698 422.815 33.2261C423.17 33.7825 423.65 34.256 424.253 34.6466C424.857 35.0254 425.526 35.345 426.26 35.6054C426.994 35.8658 427.733 36.0848 428.479 36.2623L431.888 37.1146C433.261 37.4342 434.581 37.8663 435.848 38.4108C437.126 38.9553 438.269 39.6418 439.275 40.4704C440.293 41.299 441.098 42.2993 441.689 43.4712C442.281 44.643 442.577 46.0161 442.577 47.5905C442.577 49.7212 442.033 51.5973 440.944 53.219C439.855 54.8289 438.28 56.0895 436.221 57.001C434.173 57.9006 431.693 58.3504 428.781 58.3504C425.952 58.3504 423.496 57.9124 421.412 57.0365C419.341 56.1605 417.719 54.8821 416.547 53.2013C415.387 51.5204 414.76 49.4726 414.665 47.0578H421.146C421.241 48.3244 421.631 49.3779 422.318 50.2183C423.005 51.0587 423.898 51.6861 424.999 52.1004C426.112 52.5147 427.355 52.7219 428.728 52.7219C430.16 52.7219 431.415 52.5088 432.492 52.0827C433.581 51.6447 434.433 51.041 435.049 50.2716C435.664 49.4903 435.978 48.5789 435.99 47.5372C435.978 46.5902 435.7 45.809 435.155 45.1935C434.611 44.5661 433.847 44.0453 432.865 43.631C431.894 43.2048 430.758 42.826 429.456 42.4946L425.319 41.4292C422.324 40.6598 419.956 39.4939 418.216 37.9314C416.488 36.357 415.624 34.2678 415.624 31.6636C415.624 29.5211 416.204 27.6449 417.364 26.0351C418.536 24.4252 420.128 23.1764 422.14 22.2886C424.153 21.389 426.431 20.9392 428.976 20.9392C431.557 20.9392 433.818 21.389 435.759 22.2886C437.712 23.1764 439.245 24.4134 440.358 25.9996C441.47 27.5739 442.045 29.385 442.08 31.4328H435.741Z" fill="#A2868E"/>
<defs>
<linearGradient id="paint0_linear_507_15" x1="80.9253" y1="37.9832" x2="277.655" y2="37.9832" gradientUnits="userSpaceOnUse">
<stop stop-color="#FF4C1D"/>
<stop offset="1" stop-color="#9B0063"/>
</linearGradient>
<linearGradient id="paint1_linear_507_15" x1="0" y1="46.4801" x2="342.296" y2="46.4801" gradientUnits="userSpaceOnUse">
<stop stop-color="#FF4C1D"/>
<stop offset="1" stop-color="#9B0063"/>
</linearGradient>
</defs>
</svg>
