<svg width="260" height="191" viewBox="0 0 260 191" fill="none" xmlns="http://www.w3.org/2000/svg">
<path d="M225.328 112.55C226.087 108.77 227.332 105.104 229.033 101.644C233.679 92.1308 237.018 83.8086 234.062 73.1866C226.82 47.2442 197.364 44.2126 182.834 24.6469C160.37 -5.58728 105.175 -8.2123 78.8087 17.9159C70.7246 25.9246 66.9381 37.2377 58.7668 45.1592C46.7278 56.8383 28.8521 58.3424 16.4878 69.9866C-3.67031 88.9831 -5.62746 121.174 12.2657 142.535C31.1635 165.091 57.8376 161.392 83.7452 156.595C96.4928 154.237 109.746 151.682 122.737 153.494C150.445 157.396 183.322 172.618 210.176 157.466C224.48 149.393 224.846 136.803 224.515 122.115C224.434 118.907 224.707 115.699 225.328 112.55Z" fill="#E39292"/>
<path opacity="0.6" d="M225.328 112.55C226.087 108.77 227.332 105.104 229.033 101.644C233.679 92.1308 237.018 83.8086 234.062 73.1866C226.82 47.2442 197.364 44.2126 182.834 24.6469C160.37 -5.58728 105.175 -8.2123 78.8087 17.9159C70.7246 25.9246 66.9381 37.2377 58.7668 45.1592C46.7278 56.8383 28.8521 58.3424 16.4878 69.9866C-3.67031 88.9831 -5.62746 121.174 12.2657 142.535C31.1635 165.091 57.8376 161.392 83.7452 156.595C96.4928 154.237 109.746 151.682 122.737 153.494C150.445 157.396 183.322 172.618 210.176 157.466C224.48 149.393 224.846 136.803 224.515 122.115C224.434 118.907 224.707 115.699 225.328 112.55Z" fill="white"/>
<path d="M33.8175 32.1213L17.0453 174.581C17.0226 174.786 17.0578 174.993 17.1471 175.18C17.2363 175.366 17.376 175.523 17.5502 175.634C17.7244 175.744 17.9262 175.804 18.1326 175.806C18.339 175.808 18.5418 175.751 18.7179 175.644L29.4967 169.011C30.1365 168.615 30.9052 168.482 31.6409 168.642C32.3765 168.801 33.0216 169.24 33.44 169.865L46.9833 190L52.6341 105.302L33.8175 32.1213Z" fill="#E39292" stroke="#2E353A" stroke-width="0.580757" stroke-linecap="round" stroke-linejoin="round"/>
<path d="M33.7129 35.7045L18.5552 171.021C18.5224 171.313 18.5756 171.608 18.7083 171.87C18.8409 172.133 19.0472 172.351 19.3018 172.497C19.5565 172.644 19.8484 172.713 20.1418 172.697C20.4353 172.68 20.7174 172.578 20.9537 172.403L28.8346 166.595C29.2444 166.292 29.7118 166.076 30.2082 165.96C30.7046 165.844 31.2194 165.83 31.7212 165.92C32.223 166.009 32.7013 166.201 33.1266 166.482C33.552 166.763 33.9155 167.127 34.195 167.554L43.4174 181.631C43.5173 181.788 43.6667 181.906 43.8418 181.968C44.0169 182.029 44.2076 182.03 44.3834 181.971C44.5592 181.911 44.71 181.795 44.8118 181.639C44.9135 181.484 44.9603 181.299 44.9448 181.114L34.1775 35.7103C34.1663 35.6574 34.1375 35.6099 34.0957 35.5756C34.0539 35.5413 34.0016 35.5222 33.9476 35.5215C33.8935 35.5209 33.8408 35.5386 33.7981 35.5719C33.7555 35.6051 33.7254 35.6519 33.7129 35.7045Z" fill="#E39292" stroke="#2E353A" stroke-width="0.580757" stroke-linecap="round" stroke-linejoin="round"/>
<path opacity="0.6" d="M33.922 33.7416L18.5436 171.009C18.5108 171.301 18.564 171.597 18.6967 171.859C18.8293 172.121 19.0356 172.339 19.2902 172.486C19.5449 172.633 19.8368 172.702 20.1302 172.685C20.4237 172.668 20.7058 172.566 20.9421 172.391L28.823 166.584C29.2328 166.281 29.7002 166.064 30.1966 165.948C30.693 165.832 31.2078 165.818 31.7096 165.908C32.2114 165.998 32.6897 166.189 33.115 166.47C33.5404 166.751 33.9039 167.116 34.1834 167.542L43.4058 181.62C43.5057 181.776 43.6551 181.895 43.8302 181.956C44.0053 182.018 44.196 182.019 44.3718 181.959C44.5476 181.9 44.6984 181.783 44.8002 181.628C44.9019 181.473 44.9488 181.288 44.9332 181.103L34.0324 33.7416C34.0285 33.73 34.0212 33.7199 34.0113 33.7127C34.0013 33.7056 33.9894 33.7017 33.9772 33.7017C33.965 33.7017 33.953 33.7056 33.9431 33.7127C33.9332 33.7199 33.9258 33.73 33.922 33.7416Z" fill="black"/>
<path d="M31.117 165.84C31.7271 165.851 32.3254 166.011 32.8598 166.305C33.3942 166.6 33.8486 167.02 34.1834 167.53L43.4058 181.608C43.5058 181.764 43.6552 181.883 43.8303 181.944C44.0054 182.006 44.1961 182.007 44.3719 181.948C44.5477 181.888 44.6985 181.771 44.8002 181.616C44.902 181.461 44.9488 181.276 44.9332 181.091L43.6149 163.297L30.9196 165.782C30.987 165.796 31.0531 165.815 31.117 165.84Z" fill="#E39292" stroke="#2E353A" stroke-width="0.580757" stroke-linecap="round" stroke-linejoin="round"/>
<path opacity="0.3" d="M31.117 165.84C31.7271 165.851 32.3254 166.011 32.8598 166.305C33.3942 166.6 33.8486 167.02 34.1834 167.53L43.4058 181.608C43.5058 181.764 43.6552 181.883 43.8303 181.944C44.0054 182.006 44.1961 182.007 44.3719 181.948C44.5477 181.888 44.6985 181.771 44.8002 181.616C44.902 181.461 44.9488 181.276 44.9332 181.091L43.6149 163.297L30.9196 165.782C30.987 165.796 31.0531 165.815 31.117 165.84Z" fill="black"/>
<path d="M34.1602 32.0342L46.9775 190L196.435 161.52L161.311 38.3238L34.1602 32.0342Z" fill="#2E353A" stroke="#2E353A" stroke-width="0.580757" stroke-linecap="round" stroke-linejoin="round"/>
<path d="M41.0885 35.4432L49.8928 181.649L190.436 156.095L160.811 42.5052L41.0885 35.4432Z" fill="#E39292" stroke="#2E353A" stroke-width="0.580757" stroke-linecap="round" stroke-linejoin="round"/>
<path d="M49.678 107.393L56.3625 176.695L184.059 153.476L172.194 101.388L49.678 107.393Z" fill="white" stroke="#2E353A" stroke-width="0.580757" stroke-linecap="round" stroke-linejoin="round"/>
<path d="M74.3253 173.245L72.2056 150.985" stroke="#2E353A" stroke-width="0.580757" stroke-linecap="round" stroke-linejoin="round"/>
<path d="M93.8678 169.801L91.8235 151.246" stroke="#2E353A" stroke-width="0.580757" stroke-linecap="round" stroke-linejoin="round"/>
<path d="M113.027 166.09L110.64 151.246" stroke="#2E353A" stroke-width="0.580757" stroke-linecap="round" stroke-linejoin="round"/>
<path d="M132.767 162.704L129.927 145.009" stroke="#2E353A" stroke-width="0.580757" stroke-linecap="round" stroke-linejoin="round"/>
<path d="M150.155 159.568L147.733 142.297" stroke="#2E353A" stroke-width="0.580757" stroke-linecap="round" stroke-linejoin="round"/>
<path d="M166.828 156.484L163.222 135.717" stroke="#2E353A" stroke-width="0.580757" stroke-linecap="round" stroke-linejoin="round"/>
<g style="mix-blend-mode:multiply" opacity="0.49">
<path d="M41.7971 75.8348C41.7971 75.8348 44.7474 118.294 47.4595 133.777C50.1716 149.26 55.201 172.432 55.201 172.432C55.201 172.432 142.314 158.947 185.29 140.746L181.806 124.102L41.7971 75.8348Z" fill="#E39292"/>
</g>
<path d="M37.8596 33.8519L160.208 40.4435C160.208 40.4435 172.119 76.131 183.972 96.2832C195.825 116.435 215.374 115.123 215.374 115.123C215.374 115.123 170.539 139.637 135.618 152.686C99.2746 166.259 67.757 168.698 67.757 168.698C67.757 168.698 39.0502 129.485 37.8596 33.8519Z" fill="#E39292" stroke="#2E353A" stroke-width="0.580757" stroke-linecap="round" stroke-linejoin="round"/>
<path d="M51.8674 27.4985C49.5967 27.4985 47.9532 29.5137 47.4363 32.673L49.7593 32.8008C50.1194 30.9772 50.8337 29.8215 51.8616 29.8215C53.058 29.8215 54.3879 31.7438 54.3879 34.5082C54.3879 37.2726 53.058 39.2007 51.8616 39.2007C51.5536 39.2007 51.2582 39.3231 51.0403 39.5409C50.8225 39.7587 50.7001 40.0542 50.7001 40.3622C50.7001 40.6703 50.8225 40.9657 51.0403 41.1835C51.2582 41.4014 51.5536 41.5237 51.8616 41.5237C54.5796 41.5237 56.711 38.4399 56.711 34.5082C56.711 30.5765 54.5854 27.4985 51.8674 27.4985Z" fill="white" stroke="#2E353A" stroke-width="0.580757" stroke-miterlimit="10"/>
<path d="M55.201 36.3899C55.0898 36.7995 54.9461 37.1995 54.7712 37.5862" stroke="#2E353A" stroke-width="0.435567" stroke-linecap="round" stroke-linejoin="round"/>
<path d="M48.5861 31.6276C48.5861 31.6276 49.4572 28.4799 52.0299 28.6542C54.051 28.7936 55.7178 31.7961 55.439 35.0076" stroke="#2E353A" stroke-width="0.435567" stroke-linecap="round" stroke-linejoin="round"/>
<path d="M72.043 28.5148C69.7722 28.5148 68.1287 30.53 67.6118 33.6893L69.9348 33.8171C70.2949 31.9935 71.0092 30.8378 72.0372 30.8378C73.2335 30.8378 74.5635 32.7601 74.5635 35.5245C74.5635 38.2889 73.2335 40.217 72.0372 40.217C71.7291 40.217 71.4337 40.3394 71.2159 40.5572C70.998 40.7751 70.8757 41.0705 70.8757 41.3785C70.8757 41.6866 70.998 41.982 71.2159 42.1999C71.4337 42.4177 71.7291 42.5401 72.0372 42.5401C74.7551 42.5401 76.8865 39.4562 76.8865 35.5245C76.8865 31.5928 74.7667 28.5148 72.043 28.5148Z" fill="white" stroke="#2E353A" stroke-width="0.580757" stroke-miterlimit="10"/>
<path d="M75.3822 37.4062C75.2709 37.8158 75.1272 38.2158 74.9524 38.6025" stroke="#2E353A" stroke-width="0.435567" stroke-linecap="round" stroke-linejoin="round"/>
<path d="M68.7673 32.644C68.7673 32.644 69.6385 29.4963 72.2112 29.6705C74.2322 29.8099 75.899 32.8124 75.6203 36.024" stroke="#2E353A" stroke-width="0.435567" stroke-linecap="round" stroke-linejoin="round"/>
<path d="M92.23 29.5311C89.9592 29.5311 88.3157 31.5463 87.7988 34.7057L90.1219 34.8334C90.4819 33.0098 91.1963 31.8541 92.2242 31.8541C93.4205 31.8541 94.7505 33.7764 94.7505 36.5408C94.7505 39.3052 93.4205 41.2334 92.2242 41.2334C91.9161 41.2334 91.6207 41.3557 91.4029 41.5736C91.185 41.7914 91.0627 42.0868 91.0627 42.3949C91.0627 42.7029 91.185 42.9984 91.4029 43.2162C91.6207 43.434 91.9161 43.5564 92.2242 43.5564C94.9421 43.5564 97.0735 40.4726 97.0735 36.5408C97.0735 32.6091 94.9479 29.5311 92.23 29.5311Z" fill="white" stroke="#2E353A" stroke-width="0.580757" stroke-miterlimit="10"/>
<path d="M95.5636 38.4225C95.4523 38.8321 95.3086 39.2322 95.1338 39.6189" stroke="#2E353A" stroke-width="0.435567" stroke-linecap="round" stroke-linejoin="round"/>
<path d="M88.9487 33.6603C88.9487 33.6603 89.8199 30.5126 92.3926 30.6868C94.4136 30.8262 96.0804 33.8287 95.8017 37.0403" stroke="#2E353A" stroke-width="0.435567" stroke-linecap="round" stroke-linejoin="round"/>
<path d="M112.411 30.5474C110.141 30.5474 108.497 32.5627 107.98 35.722L110.303 35.8497C110.663 34.0262 111.378 32.8705 112.405 32.8705C113.602 32.8705 114.932 34.7928 114.932 37.5572C114.932 40.3216 113.602 42.2497 112.405 42.2497C112.097 42.2497 111.802 42.372 111.584 42.5899C111.366 42.8077 111.244 43.1031 111.244 43.4112C111.244 43.7192 111.366 44.0147 111.584 44.2325C111.802 44.4503 112.097 44.5727 112.405 44.5727C115.123 44.5727 117.255 41.4889 117.255 37.5572C117.255 33.6254 115.129 30.5474 112.411 30.5474Z" fill="white" stroke="#2E353A" stroke-width="0.580757" stroke-miterlimit="10"/>
<path d="M115.745 39.4389C115.634 39.8484 115.49 40.2485 115.315 40.6352" stroke="#2E353A" stroke-width="0.435567" stroke-linecap="round" stroke-linejoin="round"/>
<path d="M109.13 34.6766C109.13 34.6766 110.001 31.5289 112.574 31.7031C114.595 31.8425 116.262 34.845 115.983 38.0566" stroke="#2E353A" stroke-width="0.435567" stroke-linecap="round" stroke-linejoin="round"/>
<path d="M132.958 31.4476C130.688 31.4476 129.044 33.4629 128.533 36.628L130.856 36.7557C131.222 34.9322 131.936 33.7707 132.958 33.7707C134.155 33.7707 135.491 35.6988 135.491 38.4632C135.491 41.2276 134.155 43.1499 132.958 43.1499C132.65 43.1499 132.355 43.2722 132.137 43.4901C131.919 43.7079 131.797 44.0033 131.797 44.3114C131.797 44.6194 131.919 44.9149 132.137 45.1327C132.355 45.3505 132.65 45.4729 132.958 45.4729C135.682 45.4729 137.814 42.3949 137.814 38.4632C137.814 34.5315 135.682 31.4476 132.958 31.4476Z" fill="white" stroke="#2E353A" stroke-width="0.580757" stroke-miterlimit="10"/>
<path d="M136.292 40.3448C136.182 40.7528 136.038 41.151 135.862 41.5354" stroke="#2E353A" stroke-width="0.435567" stroke-linecap="round" stroke-linejoin="round"/>
<path d="M129.677 35.5826C129.677 35.5826 130.554 32.429 133.121 32.6033C135.148 32.7427 136.809 35.751 136.536 38.9626" stroke="#2E353A" stroke-width="0.435567" stroke-linecap="round" stroke-linejoin="round"/>
<path d="M152.698 32.5336C150.428 32.5336 148.784 34.5489 148.273 37.7082L150.596 37.8418C150.962 36.0182 151.676 34.8567 152.698 34.8567C153.895 34.8567 155.23 36.7848 155.23 39.5434C155.23 42.302 153.895 44.2359 152.698 44.2359C152.39 44.2359 152.095 44.3583 151.877 44.5761C151.659 44.7939 151.537 45.0893 151.537 45.3974C151.537 45.7055 151.659 46.0009 151.877 46.2187C152.095 46.4365 152.39 46.5589 152.698 46.5589C155.422 46.5589 157.553 43.4751 157.553 39.5434C157.553 35.6117 155.422 32.5336 152.698 32.5336Z" fill="white" stroke="#2E353A" stroke-width="0.580757" stroke-miterlimit="10"/>
<path d="M156.032 41.3959C155.923 41.8061 155.779 42.2063 155.602 42.5923" stroke="#2E353A" stroke-width="0.435567" stroke-linecap="round" stroke-linejoin="round"/>
<path d="M149.417 36.6396C149.417 36.6396 150.294 33.4861 152.861 33.6603C154.888 33.7997 156.549 36.8022 156.276 40.0138" stroke="#2E353A" stroke-width="0.435567" stroke-linecap="round" stroke-linejoin="round"/>
<path d="M179.924 96.3762C171.509 82.0663 162.67 59.4691 159.528 51.1527L50.189 46.7215C50.1193 127.534 74.5808 160.921 74.5808 160.921C74.5808 160.921 102.428 158.767 134.544 146.768C165.405 135.24 202.214 115.89 202.214 115.89C202.214 115.89 190.395 114.188 179.924 96.3762Z" fill="white" stroke="#2E353A" stroke-width="0.580757" stroke-linecap="round" stroke-linejoin="round"/>
<path d="M159.528 51.1527L50.189 46.7215C50.189 54.6721 50.4155 62.1522 50.8336 69.1968L166.3 68.1166C163.309 60.9907 160.899 54.7476 159.528 51.1527Z" fill="#2E353A" stroke="#2E353A" stroke-width="0.580757" stroke-linecap="round" stroke-linejoin="round"/>
<path d="M161.462 75.2425L166.631 75.0624" stroke="#2E353A" stroke-width="1.74227" stroke-linecap="round" stroke-linejoin="round"/>
<path d="M146.269 75.7593L157.588 75.3702" stroke="#2E353A" stroke-width="1.74227" stroke-linecap="round" stroke-linejoin="round"/>
<path d="M127.877 76.3807L142.425 75.8871" stroke="#2E353A" stroke-width="1.74227" stroke-linecap="round" stroke-linejoin="round"/>
<path d="M109.165 77.0138L124.665 76.4911" stroke="#2E353A" stroke-width="1.74227" stroke-linecap="round" stroke-linejoin="round"/>
<path d="M91.0743 77.6294L105.285 77.1473" stroke="#2E353A" stroke-width="1.74227" stroke-linecap="round" stroke-linejoin="round"/>
<path d="M72.0139 78.2798L86.2366 77.792" stroke="#2E353A" stroke-width="1.74227" stroke-linecap="round" stroke-linejoin="round"/>
<path d="M55.2358 78.849L68.4713 78.396" stroke="#2E353A" stroke-width="1.74227" stroke-linecap="round" stroke-linejoin="round"/>
<path d="M53.0812 91.3062L173.373 83.9771" stroke="#2E353A" stroke-width="0.580757" stroke-linecap="round" stroke-linejoin="round"/>
<path d="M72.0894 90.2724C72.0894 90.2724 74.0639 122.261 95.1512 157.768" stroke="#2E353A" stroke-width="0.580757" stroke-linecap="round" stroke-linejoin="round"/>
<path d="M91.4983 88.989C91.4983 88.989 93.7226 125.577 116.843 152.367" stroke="#2E353A" stroke-width="0.580757" stroke-linecap="round" stroke-linejoin="round"/>
<path d="M109.072 87.9088C109.072 87.9088 110.233 121.593 136.222 145.799" stroke="#2E353A" stroke-width="0.580757" stroke-linecap="round" stroke-linejoin="round"/>
<path d="M127.29 87.1248C127.29 87.1248 130.159 124.572 155.312 137.761" stroke="#2E353A" stroke-width="0.580757" stroke-linecap="round" stroke-linejoin="round"/>
<path d="M146.38 85.6205C146.38 85.6205 148.401 113.944 174.128 129.456" stroke="#2E353A" stroke-width="0.580757" stroke-linecap="round" stroke-linejoin="round"/>
<path d="M161.41 84.703C161.41 84.703 168.332 113.741 187.701 123.143" stroke="#2E353A" stroke-width="0.580757" stroke-linecap="round" stroke-linejoin="round"/>
<path d="M55.7178 107.805L178.583 94.2913" stroke="#2E353A" stroke-width="0.580757" stroke-linecap="round" stroke-linejoin="round"/>
<path d="M58.9236 122.26C58.9236 122.26 85.1564 121.233 184.297 102.962" stroke="#2E353A" stroke-width="0.580757" stroke-linecap="round" stroke-linejoin="round"/>
<path d="M63.5522 137.563C63.5522 137.563 89.1055 140.467 189.216 108.59" stroke="#2E353A" stroke-width="0.580757" stroke-linecap="round" stroke-linejoin="round"/>
<path d="M69.0809 150.915C69.0809 150.915 90.3831 157.971 195.024 113.166" stroke="#2E353A" stroke-width="0.580757" stroke-linecap="round" stroke-linejoin="round"/>
<path d="M97.4163 62.5297L58.0294 62.0012C57.7103 61.9964 57.4038 61.8761 57.1667 61.6625C56.9296 61.4489 56.778 61.1565 56.7401 60.8397L56.4033 57.6571C56.3835 57.474 56.4029 57.2887 56.4601 57.1136C56.5173 56.9385 56.611 56.7775 56.7351 56.6414C56.8592 56.5052 57.0108 56.397 57.1798 56.3238C57.3489 56.2506 57.5316 56.2141 57.7158 56.2168L96.6265 56.8905C96.914 56.8956 97.1919 56.9949 97.4175 57.1733C97.6431 57.3517 97.8039 57.5992 97.8751 57.8778L98.6649 60.9036C98.7143 61.0949 98.7195 61.295 98.68 61.4886C98.6406 61.6823 98.5575 61.8644 98.4371 62.0211C98.3168 62.1778 98.1623 62.3051 97.9854 62.3932C97.8085 62.4813 97.6139 62.528 97.4163 62.5297Z" fill="white"/>
<path d="M127.172 74.3559L146.505 119.6C148.185 123.529 152.731 125.353 156.661 123.674L239.388 88.3227C243.318 86.6435 245.142 82.0968 243.463 78.1673L224.129 32.9236C222.45 28.9941 217.903 27.1699 213.974 28.849L131.246 64.2005C127.317 65.8797 125.492 70.4264 127.172 74.3559Z" fill="#263238"/>
<path d="M222.352 33.6274L240.098 75.1445C240.604 76.3229 240.872 77.5895 240.888 78.8717C240.903 80.1539 240.665 81.4265 240.187 82.6165C239.709 83.8065 239.002 84.8905 238.104 85.8064C237.206 86.7222 236.137 87.4518 234.957 87.9534L155.95 121.717C154.672 122.27 153.289 122.536 151.898 122.498C150.025 122.46 148.204 121.882 146.653 120.833C145.101 119.784 143.886 118.309 143.153 116.586L138.176 104.92L125.404 75.0534C124.9 73.8748 124.633 72.6084 124.619 71.3267C124.605 70.045 124.843 68.7731 125.32 67.5836C125.798 66.3941 126.505 65.3103 127.402 64.3942C128.298 63.4781 129.366 62.7476 130.545 62.2445L162.243 48.6971L185.808 38.6249L209.531 28.5047C210.709 27.9984 211.976 27.7293 213.258 27.7128C214.54 27.6963 215.813 27.9327 217.003 28.4084C218.194 28.8842 219.279 29.59 220.197 30.4855C221.115 31.381 221.847 32.4487 222.352 33.6274Z" fill="#E39292"/>
<path opacity="0.1" d="M162.236 48.7244L138.164 104.939L125.404 75.0532C124.9 73.8746 124.633 72.6083 124.619 71.3266C124.605 70.0449 124.843 68.773 125.321 67.5834C125.798 66.3939 126.505 65.3101 127.402 64.394C128.298 63.4779 129.366 62.7474 130.545 62.2443L162.236 48.7244Z" fill="black"/>
<path opacity="0.1" d="M222.352 33.6275L240.099 75.1447C240.604 76.323 240.873 77.5896 240.888 78.8718C240.903 80.1541 240.665 81.4267 240.187 82.6167C239.71 83.8067 239.002 84.8907 238.104 85.8065C237.207 86.7224 236.137 87.452 234.957 87.9536L155.951 121.717C154.673 122.27 153.289 122.536 151.898 122.498L187.685 37.8687L209.573 28.5152C211.946 27.505 214.623 27.4757 217.018 28.4338C219.412 29.3918 221.331 31.2592 222.352 33.6275Z" fill="black"/>
<path d="M133.383 71.7942L136.515 79.1241C137.143 80.5923 138.841 81.2739 140.31 80.6465L151.992 75.6543C153.46 75.0269 154.142 73.3282 153.514 71.86L150.382 64.5301C149.755 63.0619 148.056 62.3803 146.588 63.0077L134.905 67.9998C133.437 68.6272 132.756 70.326 133.383 71.7942Z" fill="white" stroke="#263238" stroke-width="0.580757" stroke-linecap="round" stroke-linejoin="round"/>
<path d="M134.874 75.3033L151.987 68.2952" stroke="#263238" stroke-width="0.580757" stroke-linecap="round" stroke-linejoin="round"/>
<path d="M146.179 78.1392L140.785 65.4852" stroke="#263238" stroke-width="0.580757" stroke-linecap="round" stroke-linejoin="round"/>
<path d="M234.674 78.4517L235.552 80.6005L200.86 95.4275L199.951 93.2855L234.674 78.4517Z" fill="#263238"/>
<path d="M233.17 74.8088L234.062 76.9611L199.314 91.8035L198.402 89.6753L233.17 74.8088Z" fill="#263238"/>
<path d="M231.677 71.1766L232.557 73.3185L197.774 88.1884L196.856 86.0516L231.677 71.1766Z" fill="#263238"/>
<path d="M230.173 67.534L231.051 69.6828L196.727 84.3537L195.807 82.2238L230.173 67.534Z" fill="#263238"/>
<path d="M228.558 63.6078L229.443 65.7583L195.062 80.4515L194.144 78.3147L228.558 63.6078Z" fill="#263238"/>
<path d="M194.58 55.0843L195.458 57.2331L161.076 71.9262L160.166 69.7912L194.58 55.0843Z" fill="#263238"/>
<path d="M131.922 90.1496L133.351 93.4921L230.236 52.0904L228.808 48.748L131.922 90.1496Z" fill="#263238"/>
<path d="M222.352 33.6274L240.098 75.1445C240.604 76.3229 240.872 77.5895 240.888 78.8717C240.903 80.1539 240.665 81.4265 240.187 82.6165C239.709 83.8065 239.002 84.8905 238.104 85.8064C237.206 86.7222 236.137 87.4518 234.957 87.9534L155.95 121.717C154.672 122.27 153.289 122.536 151.898 122.498C150.025 122.46 148.204 121.882 146.653 120.833C145.101 119.784 143.886 118.309 143.153 116.586L138.176 104.92L125.404 75.0534C124.9 73.8748 124.633 72.6084 124.619 71.3267C124.605 70.045 124.843 68.7731 125.32 67.5836C125.798 66.3941 126.505 65.3103 127.402 64.3942C128.298 63.4781 129.366 62.7476 130.545 62.2445L162.243 48.6971L185.808 38.6249L209.531 28.5047C210.709 27.9984 211.976 27.7293 213.258 27.7128C214.54 27.6963 215.813 27.9327 217.003 28.4084C218.194 28.8842 219.279 29.59 220.197 30.4855C221.115 31.381 221.847 32.4487 222.352 33.6274Z" stroke="#263238" stroke-width="0.580757" stroke-linecap="round" stroke-linejoin="round"/>
</svg>
