<svg width="199" height="240" viewBox="0 0 199 240" fill="none" xmlns="http://www.w3.org/2000/svg">
<path opacity="0.7" d="M10.7292 78.9177C10.7292 78.9177 -3.41196 115.437 16.4608 152.21C36.3335 188.983 77.2658 208.41 110.027 225.021C142.788 241.632 176.807 233.542 192.972 206.335C209.137 179.128 186.966 159.707 186.936 120.91C186.905 82.1131 192.744 71.842 171.719 39.0657C150.695 6.28947 99.1572 -0.968779 60.1827 23.3421C21.2083 47.6529 10.7292 78.9177 10.7292 78.9177Z" fill="white"/>
<path d="M15.3651 78.593C29.9831 51.6801 66.7562 20.2632 117.204 33.3494C167.652 46.4355 201.736 74.1193 196.152 122.285C190.568 170.45 161.22 210.469 98.0058 211.641C34.7915 212.812 -16.6909 137.608 15.3651 78.593Z" fill="#E39292"/>
<path opacity="0.7" d="M15.3651 78.593C29.9831 51.6801 66.7562 20.2632 117.204 33.3494C167.652 46.4355 201.736 74.1193 196.152 122.285C190.568 170.45 161.22 210.469 98.0058 211.641C34.7915 212.812 -16.6909 137.608 15.3651 78.593Z" fill="white"/>
<path opacity="0.2" d="M139.39 160.387C139.39 160.387 137.584 182.238 140.196 187.538C142.808 192.838 144.117 229.054 142.945 233.608C142.945 233.608 151.355 235.729 154.682 232.716C158.01 229.703 163.127 232.604 171.557 229.672C179.987 226.741 173.906 161.67 173.906 161.67L174.164 137.998L160.262 125.612L139.39 160.387Z" fill="black" fill-opacity="0.7"/>
<path d="M150.599 170.896C150.546 171.052 150.462 171.196 150.35 171.317C148.555 173.016 140.891 174.903 134.307 176.263C128.855 177.394 124.163 178.16 124.163 178.16C124.163 178.16 120.551 148.148 120.551 144.993C120.551 141.838 114.729 90.7612 114.729 90.7612L128.687 90.1576L147.206 89.3562C147.206 89.3562 147.317 90.7206 147.505 93.1046C148.727 108.291 152.927 164.906 150.599 170.896Z" fill="#E39292"/>
<mask id="mask0_47_24289" style="mask-type:luminance" maskUnits="userSpaceOnUse" x="114" y="89" width="38" height="90">
<path d="M150.599 170.896C150.546 171.052 150.462 171.196 150.35 171.317C148.555 173.016 140.891 174.903 134.307 176.263C128.855 177.394 124.163 178.16 124.163 178.16C124.163 178.16 120.551 148.148 120.551 144.993C120.551 141.838 114.729 90.7612 114.729 90.7612L128.687 90.1576L147.206 89.3562C147.206 89.3562 147.317 90.7206 147.505 93.1046C148.727 108.291 152.927 164.906 150.599 170.896Z" fill="white"/>
</mask>
<g mask="url(#mask0_47_24289)">
<path opacity="0.2" d="M150.599 170.896L134.307 174.229L128.155 175.492C126.486 173.853 125.213 173.823 125.213 173.823L124.706 169.233L123.909 161.721L116.9 95.6307C118.421 94.5807 119.172 92.283 119.172 92.283L128.555 91.9432L144.812 91.3498L147.495 93.0844C148.727 108.291 152.927 164.906 150.599 170.896Z" fill="black" fill-opacity="0.7"/>
<path d="M150.599 170.896L134.307 174.229L128.155 175.492C126.486 173.853 125.213 173.823 125.213 173.823L124.706 169.233L123.909 161.721L116.9 95.6307C118.421 94.5807 119.172 92.283 119.172 92.283L128.555 91.9432L144.812 91.3498L147.495 93.0844C148.727 108.291 152.927 164.906 150.599 170.896Z" stroke="#263238" stroke-width="0.507216" stroke-linecap="round" stroke-linejoin="round"/>
<path d="M126.075 151.44L131.513 151.429L131.518 153.129L130.006 153.666L126.522 154.047L126.075 151.44Z" fill="#E39292" stroke="#263238" stroke-width="0.507216" stroke-linecap="round" stroke-linejoin="round"/>
<path d="M126.41 154.939L130.407 154.802L131.431 155.289L131.381 157.546L126.714 157.597L126.41 154.939Z" fill="#E39292" stroke="#263238" stroke-width="0.507216" stroke-linecap="round" stroke-linejoin="round"/>
<path d="M127.049 158.546L131.614 158.216L131.563 159.925L129.357 160.706L127.024 160.575L127.049 158.546Z" fill="#E39292" stroke="#263238" stroke-width="0.507216" stroke-linecap="round" stroke-linejoin="round"/>
<path d="M127.323 161.427L131.01 161.614L131.345 162.558L130.807 163.598L127.51 163.811L126.942 162.203L127.323 161.427Z" fill="#E39292" stroke="#263238" stroke-width="0.507216" stroke-linecap="round" stroke-linejoin="round"/>
<path d="M131.573 164.729L132.081 166.205C132.161 166.362 132.204 166.535 132.204 166.712C132.204 166.888 132.161 167.062 132.081 167.219C131.986 167.327 131.866 167.409 131.731 167.457C131.596 167.505 131.451 167.517 131.31 167.493C131.026 167.468 130.747 167.371 130.462 167.356C129.605 167.321 128.819 168.026 127.977 167.863C127.647 166.95 126.816 165.611 127.942 165.2C128.15 165.134 131.695 165.063 131.573 164.729Z" fill="#E39292" stroke="#263238" stroke-width="0.507216" stroke-linecap="round" stroke-linejoin="round"/>
<path d="M131.558 168.883C131.639 169.234 131.696 169.59 131.731 169.948C131.782 170.175 131.775 170.411 131.709 170.633C131.643 170.856 131.522 171.059 131.355 171.221C131.139 171.34 130.897 171.404 130.65 171.409L127.719 171.672C127.676 171.119 127.667 170.563 127.693 170.009C127.866 169.349 127.744 169.405 128.368 169.136C129.357 168.715 130.544 169.385 131.558 168.883Z" fill="#E39292" stroke="#263238" stroke-width="0.507216" stroke-linecap="round" stroke-linejoin="round"/>
<path d="M120.896 97.1321C120.896 97.1321 122.002 107.819 122.053 109.934" stroke="#263238" stroke-width="0.507216" stroke-linecap="round" stroke-linejoin="round"/>
<path d="M123.28 97.2487L123.798 103.137" stroke="#263238" stroke-width="0.507216" stroke-linecap="round" stroke-linejoin="round"/>
<path d="M131.543 95.022L132.212 101.925L133.151 102.017L132.847 95.0879L131.543 95.022Z" fill="#E39292" stroke="#263238" stroke-width="0.507216" stroke-linecap="round" stroke-linejoin="round"/>
<path opacity="0.2" d="M150.599 170.896C150.546 171.053 150.462 171.196 150.35 171.317C148.555 173.017 140.891 174.903 134.307 176.263V171.698L124.726 169.243L123.28 168.873L123.93 161.731L126.41 134.443L128.576 91.9635L128.667 90.1578L147.206 89.3564C147.206 89.3564 147.317 90.7208 147.505 93.1047C148.727 108.291 152.927 164.906 150.599 170.896Z" fill="black" fill-opacity="0.7"/>
</g>
<path d="M150.599 170.896C150.546 171.052 150.462 171.196 150.35 171.317C148.555 173.016 140.891 174.903 134.307 176.263C128.855 177.394 124.163 178.16 124.163 178.16C124.163 178.16 120.551 148.148 120.551 144.993C120.551 141.838 114.729 90.7612 114.729 90.7612L128.687 90.1576L147.206 89.3562C147.206 89.3562 147.317 90.7206 147.505 93.1046C148.727 108.291 152.927 164.906 150.599 170.896Z" stroke="#263238" stroke-width="0.507216" stroke-linecap="round" stroke-linejoin="round"/>
<path d="M160.424 239C160.54 237.93 158.856 222.576 158.826 220.908C158.745 216.343 157.451 210.353 157.451 210.353C155.646 205.737 154.241 195.101 149.422 188.279C144.604 181.457 144.609 173.432 143.807 166.62C143.006 159.809 143.204 160.397 143.407 154.351C143.553 149.809 143.351 145.263 142.803 140.752C142.402 136.735 141.601 129.67 142.803 126.378C144.005 123.086 147.15 122.32 150.594 125.617C154.038 128.914 155.443 142.431 155.443 144.1C155.443 145.769 155.443 150.983 156.65 152.992C156.65 152.992 163.472 149.502 163.472 148.538C163.472 147.575 163.269 139.058 164.273 138.602L160.261 125.617L167.87 122.914C169.302 124.198 170.539 125.685 171.542 127.326C172.401 128.686 173.119 130.129 173.687 131.633C176.898 140.149 182.056 146.088 183.122 148.538C184.187 150.988 183.122 170.445 183.122 174.061C183.122 177.678 180.788 194.35 180.849 197.155C180.895 199.184 182.264 206.731 183.629 212.518C184.136 214.75 187.215 230.92 187.686 232.203L160.424 239Z" fill="white"/>
<path opacity="0.4" d="M166.429 137.745C166.378 138.835 167.682 147.529 167.682 147.529C168.585 149.695 163.655 157.08 163.655 157.08C162.589 157.678 162.133 161.391 162.133 161.391C158.795 160.651 151.152 152.966 151.152 152.966C151.152 152.966 150.249 156.116 149.234 163.912C148.22 171.708 154.652 190.226 157.39 203.013C160.129 215.8 158.826 220.893 158.826 220.893C158.745 216.328 157.451 210.337 157.451 210.337C155.646 205.722 154.241 195.085 149.422 188.263C144.604 181.441 144.609 173.432 143.807 166.62C143.006 159.809 143.204 160.397 143.407 154.351C143.553 149.809 143.351 145.263 142.803 140.752C142.402 136.735 141.601 129.67 142.803 126.378C144.005 123.086 147.15 122.32 150.594 125.617C154.038 128.914 155.443 142.431 155.443 144.1C155.443 145.769 155.443 150.983 156.65 152.992C156.65 152.992 163.472 149.502 163.472 148.538C163.472 147.575 163.269 139.058 164.273 138.602L160.261 125.617L167.87 122.914C169.302 124.198 170.539 125.685 171.542 127.326C169.082 132.246 166.48 137.065 166.429 137.745Z" fill="#E39292"/>
<path opacity="0.4" d="M179.221 198.499C179.556 195.456 180.555 188.223 181.189 183.709C180.413 187.234 179.16 189.019 179.16 189.019C179.16 189.019 181.321 163.151 181.534 161.574C181.747 159.996 183.928 152.905 183.127 148.513C184.192 150.958 183.127 170.419 183.127 174.036C183.127 177.652 180.794 194.325 180.854 197.129C180.9 199.158 183.076 212.087 184.44 217.875C181.509 213.614 178.886 201.557 179.221 198.499Z" fill="#E39292"/>
<path d="M187.677 232.178C186.074 227.562 180.925 199.919 180.865 197.129C180.804 194.34 183.137 177.647 183.137 174.036C183.137 170.425 184.202 150.958 183.137 148.513C182.072 146.068 176.913 140.123 173.703 131.607C172.489 128.277 170.494 125.287 167.885 122.888L160.277 125.592L164.289 138.576C163.274 139.033 163.487 147.549 163.487 148.513C163.487 149.477 156.665 152.966 156.665 152.966C155.458 150.937 155.458 145.743 155.458 144.075C155.458 142.406 154.053 128.884 150.609 125.592C147.165 122.3 144.015 123.056 142.818 126.353C141.621 129.649 142.418 136.71 142.818 140.727C143.367 145.243 143.569 149.794 143.422 154.341C143.219 160.387 143.016 159.788 143.823 166.61C144.629 173.432 144.624 181.456 149.438 188.279C154.251 195.101 155.661 205.737 157.467 210.353C157.467 210.353 160.875 234.988 160.439 239" stroke="#263238" stroke-width="0.507216" stroke-linecap="round" stroke-linejoin="round"/>
<path d="M156.65 152.966C156.65 152.966 157.852 158.581 160.561 161.391" stroke="#263238" stroke-width="0.507216" stroke-linecap="round" stroke-linejoin="round"/>
<path d="M157.38 155.528C157.38 155.528 162.453 157.08 164.573 157.176" stroke="#263238" stroke-width="0.507216" stroke-linecap="round" stroke-linejoin="round"/>
<path d="M163.472 148.513C163.472 148.513 167.084 146.844 169.391 147.848" stroke="#263238" stroke-width="0.507216" stroke-linecap="round" stroke-linejoin="round"/>
<path d="M164.273 138.576C164.273 138.576 167.083 138.318 167.682 136.913" stroke="#263238" stroke-width="0.507216" stroke-linecap="round" stroke-linejoin="round"/>
<path d="M150.35 189.709C150.35 189.709 155.747 196.409 157.35 199.818" stroke="#263238" stroke-width="0.507216" stroke-linecap="round" stroke-linejoin="round"/>
<path d="M181.732 160.387C180.829 165.707 179.622 180.254 179.221 182.861" stroke="#263238" stroke-width="0.507216" stroke-linecap="round" stroke-linejoin="round"/>
<path d="M183.457 150.354C183.609 155.173 182.442 157.678 182.442 157.678" stroke="#263238" stroke-width="0.507216" stroke-linecap="round" stroke-linejoin="round"/>
<path d="M141.971 82.9298L179.16 92.7394C179.16 92.7394 166.089 132.409 163.437 137.329L159.004 171.911C159.004 171.911 135.246 170.866 124.32 167.564C124.32 167.564 131.228 131.552 131.599 126.748C131.969 121.945 141.971 82.9298 141.971 82.9298Z" fill="#E39292"/>
<mask id="mask1_47_24289" style="mask-type:luminance" maskUnits="userSpaceOnUse" x="124" y="82" width="56" height="90">
<path d="M141.971 82.9298L179.16 92.7394C179.16 92.7394 166.089 132.409 163.437 137.329L159.004 171.911C159.004 171.911 135.246 170.866 124.32 167.564C124.32 167.564 131.228 131.552 131.599 126.748C131.969 121.945 141.971 82.9298 141.971 82.9298Z" fill="white"/>
</mask>
<g mask="url(#mask1_47_24289)">
<path opacity="0.2" d="M133.972 124.618L142.169 89.5745C142.169 89.5745 145.694 87.8246 147.059 86.2268L173.703 93.8046C173.703 93.8046 173.784 96.4168 175.311 98.0906L161.864 136.837L158.603 165.398C158.603 165.398 154.266 165.743 153.85 168.949C153.85 168.949 139.79 169.709 130.361 167.224C130.361 167.224 129.25 163.76 127.551 161.569L133.972 124.618Z" fill="black" fill-opacity="0.7"/>
<path d="M133.972 124.618L142.169 89.5745C142.169 89.5745 145.694 87.8246 147.059 86.2268L173.703 93.8046C173.703 93.8046 173.784 96.4168 175.311 98.0906L161.864 136.837L158.603 165.398C158.603 165.398 154.266 165.743 153.85 168.949C153.85 168.949 139.79 169.709 130.361 167.224C130.361 167.224 129.25 163.76 127.551 161.569L133.972 124.618Z" stroke="#263238" stroke-width="0.507216" stroke-linecap="round" stroke-linejoin="round"/>
<path d="M140.794 126.439C140.794 126.439 143.214 117.309 151.735 118.947C160.256 120.586 155.443 131.836 155.443 131.836C155.443 131.836 155.494 140.915 148.58 139.662C142.585 138.577 139.389 135.285 140.794 126.439Z" fill="#E39292" stroke="#263238" stroke-width="0.507216" stroke-linecap="round" stroke-linejoin="round"/>
<path d="M145.41 92.9068C145.41 92.9068 142.834 103.34 142.169 105.349" stroke="#263238" stroke-width="0.507216" stroke-linecap="round" stroke-linejoin="round"/>
<path d="M147.617 93.8097L146.115 99.5311" stroke="#263238" stroke-width="0.507216" stroke-linecap="round" stroke-linejoin="round"/>
<path d="M166.429 97.8218L171.557 99.6275L170.994 101.235H169.391L165.978 100.434L166.429 97.8218Z" fill="#E39292" stroke="#263238" stroke-width="0.507216" stroke-linecap="round" stroke-linejoin="round"/>
<path d="M165.577 101.235L169.391 102.437L170.193 103.239L169.391 105.349L164.974 103.842L165.577 101.235Z" fill="#E39292" stroke="#263238" stroke-width="0.507216" stroke-linecap="round" stroke-linejoin="round"/>
<path d="M164.973 104.847L169.391 106.064L168.767 107.657H166.429L164.273 106.754L164.973 104.847Z" fill="#E39292" stroke="#263238" stroke-width="0.507216" stroke-linecap="round" stroke-linejoin="round"/>
<path d="M164.273 107.657L167.682 109.062V110.061L166.83 110.867L163.655 109.965V108.255L164.273 107.657Z" fill="#E39292" stroke="#263238" stroke-width="0.507216" stroke-linecap="round" stroke-linejoin="round"/>
<path d="M167.18 112.186V113.748C167.206 113.92 167.192 114.096 167.138 114.262C167.085 114.427 166.993 114.578 166.87 114.702C166.744 114.771 166.603 114.807 166.46 114.807C166.316 114.807 166.175 114.771 166.049 114.702C165.79 114.58 165.542 114.397 165.298 114.291C164.502 113.971 163.523 114.372 162.762 113.946C162.762 112.977 162.422 111.44 163.619 111.41C163.817 111.425 167.18 112.541 167.18 112.186Z" fill="#E39292" stroke="#263238" stroke-width="0.507216" stroke-linecap="round" stroke-linejoin="round"/>
<path d="M165.775 116.097C165.737 116.454 165.672 116.809 165.582 117.157C165.471 117.608 165.253 118.11 164.801 118.232C164.558 118.272 164.309 118.252 164.076 118.171L161.225 117.421C161.363 116.887 161.533 116.362 161.733 115.848C162.118 115.285 161.986 115.295 162.661 115.25C163.756 115.204 164.649 116.234 165.775 116.097Z" fill="#E39292" stroke="#263238" stroke-width="0.507216" stroke-linecap="round" stroke-linejoin="round"/>
<path d="M156.148 94.5147L154.439 101.235L155.291 101.636L157.35 95.0118L156.148 94.5147Z" fill="#E39292" stroke="#263238" stroke-width="0.507216" stroke-linecap="round" stroke-linejoin="round"/>
<path d="M134.728 139.647L139.993 141.011L139.567 142.655L137.969 142.797L134.5 142.284L134.728 139.647Z" fill="#E39292" stroke="#263238" stroke-width="0.507216" stroke-linecap="round" stroke-linejoin="round"/>
<path d="M134.17 143.121L138.071 143.994L138.943 144.724L138.324 146.895L133.795 145.769L134.17 143.121Z" fill="#E39292" stroke="#263238" stroke-width="0.507216" stroke-linecap="round" stroke-linejoin="round"/>
<path d="M133.881 146.773L138.385 147.605L137.898 149.243L135.57 149.446L133.344 148.731L133.881 146.773Z" fill="#E39292" stroke="#263238" stroke-width="0.507216" stroke-linecap="round" stroke-linejoin="round"/>
<path d="M133.42 149.629L136.94 150.74L137.026 151.739L136.245 152.611L133.004 151.982L132.857 150.283L133.42 149.629Z" fill="#E39292" stroke="#263238" stroke-width="0.507216" stroke-linecap="round" stroke-linejoin="round"/>
<path d="M136.701 153.894L136.838 155.452C136.88 155.621 136.881 155.798 136.841 155.968C136.801 156.138 136.722 156.297 136.61 156.431C136.491 156.51 136.353 156.557 136.21 156.569C136.067 156.58 135.924 156.555 135.793 156.496C135.525 156.4 135.286 156.238 135.007 156.157C134.191 155.903 133.247 156.385 132.471 156.025C132.38 155.061 131.918 153.56 133.105 153.443C133.288 153.433 136.732 154.25 136.701 153.894Z" fill="#E39292" stroke="#263238" stroke-width="0.507216" stroke-linecap="round" stroke-linejoin="round"/>
<path d="M135.641 157.912C135.634 158.28 135.6 158.648 135.54 159.012C135.464 159.469 135.291 159.991 134.855 160.148C134.615 160.209 134.364 160.209 134.125 160.148L131.223 159.641C131.321 159.096 131.451 158.558 131.614 158.028C131.949 157.435 131.817 157.455 132.486 157.354C133.551 157.196 134.525 158.145 135.641 157.912Z" fill="#E39292" stroke="#263238" stroke-width="0.507216" stroke-linecap="round" stroke-linejoin="round"/>
<path d="M156.65 162.837C156.65 162.837 157.857 149.375 157.857 148.021" stroke="#263238" stroke-width="0.507216" stroke-linecap="round" stroke-linejoin="round"/>
<path d="M154.241 162.233C154.241 162.233 154.748 155.233 154.839 154.016" stroke="#263238" stroke-width="0.507216" stroke-linecap="round" stroke-linejoin="round"/>
<path d="M144.832 157.176L143.204 165.144H144.832L146.014 157.176H144.832Z" fill="#E39292" stroke="#263238" stroke-width="0.507216" stroke-linecap="round" stroke-linejoin="round"/>
<path opacity="0.2" d="M163.523 137.131C160.003 136.396 156.863 135.315 154.54 133.758C154.54 133.758 156.224 138.597 162.194 146.844L158.983 171.911C158.983 171.911 143.478 171.231 131.761 169.228C135.362 159.083 141.905 139.86 141.129 136.051C140.079 130.821 143.787 124.648 143.787 124.648C155.509 122.538 166.876 113.677 174.677 106.186C170.705 117.928 165.283 133.652 163.523 137.131Z" fill="black" fill-opacity="0.7"/>
</g>
<path d="M141.971 82.9298L179.16 92.7394C179.16 92.7394 166.089 132.409 163.437 137.329L159.004 171.911C159.004 171.911 135.246 170.866 124.32 167.564C124.32 167.564 131.228 131.552 131.599 126.748C131.969 121.945 141.971 82.9298 141.971 82.9298Z" stroke="#263238" stroke-width="0.507216" stroke-linecap="round" stroke-linejoin="round"/>
<path d="M162.589 161.898L157.35 199.818C156.183 197.337 153.003 193.107 151.36 190.992C150.751 190.201 150.345 189.709 150.345 189.709L149.417 188.278C144.604 181.456 144.604 173.432 143.802 166.61C143.001 159.788 143.199 160.387 143.401 154.341C143.549 149.803 143.349 145.26 142.803 140.752C142.402 136.735 141.601 129.67 142.803 126.378C143.391 124.765 144.451 123.761 145.78 123.548C147.109 123.335 148.824 123.943 150.594 125.617C154.038 128.909 155.443 142.431 155.443 144.1C155.443 145.769 155.443 150.983 156.65 152.991C156.65 152.966 159.886 159.088 162.589 161.898Z" fill="white"/>
<path opacity="0.4" d="M149.021 185.575C150.117 186.975 150.863 188.994 151.36 190.992C150.751 190.201 150.345 189.709 150.345 189.709L149.417 188.279C144.604 181.457 144.604 173.432 143.802 166.61C143.001 159.788 143.199 160.387 143.401 154.341C143.549 149.803 143.349 145.26 142.803 140.752C142.402 136.735 141.601 129.67 142.803 126.378C143.391 124.765 144.451 123.761 145.78 123.548C148.316 124.268 150.852 126.85 151.735 131.268C153.257 138.683 146.394 132.693 144.806 138.977C143.219 145.262 145.527 146.956 146.475 148.538C147.424 150.121 146.211 153.61 144.806 158.297C143.401 162.984 146.014 181.725 149.021 185.575Z" fill="#E39292"/>
<path d="M162.59 161.898C159.881 159.088 156.65 152.966 156.65 152.966C155.443 150.937 155.443 145.743 155.443 144.075C155.443 142.406 154.038 128.884 150.594 125.592C147.15 122.3 144 123.056 142.803 126.353C141.606 129.649 142.402 136.71 142.803 140.727C143.352 145.243 143.554 149.794 143.407 154.341C143.204 160.387 143.001 159.788 143.807 166.61C144.614 173.432 144.609 181.457 149.422 188.279L150.35 189.709C150.35 189.709 155.747 196.409 157.35 199.818" stroke="#263238" stroke-width="0.507216" stroke-linecap="round" stroke-linejoin="round"/>
<path d="M144.832 145.85C144.832 145.85 149.432 143.471 151.735 143.674" stroke="#263238" stroke-width="0.507216" stroke-linecap="round" stroke-linejoin="round"/>
<path opacity="0.2" d="M74.5775 80.8045C74.5775 80.8045 62.942 67.9922 62.1406 67.206C61.3392 66.4199 60.7356 52.7555 58.5242 46.7399C56.3127 40.7243 55.2425 5.40183 55.2425 5.40183C55.2425 5.40183 53.1375 2.79474 47.2031 4.19973C41.2687 5.60471 35.4509 2.99255 28.8318 6.80681C22.2126 10.6211 35.0502 65.1772 35.0502 65.1772L48.0806 106.703L74.5775 80.8045Z" fill="black" fill-opacity="0.7"/>
<path d="M82.5713 80.9009C82.5713 80.9009 77.3571 114.21 71.9198 118.623C68.7801 121.159 63.8855 122.325 59.5437 122.173C56.399 122.061 53.5383 121.27 51.8543 119.835C47.8422 116.421 42.2172 114.616 39.4174 112.409C36.6176 110.203 36.6074 102.376 34.8017 95.7522C32.996 89.1279 30.3839 88.9301 29.7854 82.311C29.1869 75.6918 26.7725 55.4285 22.4105 49.8035C18.0484 44.1785 17.947 39.7708 16.1413 34.0494C14.3356 28.328 1.12769 7.62853 1.12769 7.62853L33.3257 1.03473C33.3257 1.03473 36.4908 14.1361 39.879 24.8231C41.4868 29.8953 43.1454 34.4298 44.5352 36.7529C47.2038 41.2462 49.5154 45.9423 51.4486 50.7977C55.0904 54.6119 57.0837 63.0621 57.6873 70.4624L66.31 75.2708C72.9393 77.0816 82.5713 80.9009 82.5713 80.9009Z" fill="white"/>
<path opacity="0.4" d="M82.5713 80.9009C82.5713 80.9009 77.3571 114.21 71.9198 118.622C68.7801 121.159 63.8855 122.325 59.5437 122.173C49.2472 119.637 46.4778 113.895 45.083 112.505C43.2266 110.654 40.7869 99.3736 42.1259 92.8103C43.465 86.2469 42.5013 83.8173 41.3955 80.6117C38.9457 73.5107 46.417 69.6863 47.1879 66.9981C47.9589 64.3098 47.6952 49.276 44.3323 44.3864C42.5469 41.7844 37.9465 28.3736 39.884 24.8332C41.4919 29.9054 43.1505 34.4399 44.5403 36.7629C47.2089 41.2563 49.5204 45.9524 51.4536 50.8077C55.0954 54.622 57.0888 63.0722 57.6924 70.4725L66.3151 75.2809C72.9393 77.0815 82.5713 80.9009 82.5713 80.9009Z" fill="#E39292"/>
<path d="M43.252 78.5576C43.252 78.5576 41.4362 80.693 39.8334 80.693" stroke="#263238" stroke-width="0.507216" stroke-linecap="round" stroke-linejoin="round"/>
<path d="M47.2033 85.7753C47.2033 85.7753 45.2505 89.9243 42.1311 90.8474" stroke="#263238" stroke-width="0.507216" stroke-linecap="round" stroke-linejoin="round"/>
<path d="M43.7336 110.091C43.7336 110.091 48.1515 108.184 48.8514 104.973" stroke="#263238" stroke-width="0.507216" stroke-linecap="round" stroke-linejoin="round"/>
<path d="M66.3198 75.2759C66.3198 75.2759 65.2141 76.6809 65.2141 77.812" stroke="#263238" stroke-width="0.507216" stroke-linecap="round" stroke-linejoin="round"/>
<path d="M33.346 1.03473C33.346 1.03473 40.234 29.525 44.5555 36.7731C47.2241 41.2665 49.5356 45.9626 51.4688 50.8179C55.1106 54.6322 57.104 63.0875 57.7076 70.4878L66.3302 75.2962C72.9494 77.1019 82.5611 80.9161 82.5611 80.9161C82.5611 80.9161 77.347 114.225 71.9096 118.638C66.4723 123.051 55.907 123.233 51.8492 119.825C47.7915 116.416 42.2121 114.605 39.4123 112.399C36.6125 110.193 36.6023 102.366 34.7967 95.742C32.991 89.1178 30.3788 88.92 29.7803 82.3008C29.1818 75.6817 26.7674 55.4184 22.4054 49.7934C18.0433 44.1683 17.9419 39.7606 16.1362 34.0392C14.3305 28.3179 1.12769 7.62853 1.12769 7.62853" stroke="#263238" stroke-width="0.507216" stroke-linecap="round" stroke-linejoin="round"/>
<path d="M94.7698 78.7401L41.5172 160.711L54.086 162.111L92.2743 163.699L96.1849 90.7865L94.7698 78.7401Z" fill="#263238" stroke="#263238" stroke-width="0.507216" stroke-linecap="round" stroke-linejoin="round"/>
<path d="M94.7698 78.7351L89.8498 162.299L41.5172 160.711L45.3315 96.6804L46.5184 76.7976L67.5779 77.6446L94.7698 78.7351Z" fill="#757575"/>
<mask id="mask2_47_24289" style="mask-type:luminance" maskUnits="userSpaceOnUse" x="41" y="76" width="54" height="87">
<path d="M94.7698 78.7351L89.8498 162.299L41.5172 160.711L45.3315 96.6804L46.5184 76.7976L67.5779 77.6446L94.7698 78.7351Z" fill="white"/>
</mask>
<g mask="url(#mask2_47_24289)">
<path d="M82.6167 152.677C85.8662 152.677 88.5004 150.043 88.5004 146.793C88.5004 143.544 85.8662 140.909 82.6167 140.909C79.3673 140.909 76.733 143.544 76.733 146.793C76.733 150.043 79.3673 152.677 82.6167 152.677Z" fill="#BFBFBF" stroke="#263238" stroke-width="0.507216" stroke-miterlimit="10"/>
<path d="M80.9583 142.888L84.945 143.41" stroke="#263238" stroke-width="0.507216" stroke-linecap="round" stroke-linejoin="round"/>
<path d="M79.8881 143.856L85.8783 144.44" stroke="#263238" stroke-width="0.507216" stroke-linecap="round" stroke-linejoin="round"/>
<path d="M79.2235 149.76L85.2188 150.344" stroke="#263238" stroke-width="0.507216" stroke-linecap="round" stroke-linejoin="round"/>
<path d="M81.8458 145.19C82.0104 145.231 82.1845 145.207 82.3319 145.123C82.4792 145.039 82.5885 144.901 82.637 144.739L83.0834 144.785L82.6319 149.02L81.9675 148.949L82.3124 145.718L81.8052 145.662L81.8458 145.19Z" fill="#263238"/>
<path d="M84.0625 145.368C84.3262 145.368 84.448 145.566 84.4175 145.845V145.895L84.1589 145.87V145.824C84.1589 145.703 84.1284 145.647 84.0422 145.637C83.956 145.627 83.9002 145.672 83.89 145.794C83.8799 145.916 83.9205 146.022 84.0828 146.195C84.1652 146.264 84.2298 146.353 84.2712 146.452C84.3127 146.552 84.3298 146.66 84.3212 146.768C84.2907 147.047 84.1386 147.189 83.8697 147.158C83.6009 147.128 83.4843 146.955 83.5096 146.682V146.575L83.7632 146.6V146.727C83.7632 146.849 83.7987 146.9 83.885 146.91C83.9712 146.92 84.032 146.879 84.0422 146.758C84.0523 146.636 84.0118 146.529 83.8494 146.357C83.7671 146.287 83.7025 146.199 83.661 146.099C83.6195 145.999 83.6024 145.891 83.6111 145.784C83.6466 145.479 83.8038 145.317 84.0625 145.368Z" fill="#263238"/>
<path d="M84.5394 145.439L85.3814 145.525L85.3509 145.774L85.0669 145.743L84.9097 147.224L84.6408 147.199L84.7981 145.713L84.514 145.682L84.5394 145.439Z" fill="#263238"/>
<path d="M70.2806 82.4444L60.8452 80.3855C60.6016 80.3323 60.3611 80.4867 60.3079 80.7303L59.0243 86.6125C58.9712 86.8561 59.1255 87.0966 59.3691 87.1498L68.8045 89.2087C69.048 89.2619 69.2886 89.1075 69.3418 88.8639L70.6254 82.9817C70.6785 82.7381 70.5241 82.4976 70.2806 82.4444Z" fill="white" stroke="#263238" stroke-width="0.507216" stroke-linecap="round" stroke-linejoin="round"/>
<path d="M62.5007 86.1859L62.4652 86.1504C62.4652 86.1504 62.4652 86.0896 62.4399 86.0642C62.4157 86.0414 62.3967 86.0138 62.3841 85.983C62.3819 85.973 62.3819 85.9626 62.3841 85.9526C62.3841 85.9526 62.4094 85.9526 62.4247 85.9171C62.4372 85.9095 62.4478 85.8992 62.4557 85.8869C62.4636 85.8746 62.4686 85.8606 62.4703 85.8461C62.4684 85.8378 62.4684 85.8291 62.4703 85.8207H62.5007C62.5007 85.7244 62.4399 85.6534 62.379 85.5773C62.2319 85.3947 62.2015 85.3034 62.2319 85.1816C62.2623 85.0599 62.3131 85.0244 62.3993 85.0396C62.4855 85.0548 62.521 85.1157 62.4957 85.2374V85.3084L62.7493 85.3642V85.3084C62.7835 85.2188 62.7821 85.1193 62.7453 85.0307C62.7085 84.942 62.6392 84.8708 62.5515 84.8317L62.5819 84.7099L62.3638 84.6592L62.3384 84.786C62.1406 84.786 62.0138 84.9128 61.9631 85.1411C61.9437 85.2431 61.9508 85.3484 61.9837 85.447C62.0165 85.5455 62.074 85.634 62.1508 85.7041C62.2978 85.8816 62.3283 85.983 62.2979 86.0997C62.2674 86.2164 62.2116 86.2569 62.1254 86.2367C62.0392 86.2164 61.9986 86.1606 62.0239 86.0439L62.0544 85.907L61.8008 85.8512V85.9678C61.7798 86.014 61.7683 86.064 61.767 86.1147C61.7656 86.1654 61.7744 86.2158 61.7928 86.2631C61.8113 86.3104 61.839 86.3535 61.8743 86.3899C61.9096 86.4263 61.9519 86.4552 61.9986 86.475V86.5968L62.2167 86.6475L62.2421 86.5207H62.3739C62.4138 86.5068 62.4502 86.4842 62.4804 86.4547C62.5114 86.4236 62.5371 86.3876 62.5565 86.3482C62.5007 86.2164 62.5007 86.2011 62.5007 86.1859Z" fill="#263238"/>
<path d="M63.8955 86.1048C63.8932 86.0643 63.8829 86.0246 63.865 85.9881C63.8601 85.9682 63.8601 85.9473 63.865 85.9273C63.8728 85.912 63.8852 85.8996 63.9005 85.8918C64.0375 85.77 63.8701 85.6077 63.7382 85.5773C63.6926 85.566 63.6449 85.5665 63.5996 85.579C63.5543 85.5914 63.513 85.6153 63.4795 85.6483L63.5861 85.2527L64.0527 85.3541L64.1034 85.1107L63.4035 84.9585C63.3887 84.9925 63.3784 85.0283 63.373 85.065C63.373 85.1005 63.4187 85.1107 63.4187 85.1512C63.4187 85.1918 63.4187 85.1867 63.4187 85.207C63.4279 85.2367 63.4478 85.262 63.4745 85.278C63.4998 85.278 63.5252 85.3237 63.5201 85.3541C63.5236 85.364 63.5236 85.3747 63.5201 85.3846C63.5009 85.4312 63.4671 85.4703 63.4238 85.4961C63.4038 85.5 63.3858 85.5108 63.373 85.5266V85.557C63.373 85.5925 63.3325 85.6128 63.302 85.6331C63.2716 85.6534 63.1955 85.8157 63.1651 85.9273L63.4187 85.9831V85.9323C63.444 85.8106 63.51 85.7802 63.5911 85.7954C63.6723 85.8106 63.723 85.8715 63.6926 85.9932L63.6114 86.3686C63.6114 86.4852 63.5252 86.5207 63.439 86.5004C63.3527 86.4801 63.3122 86.4294 63.3375 86.3077L63.373 86.1505L63.1194 86.0947L63.089 86.2367C63.0693 86.2917 63.0617 86.3503 63.0664 86.4086C63.0712 86.4668 63.0884 86.5233 63.1168 86.5744C63.1452 86.6255 63.1842 86.6699 63.2311 86.7048C63.278 86.7396 63.3318 86.764 63.389 86.7764C63.4461 86.7887 63.5052 86.7888 63.5623 86.7765C63.6194 86.7642 63.6733 86.7399 63.7203 86.7051C63.7672 86.6704 63.8063 86.626 63.8347 86.5749C63.8632 86.5239 63.8804 86.4674 63.8853 86.4091C63.9033 86.3087 63.9067 86.2062 63.8955 86.1048Z" fill="#263238"/>
<path d="M67.2077 86.8149C67.203 86.7748 67.1927 86.7355 67.1772 86.6982C67.1723 86.6782 67.1723 86.6574 67.1772 86.6374C67.185 86.6221 67.1974 86.6096 67.2127 86.6019C67.3446 86.4801 67.1772 86.3178 67.0504 86.2874C67.0048 86.276 66.9571 86.2766 66.9118 86.2891C66.8665 86.3015 66.8252 86.3254 66.7917 86.3584L66.8983 85.9628L67.3649 86.0642L67.4156 85.8207L66.7157 85.6686C66.6986 85.7017 66.6883 85.7379 66.6852 85.7751C66.6852 85.8106 66.7258 85.8207 66.7309 85.8613C66.736 85.9019 66.7309 85.8968 66.7309 85.9171C66.7401 85.9468 66.76 85.9721 66.7867 85.9881C66.812 85.9881 66.8374 86.0338 66.8323 86.0642C66.8272 86.0946 66.8323 86.0642 66.8323 86.0946C66.8128 86.1427 66.7769 86.1823 66.7309 86.2062C66.7129 86.2115 66.697 86.2221 66.6852 86.2367C66.6852 86.2367 66.6852 86.2367 66.6852 86.2671C66.6852 86.2975 66.6497 86.3229 66.6193 86.3432C66.5889 86.3635 66.5128 86.5258 66.4823 86.6374L66.736 86.6932V86.6424C66.7613 86.5207 66.8273 86.4903 66.9084 86.5055C66.9896 86.5207 67.0352 86.5816 67.0098 86.7033L66.9287 87.0786C66.9287 87.1953 66.8425 87.2308 66.7562 87.2105C66.67 87.1902 66.6294 87.1395 66.6548 87.0178L66.6903 86.8605L66.4367 86.8047L66.4063 86.9468C66.3909 87.0001 66.3867 87.056 66.3939 87.1111C66.4011 87.1661 66.4194 87.2191 66.4479 87.2668C66.4763 87.3144 66.5143 87.3557 66.5593 87.3882C66.6044 87.4206 66.6556 87.4434 66.7099 87.4552C66.7641 87.467 66.8202 87.4676 66.8746 87.4569C66.9291 87.4462 66.9808 87.4244 67.0265 87.3929C67.0722 87.3614 67.111 87.3209 67.1404 87.2738C67.1698 87.2267 67.1892 87.1741 67.1975 87.1192C67.2178 87.019 67.2212 86.9162 67.2077 86.8149Z" fill="#263238"/>
<path d="M64.4739 85.6026C64.4993 85.4809 64.5652 85.4454 64.6464 85.4657C64.6724 85.4692 64.6963 85.4819 64.714 85.5014C64.7316 85.5208 64.7418 85.5459 64.7427 85.5722H64.829C64.8319 85.5869 64.838 85.6009 64.8467 85.6131C64.8555 85.6254 64.8667 85.6356 64.8797 85.6432C64.9101 85.6686 64.9507 85.6838 64.9862 85.7091C65.0029 85.6558 65.0082 85.5996 65.0016 85.5441C64.995 85.4886 64.9767 85.4351 64.948 85.3872C64.9192 85.3393 64.8806 85.298 64.8348 85.266C64.7889 85.2341 64.7368 85.2123 64.6819 85.2019C64.626 85.1832 64.5665 85.1775 64.508 85.1853C64.4496 85.1932 64.3937 85.2143 64.3447 85.2472C64.2957 85.28 64.2549 85.3236 64.2254 85.3747C64.196 85.4258 64.1786 85.4829 64.1747 85.5418C64.1723 85.5738 64.1723 85.606 64.1747 85.6381C64.1747 85.7193 64.1747 85.6939 64.2558 85.7244C64.337 85.7548 64.3623 85.7954 64.2913 85.8207H64.337C64.337 85.8207 64.337 85.8562 64.337 85.8715C64.337 85.8867 64.337 85.8968 64.3116 85.9171C64.3163 85.9302 64.3163 85.9446 64.3116 85.9577C64.3116 85.9577 64.271 86.0236 64.2609 86.0338C64.2461 86.0589 64.2251 86.0798 64.2 86.0946C64.1341 86.1352 64.1036 86.0946 64.0834 86.1961C64.0631 86.2975 64.058 86.3077 64.0479 86.3584C64.0284 86.4139 64.0209 86.4729 64.0259 86.5316C64.031 86.5902 64.0484 86.6471 64.077 86.6985C64.1057 86.7499 64.1449 86.7947 64.1921 86.8298C64.2393 86.8649 64.2934 86.8896 64.3509 86.9022C64.4084 86.9149 64.4679 86.9152 64.5255 86.9032C64.5831 86.8911 64.6375 86.867 64.6851 86.8323C64.7326 86.7977 64.7723 86.7534 64.8015 86.7023C64.8307 86.6512 64.8487 86.5945 64.8543 86.5359L64.9355 86.1809H64.9051C64.8449 86.1537 64.7872 86.1215 64.7326 86.0845L64.6869 86.0439L64.5855 86.5004C64.5855 86.6221 64.4942 86.6576 64.4131 86.6373C64.3319 86.6171 64.2863 86.5613 64.3116 86.4395L64.4587 85.7497C64.4554 85.7069 64.466 85.6642 64.4891 85.628L64.4739 85.6026Z" fill="#263238"/>
<path d="M65.7216 86.4395H65.747C65.747 86.4141 65.747 86.3888 65.747 86.3533H65.8586L65.9448 85.9627C65.9643 85.9072 65.9717 85.8482 65.9667 85.7895C65.9617 85.7309 65.9443 85.674 65.9156 85.6226C65.887 85.5712 65.8478 85.5264 65.8006 85.4913C65.7533 85.4562 65.6992 85.4315 65.6417 85.4188C65.5843 85.4062 65.5248 85.4059 65.4672 85.4179C65.4096 85.43 65.3552 85.4541 65.3076 85.4887C65.26 85.5234 65.2203 85.5677 65.1911 85.6188C65.162 85.6699 65.144 85.7266 65.1383 85.7852V85.8562C65.1738 85.8866 65.1941 85.9373 65.2296 85.9627C65.2651 85.9881 65.3209 85.9627 65.3057 86.0489C65.2905 86.1352 65.2753 86.1199 65.3057 86.1453C65.3361 86.1707 65.3412 86.1453 65.3463 86.1808C65.3524 86.1888 65.3558 86.1986 65.3558 86.2087C65.3558 86.2188 65.3524 86.2286 65.3463 86.2366C65.3463 86.2366 65.3108 86.2366 65.3057 86.2823C65.3006 86.3279 65.3057 86.3583 65.2753 86.3685C65.2448 86.3786 65.1789 86.3076 65.1231 86.3127C65.1031 86.3185 65.085 86.3296 65.0708 86.3447C65.0565 86.3599 65.0465 86.3786 65.0419 86.3989C65.0161 86.4851 64.9974 86.5734 64.9861 86.6627C64.9676 86.7163 64.9612 86.7734 64.9673 86.8298C64.9734 86.8862 64.9919 86.9406 65.0215 86.9891C65.051 87.0375 65.0909 87.0789 65.1383 87.1101C65.1857 87.1414 65.2394 87.1618 65.2956 87.1699C65.3532 87.1853 65.4135 87.1879 65.4723 87.1774C65.531 87.1669 65.5867 87.1435 65.6354 87.109C65.6803 87.0702 65.7181 87.0239 65.747 86.9721C65.7698 86.9461 65.7824 86.9128 65.7824 86.8782C65.7824 86.8437 65.7698 86.8103 65.747 86.7844H65.7216L65.6861 86.6627C65.6861 86.6627 65.6861 86.6627 65.7216 86.6322C65.7571 86.6018 65.7216 86.5359 65.7723 86.5004C65.8231 86.4648 65.7115 86.4496 65.7216 86.4395ZM65.5086 86.7844C65.4832 86.9061 65.4173 86.9416 65.3311 86.9213C65.2448 86.9011 65.2043 86.8453 65.2296 86.7235L65.4325 85.8105C65.4579 85.6888 65.5187 85.6533 65.605 85.6736C65.6912 85.6939 65.7318 85.7497 65.7064 85.8714L65.5086 86.7844Z" fill="#263238"/>
<path d="M66.173 87.0685L66.1172 87.3271L65.8585 87.2713L65.9143 87.0127L66.173 87.0685Z" fill="#263238"/>
<path d="M68.293 86.617C68.3235 86.617 68.3235 86.5004 68.3336 86.4598C68.3531 86.4043 68.3606 86.3453 68.3555 86.2866C68.3505 86.228 68.3331 86.1711 68.3045 86.1197C68.2758 86.0683 68.2366 86.0235 68.1894 85.9884C68.1422 85.9533 68.088 85.9286 68.0305 85.9159C67.9731 85.9033 67.9136 85.903 67.856 85.915C67.7984 85.9271 67.744 85.9512 67.6964 85.9858C67.6488 86.0205 67.6091 86.0648 67.58 86.1159C67.5508 86.167 67.5328 86.2237 67.5271 86.2823L67.451 86.6221C67.517 86.683 67.4511 86.7794 67.4815 86.8504C67.5119 86.9214 67.4815 86.8504 67.4815 86.8808C67.4815 86.9112 67.4054 86.9265 67.4054 86.967C67.4054 86.967 67.3648 87.0279 67.3395 87.0583C67.3235 87.0824 67.3147 87.1106 67.3141 87.1395C67.2946 87.195 67.2871 87.254 67.2922 87.3127C67.2972 87.3713 67.3146 87.4282 67.3432 87.4796C67.3719 87.531 67.4111 87.5757 67.4583 87.6109C67.5056 87.646 67.5597 87.6707 67.6172 87.6833C67.6746 87.696 67.7341 87.6963 67.7917 87.6843C67.8493 87.6722 67.9037 87.6481 67.9513 87.6134C67.9989 87.5788 68.0386 87.5345 68.0678 87.4834C68.0969 87.4323 68.1149 87.3756 68.1206 87.317L68.1814 87.038C68.1814 86.967 68.2727 86.7794 68.1814 86.7236C68.0901 86.6678 68.1409 86.7236 68.1307 86.6881C68.1245 86.6763 68.1212 86.6633 68.1212 86.65C68.1212 86.6368 68.1245 86.6237 68.1307 86.612C68.1916 86.5613 68.2372 86.6475 68.293 86.617ZM67.9836 87.0634C67.9836 87.0938 67.9329 87.104 67.9075 87.1446C67.888 87.1949 67.8761 87.2479 67.872 87.3018C67.8467 87.4235 67.7807 87.454 67.6996 87.4387C67.6184 87.4235 67.5677 87.3627 67.5981 87.2409C67.5981 87.2054 67.6438 87.104 67.6336 87.0735C67.6235 87.0431 67.5829 87.0735 67.5626 87.0127C67.5474 86.9596 67.5474 86.9034 67.5626 86.8504C67.5651 86.8387 67.5651 86.8266 67.5626 86.8149C67.5626 86.8149 67.5373 86.7692 67.5626 86.7489C67.5626 86.7489 67.5626 86.683 67.5626 86.6373C67.7249 86.6982 67.7199 86.4497 67.7452 86.3482C67.7706 86.2468 67.8365 86.191 67.9177 86.2113C67.9988 86.2316 68.0445 86.2874 68.0191 86.404C67.9847 86.5073 67.9642 86.6148 67.9583 86.7236C67.9795 86.7269 67.9989 86.7371 68.0136 86.7527C68.0283 86.7684 68.0374 86.7884 68.0394 86.8098C68.0343 86.8366 68.0343 86.8641 68.0394 86.8909C68.0394 86.8909 68.0394 86.9366 68.0394 86.9569C68.0394 86.9772 68.009 86.9569 67.9887 86.9569C67.9747 86.9624 67.9622 86.9713 67.9525 86.9828C67.9428 86.9943 67.936 87.0081 67.9329 87.0228L67.9836 87.0634Z" fill="#263238"/>
<path d="M65.4578 82.9297L67.1722 83.305" stroke="#263238" stroke-width="0.507216" stroke-linecap="round" stroke-linejoin="round"/>
<path d="M61.5623 82.0775L64.6055 82.747" stroke="#263238" stroke-width="0.507216" stroke-linecap="round" stroke-linejoin="round"/>
<path d="M61.3087 83.2542L63.3173 83.6904" stroke="#263238" stroke-width="0.507216" stroke-linecap="round" stroke-linejoin="round"/>
<path opacity="0.4" d="M43.7336 159.971C46.399 159.273 49.1398 158.905 51.8947 158.875C56.8452 158.753 60.0102 159.692 64.0679 157.683C68.1256 155.674 70.7581 159.291 74.6383 157.282C78.5185 155.274 80.3191 152.058 82.561 152.129C84.8029 152.2 88.1404 116.274 89.2157 110.091C90.291 103.908 92.5785 86.6729 93.3647 83.1731L88.9468 161.066L43.7336 159.971Z" fill="white"/>
<path d="M43.9467 144.643L56.3177 159.692L43.2518 158.88L43.9467 144.643Z" fill="#E39292" stroke="#263238" stroke-width="0.507216" stroke-linecap="round" stroke-linejoin="round"/>
<path d="M76.7789 114.884L76.5811 120.611C76.5536 121.41 76.3689 122.195 76.0377 122.923C75.7064 123.651 75.2351 124.306 74.6506 124.851C74.066 125.397 73.3798 125.822 72.631 126.102C71.8822 126.382 71.0855 126.512 70.2865 126.484L64.4028 126.276C63.6016 126.249 62.8137 126.063 62.0843 125.731C61.355 125.398 60.6986 124.924 60.1528 124.337C59.6071 123.75 59.1827 123.06 58.9041 122.309C58.6254 121.557 58.4981 120.757 58.5293 119.956L58.793 112.5C58.8499 110.888 59.5449 109.363 60.7253 108.263C61.9057 107.162 63.4748 106.576 65.0876 106.632L70.9713 106.835C71.1336 106.835 71.2959 106.835 71.4785 106.87C70.6552 107.662 70.1355 108.718 70.0098 109.853C69.8841 110.989 70.1604 112.132 70.7906 113.085C71.4208 114.038 72.3651 114.74 73.4591 115.068C74.5532 115.397 75.7279 115.332 76.7789 114.884Z" fill="#E39292" stroke="#263238" stroke-width="0.507216" stroke-linecap="round" stroke-linejoin="round"/>
<path d="M77.839 109.939C77.8207 110.489 77.6394 111.022 77.3183 111.47C76.9971 111.917 76.5504 112.259 76.0347 112.453C75.519 112.646 74.9575 112.683 74.4212 112.557C73.8849 112.432 73.3978 112.15 73.0217 111.747C72.6456 111.345 72.3972 110.84 72.3081 110.297C72.2189 109.753 72.293 109.195 72.5209 108.694C72.7488 108.192 73.1203 107.77 73.5885 107.479C74.0566 107.189 74.6003 107.044 75.1508 107.063C75.8881 107.089 76.5849 107.407 77.0887 107.946C77.5925 108.485 77.8623 109.201 77.839 109.939Z" fill="#E39292" stroke="#263238" stroke-width="0.507216" stroke-linecap="round" stroke-linejoin="round"/>
<path opacity="0.4" d="M60.2031 120.666L68.8512 113.271C68.8512 113.271 67.7556 109.31 68.8512 108.057H64.6971C63.6966 108.054 62.7327 108.433 62.0021 109.116C61.2716 109.799 60.8295 110.736 60.7661 111.734L60.2031 120.666Z" fill="white"/>
<path opacity="0.4" d="M73.8776 110.091L75.729 108.062C75.729 108.062 74.5776 107.286 73.8776 108.062C73.1777 108.838 73.8776 110.091 73.8776 110.091Z" fill="white"/>
<path d="M72.9747 154.275L86.9181 154.878" stroke="#263238" stroke-width="0.507216" stroke-linecap="round" stroke-linejoin="round"/>
<path d="M68.1461 155.68L86.9182 156.684" stroke="#263238" stroke-width="0.507216" stroke-linecap="round" stroke-linejoin="round"/>
<path d="M82.0032 159.692H86.9181" stroke="#263238" stroke-width="0.507216" stroke-linecap="round" stroke-linejoin="round"/>
<path opacity="0.2" d="M64.9151 108.478C57.7228 111.937 49.932 99.8199 47.2032 98.1512C46.5304 97.7264 45.9032 97.2335 45.3315 96.6802L46.5184 76.7974L67.573 77.6444C67.436 80.6066 67.4816 83.8781 68.141 85.7599C69.5612 89.8633 72.1024 105.024 64.9151 108.478Z" fill="black" fill-opacity="0.7"/>
<path opacity="0.4" d="M56.8553 109.097C56.8553 109.097 62.6072 111.592 65.2143 110.111C67.8214 108.63 70.6313 105.8 71.032 99.5156C71.032 99.5156 74.4557 108.367 67.5525 111.019C60.6493 113.672 56.8553 109.097 56.8553 109.097Z" fill="white"/>
<path opacity="0.4" d="M54.6135 112.637C54.6135 112.637 66.2795 115.772 71.2705 110.101C71.2705 110.101 70.601 113.251 65.2143 114.159C59.8277 115.067 54.6135 112.637 54.6135 112.637Z" fill="white"/>
<path opacity="0.4" d="M73.3756 92.374C72.488 90.7965 73.5785 104.973 73.5785 104.973C73.5785 104.973 75.1813 95.61 73.3756 92.374Z" fill="white"/>
</g>
<path d="M94.7698 78.7351L89.8498 162.299L41.5172 160.711L45.3315 96.6804L46.5184 76.7976L67.5779 77.6446L94.7698 78.7351Z" stroke="#263238" stroke-width="0.507216" stroke-linecap="round" stroke-linejoin="round"/>
<path opacity="0.4" d="M92.325 162.745L90.5649 162.299L94.7698 85.7753L95.5154 90.8271L92.325 162.745Z" fill="white"/>
<path d="M64.9152 108.478C64.2501 108.832 63.5104 109.022 62.7573 109.033C62.0042 109.045 61.2591 108.877 60.5836 108.544C59.4143 107.931 58.471 106.961 57.8903 105.775C55.8868 102.163 50.4646 93.9364 49.4654 91.5728C48.4662 89.2091 46.2547 82.524 44.0483 79.7191C41.8419 76.9142 40.6348 72.6942 40.6348 72.6942L39.8334 31.7619C41.0355 37.6811 44.3476 44.4017 44.3476 44.4017C47.2252 45.8991 49.6702 48.1101 51.4486 50.8231C51.9663 51.3743 52.4299 51.9739 52.8333 52.6135C56.1099 57.6857 57.6975 66.8156 57.87 73.9166C58.0728 81.9458 60.6799 85.5826 64.8949 92.5771C69.1099 99.5716 67.6542 106.921 64.9152 108.478Z" fill="white"/>
<path opacity="0.4" d="M64.915 108.478C64.2471 108.823 63.5085 109.009 62.7569 109.02C62.0054 109.031 61.2614 108.869 60.5834 108.544C62.8861 107.915 65.9091 106.733 65.2142 104.994C64.1237 102.214 60.9333 106.338 59.3305 104.994C57.7277 103.65 51.9049 95.9398 55.6025 92.5466C59.3001 89.1533 58.1386 83.4623 55.6025 81.8595C53.0664 80.2567 54.7149 76.4374 55.5163 70.4269C56.0235 66.7901 54.2837 58.553 52.8534 52.6084C56.13 57.6806 57.7176 66.8104 57.89 73.9115C58.0929 81.9407 60.7 85.5774 64.915 92.5719C69.1299 99.5664 67.6539 107.017 64.915 108.478Z" fill="#E39292"/>
<path d="M39.8334 31.7365C41.0355 37.6557 44.3476 44.3763 44.3476 44.3763C47.2252 45.8737 49.6702 48.0847 51.4486 50.7977C55.6636 55.2104 57.6721 65.8467 57.87 73.8709C58.0678 81.895 60.6799 85.5369 64.8949 92.5314C69.1099 99.5259 67.9382 106.82 64.8949 108.478C62.7747 109.64 59.8785 109.386 57.87 105.775C55.8614 102.163 50.4443 93.9363 49.4451 91.5727C48.4459 89.2091 46.2344 82.524 44.028 79.7191C41.8217 76.9142 40.6145 72.6942 40.6145 72.6942" stroke="#263238" stroke-width="0.507216" stroke-linecap="round" stroke-linejoin="round"/>
<path d="M52.8638 90.8271C52.8638 90.8271 56.1404 90.5329 57.6417 89.3055" stroke="#263238" stroke-width="0.507216" stroke-linecap="round" stroke-linejoin="round"/>
<path d="M39.4326 73.5007C39.4326 73.5007 38.7935 75.0223 42.1411 76.544" stroke="#263238" stroke-width="0.507216" stroke-linecap="round" stroke-linejoin="round"/>
</svg>
