<svg width="215" height="214" viewBox="0 0 215 214" fill="none" xmlns="http://www.w3.org/2000/svg">
<path opacity="0.7" d="M22.0821 66.7208C22.0821 66.7208 8.68847 101.31 27.5106 136.139C46.3327 170.968 85.1011 189.367 116.13 205.1C147.159 220.833 179.38 213.171 194.69 187.402C210.001 161.634 189.002 143.239 188.973 106.493C188.945 69.7473 194.474 60.0192 174.561 28.9757C154.649 -2.06786 105.835 -8.9424 68.9212 14.0832C32.0071 37.1088 22.0821 66.7208 22.0821 66.7208Z" fill="white"/>
<path d="M52.8611 191.856C64.1986 203.827 92.033 199.441 104.091 191.856C143.244 167.235 211.835 126.247 214.944 66.8697C216.265 41.6342 194.008 28.3799 184.712 24.4935C162.393 15.1545 137.892 12.3538 113.704 11.2729C88.4492 10.1439 61.3402 11.023 38.6124 23.3453C29.994 28.01 21.8656 34.0102 16.3026 42.1771C10.653 50.4784 7.40073 60.365 6.53601 70.343C5.14765 86.4364 9.47606 102.573 16.0239 117.341C22.5718 132.108 31.3007 145.78 39.3138 159.808C44.5453 168.95 43.3299 181.772 52.8611 191.856Z" fill="#E39292"/>
<path opacity="0.7" d="M52.8611 191.856C64.1986 203.827 92.033 199.441 104.091 191.856C143.244 167.235 211.835 126.247 214.944 66.8697C216.265 41.6342 194.008 28.3799 184.712 24.4935C162.393 15.1545 137.892 12.3538 113.704 11.2729C88.4492 10.1439 61.3402 11.023 38.6124 23.3453C29.994 28.01 21.8656 34.0102 16.3026 42.1771C10.653 50.4784 7.40073 60.365 6.53601 70.343C5.14765 86.4364 9.47606 102.573 16.0239 117.341C22.5718 132.108 31.3007 145.78 39.3138 159.808C44.5453 168.95 43.3299 181.772 52.8611 191.856Z" fill="white"/>
<path opacity="0.2" d="M114.741 143.931C114.741 143.931 111.037 162.729 88.3193 166.99C88.3193 166.99 82.3863 171.722 80.4119 174.523C78.4375 177.324 67.9215 182.084 57.2085 196.938C46.4956 211.792 30.5463 164.622 30.5463 164.622L65.7981 118.84L114.741 143.931Z" fill="black" fill-opacity="0.7"/>
<path d="M134.933 55.6668C134.933 55.6668 147.183 49.6762 149.878 50.7091C152.573 51.742 155.162 57.9391 144.858 63.8721C134.553 69.805 137.628 80.8591 137.628 80.8591H144.978C144.978 80.8591 149.388 82.6558 151.103 84.9665C152.818 87.2772 154.043 95.1558 155.023 97.8268C156.003 100.498 155.503 103.174 152.818 104.043C152.818 104.043 151.103 111.518 151.593 114.833C152.083 118.148 151.838 120.281 148.653 120.684C147.851 120.768 147.041 120.676 146.279 120.416C145.517 120.155 144.82 119.732 144.237 119.175C143.655 118.619 143.2 117.942 142.905 117.192C142.61 116.442 142.481 115.637 142.528 114.833L140.078 123.711L141.793 127.122C144.215 128.059 146.455 129.416 148.408 131.128C151.838 134.068 155.268 134.871 154.288 138.147C153.308 141.423 151.348 144.954 141.058 140.861C130.768 136.768 122.192 120.684 122.192 120.684L116.01 64.6023L134.933 55.6668Z" fill="white"/>
<path opacity="0.4" d="M147.827 87.8827C142.273 95.4538 148.417 104.173 148.417 104.173C148.417 104.173 144.574 106.316 144.464 111.783C144.421 114.055 144.992 117.23 145.674 120.17C144.676 119.699 143.842 118.937 143.282 117.986C142.722 117.034 142.46 115.935 142.533 114.833L140.078 123.711L141.793 127.117C143.597 127.808 145.298 128.744 146.847 129.899C145.324 133.396 144.858 137.72 144.992 142.178C143.654 141.822 142.34 141.383 141.058 140.861C130.768 136.764 122.192 120.685 122.192 120.685L116.01 64.5977L134.933 55.667C134.933 55.667 141.625 52.3955 146.208 51.1032C145.852 55.3884 146.688 59.8225 147.293 62.2917C146.512 62.8638 145.699 63.3915 144.858 63.8723C134.568 69.8052 137.628 80.8593 137.628 80.8593H144.983C144.983 80.8593 149.172 82.5695 150.968 84.7937C149.74 85.6208 148.674 86.6681 147.827 87.8827Z" fill="#E39292"/>
<path d="M115.794 134.895C115.794 134.895 102.467 161.024 78.4473 166.952C78.4473 166.952 77.5297 172.121 73.4655 174.34C71.2941 175.522 62.5316 188.651 54.8404 200.637L12.2384 174.504C14.8614 171.909 17.8495 168.921 20.8856 165.804C29.773 156.743 39.2562 146.588 42.1578 141.563C44.7519 137.095 48.0331 129.341 50.8915 122.053C54.5521 112.734 57.5306 104.173 57.5306 104.173L71.7313 88.3869L94.0555 63.5646L95.0163 66.7401L115.794 134.895Z" fill="white"/>
<path opacity="0.4" d="M94.0746 63.5646L115.794 134.895C115.794 134.895 102.467 161.024 78.4472 166.952C78.4472 166.952 77.5296 172.121 73.4654 174.34C71.515 175.402 64.2561 186.091 57.2327 196.919C59.8364 187.984 67.3739 173.74 67.3739 173.74C62.5363 168.009 63.9487 161.97 65.8847 163.69C67.8207 165.41 72.6872 170.242 72.9946 170.545C70.8568 168.028 70.362 164.084 70.362 164.084C70.362 164.084 76.3574 168.071 76.8426 161.682C77.3278 155.292 73.2492 139.679 73.2492 139.679L62.5411 98.6243L94.0746 63.5646Z" fill="#E39292"/>
<path d="M116.01 64.6023L134.933 55.6668C134.933 55.6668 147.183 49.6762 149.878 50.7091C152.573 51.742 155.162 57.9391 144.858 63.8721C134.553 69.805 137.628 80.8591 137.628 80.8591H144.978C144.978 80.8591 149.388 82.6558 151.103 84.9665C152.818 87.2772 154.043 95.1558 155.023 97.8268C156.003 100.498 155.503 103.174 152.818 104.043C152.818 104.043 151.103 111.518 151.593 114.833C152.083 118.148 151.838 120.281 148.653 120.684C147.851 120.768 147.041 120.676 146.279 120.416C145.517 120.155 144.82 119.732 144.237 119.175C143.655 118.619 143.2 117.942 142.905 117.192C142.61 116.442 142.481 115.637 142.528 114.833L140.078 123.711L141.793 127.122C144.215 128.059 146.455 129.416 148.408 131.128C151.838 134.068 155.268 134.871 154.288 138.147C153.308 141.423 151.348 144.954 141.058 140.861C130.768 136.768 122.192 120.684 122.192 120.684" stroke="#263238" stroke-width="0.480401" stroke-linecap="round" stroke-linejoin="round"/>
<path d="M152.818 104.043C149.143 105.038 144.858 104.303 143.263 97.798C141.668 91.2933 144.858 84.3467 146.938 83.7078" stroke="#263238" stroke-width="0.480401" stroke-linecap="round" stroke-linejoin="round"/>
<path d="M142.528 114.833C142.528 114.833 142.283 106.469 145.348 104.403" stroke="#263238" stroke-width="0.480401" stroke-linecap="round" stroke-linejoin="round"/>
<path opacity="0.4" d="M53.1589 156.373C53.1589 156.373 44.1802 155.254 42.1769 151.238C40.5196 147.914 31.5361 160.366 20.9048 165.804C29.7922 156.743 39.2753 146.588 42.1769 141.563C44.7711 137.095 48.0522 129.341 50.9106 122.054C50.7665 128.097 47.5478 137.35 48.4654 142.168C47.4822 142.428 46.641 143.065 46.124 143.941C45.607 144.816 45.4558 145.861 45.7031 146.847C46.3901 150.676 53.1589 156.373 53.1589 156.373Z" fill="#E39292"/>
<path d="M115.794 134.895C115.794 134.895 102.467 161.024 78.4425 166.952C78.4425 166.952 77.5297 172.121 73.4655 174.34C71.2941 175.522 62.5364 188.652 54.8356 200.638" stroke="#263238" stroke-width="0.480401" stroke-linecap="round" stroke-linejoin="round"/>
<path d="M12.2384 174.504C22.4998 164.362 38.2713 148.283 42.177 141.563C48.0859 131.392 57.5498 104.168 57.5498 104.168L94.0603 63.5646" stroke="#263238" stroke-width="0.480401" stroke-linecap="round" stroke-linejoin="round"/>
<path d="M73.2253 94.5746C73.2253 94.5746 78.8364 99.5996 80.4314 104.183" stroke="#263238" stroke-width="0.480401" stroke-linecap="round" stroke-linejoin="round"/>
<path d="M139.458 21.3856H79.0859C77.3003 21.3856 75.8528 22.8331 75.8528 24.6187V153.14C75.8528 154.926 77.3003 156.374 79.0859 156.374H139.458C141.243 156.374 142.691 154.926 142.691 153.14V24.6187C142.691 22.8331 141.243 21.3856 139.458 21.3856Z" fill="#263238"/>
<path d="M122.519 25.0607L121.241 27.4002C121.106 27.6541 120.905 27.8667 120.659 28.0156C120.413 28.1644 120.131 28.2439 119.843 28.2457H98.7055C98.4184 28.2442 98.1369 28.1659 97.8903 28.0189C97.6436 27.8719 97.4408 27.6616 97.3028 27.4098L96.0297 25.0703C95.8929 24.8175 95.6903 24.6063 95.4434 24.4592C95.1965 24.312 94.9144 24.2344 94.6269 24.2344H79.8546C79.6441 24.235 79.4358 24.2772 79.2417 24.3584C79.0475 24.4397 78.8713 24.5585 78.7231 24.708C78.575 24.8575 78.4578 25.0348 78.3782 25.2297C78.2987 25.4246 78.2584 25.6332 78.2597 25.8437V152.189C78.2597 152.613 78.4276 153.019 78.7265 153.319C79.0255 153.619 79.4312 153.788 79.8546 153.789H138.685C138.895 153.79 139.104 153.75 139.3 153.67C139.495 153.59 139.672 153.472 139.822 153.324C139.971 153.175 140.09 152.998 140.171 152.804C140.252 152.609 140.294 152.4 140.294 152.189V25.8437C140.294 25.4194 140.125 25.0125 139.825 24.7125C139.525 24.4125 139.118 24.244 138.694 24.244H123.927C123.64 24.2412 123.358 24.3156 123.111 24.4593C122.863 24.603 122.659 24.8107 122.519 25.0607Z" fill="#E39292" stroke="#263238" stroke-width="0.480401" stroke-linecap="round" stroke-linejoin="round"/>
<path d="M104.687 26.1941C105.162 26.1941 105.547 25.8091 105.547 25.3342C105.547 24.8593 105.162 24.4743 104.687 24.4743C104.212 24.4743 103.827 24.8593 103.827 25.3342C103.827 25.8091 104.212 26.1941 104.687 26.1941Z" stroke="white" stroke-width="0.480401" stroke-miterlimit="10"/>
<path d="M114.713 25.3344C114.712 25.4396 114.68 25.5423 114.621 25.6293C114.561 25.7164 114.478 25.784 114.38 25.8236C114.283 25.8632 114.176 25.8731 114.073 25.852C113.969 25.8309 113.875 25.7797 113.801 25.705C113.727 25.6302 113.676 25.5352 113.656 25.4319C113.636 25.3286 113.647 25.2216 113.687 25.1244C113.728 25.0273 113.796 24.9443 113.884 24.8859C113.971 24.8275 114.074 24.7963 114.179 24.7963C114.25 24.7963 114.32 24.8103 114.385 24.8374C114.45 24.8645 114.509 24.9042 114.558 24.9542C114.608 25.0042 114.647 25.0636 114.674 25.1288C114.7 25.1941 114.713 25.264 114.713 25.3344Z" stroke="white" stroke-width="0.480401" stroke-miterlimit="10"/>
<path d="M112.32 24.9981H107.093C107.049 24.9981 107.006 25.0068 106.965 25.0237C106.925 25.0407 106.888 25.0656 106.857 25.0968C106.826 25.1281 106.802 25.1652 106.786 25.206C106.769 25.2468 106.761 25.2904 106.762 25.3343C106.762 25.4223 106.797 25.5066 106.859 25.5687C106.921 25.6309 107.005 25.6658 107.093 25.6658H112.32C112.408 25.6658 112.492 25.6309 112.555 25.5687C112.617 25.5066 112.652 25.4223 112.652 25.3343C112.652 25.2904 112.644 25.2468 112.628 25.206C112.611 25.1652 112.587 25.1281 112.556 25.0968C112.525 25.0656 112.489 25.0407 112.448 25.0237C112.408 25.0068 112.364 24.9981 112.32 24.9981Z" fill="white"/>
<path d="M89.1986 27.4385H83.5635V29.8309H89.1986V27.4385Z" stroke="#263238" stroke-width="0.480401" stroke-linecap="round" stroke-linejoin="round"/>
<path d="M90.0681 27.8419H89.1937V29.432H90.0681V27.8419Z" stroke="#263238" stroke-width="0.480401" stroke-linecap="round" stroke-linejoin="round"/>
<path d="M129.13 28.9662H128.13V29.8357H129.13V28.9662Z" stroke="#263238" stroke-width="0.480401" stroke-linecap="round" stroke-linejoin="round"/>
<path d="M131.08 28.0917H130.081V29.8356H131.08V28.0917Z" stroke="#263238" stroke-width="0.480401" stroke-linecap="round" stroke-linejoin="round"/>
<path d="M133.03 27.2176H132.031V29.831H133.03V27.2176Z" stroke="#263238" stroke-width="0.480401" stroke-linecap="round" stroke-linejoin="round"/>
<path d="M134.976 26.3432H133.977V29.8309H134.976V26.3432Z" stroke="#263238" stroke-width="0.480401" stroke-linecap="round" stroke-linejoin="round"/>
<path opacity="0.5" d="M139.881 52.1503H78.6584V110.543H139.881V52.1503Z" fill="white"/>
<path d="M95.5687 42.8257V43.8393C95.5687 45.0932 94.9682 45.7609 93.7384 45.7609H93.1571V48.6962H91.9272V40.8897H93.7384C94.9682 40.8897 95.5687 41.5718 95.5687 42.8257ZM93.1667 42.009V44.656H93.748C94.1371 44.656 94.3485 44.4783 94.3485 43.921V42.744C94.3485 42.1868 94.1371 42.009 93.748 42.009H93.1667Z" fill="#263238"/>
<path d="M99.974 48.7106H98.7345L98.5183 47.2934H97.0147L96.7985 48.7106H95.6696L96.9234 40.8897H98.7201L99.974 48.7106ZM97.1684 46.2317H98.355L97.7737 42.278H97.7497L97.1684 46.2317Z" fill="#263238"/>
<path d="M101.146 46.1212L99.5945 40.8897H100.901L101.828 44.4543H101.852L102.78 40.8897H103.952L102.4 46.1212V48.7106H101.17L101.146 46.1212Z" fill="#263238"/>
<path d="M107.012 46.4431H107.036L107.862 40.8897H109.572V48.7106H108.41V43.1043L107.583 48.7106H106.421L105.527 43.1812V48.7106H104.408V40.8897H106.118L107.012 46.4431Z" fill="#263238"/>
<path d="M111.696 44.1852H113.392V45.3046H111.706V47.5961H113.829V48.7106H110.466V40.8897H113.829V42.009H111.706L111.696 44.1852Z" fill="#263238"/>
<path d="M115.697 43.0467H115.673V48.7106H114.568V40.8897H116.111L117.35 45.5736V40.8897H118.445V48.7106H117.187L115.697 43.0467Z" fill="#263238"/>
<path d="M118.993 40.8897H122.793V42.009H121.505V48.7106H120.276V42.009H118.993V40.8897Z" fill="#263238"/>
<path d="M124.984 40.8033C126.175 40.8033 126.79 41.5191 126.79 42.7682V43.0132H125.627V42.6913C125.627 42.1293 125.406 41.9179 125.012 41.9179C124.618 41.9179 124.402 42.1293 124.402 42.6913C124.402 43.2534 124.647 43.6858 125.45 44.3871C126.478 45.2951 126.804 45.9388 126.804 46.8324C126.804 48.0862 126.175 48.802 124.969 48.802C123.763 48.802 123.139 48.0862 123.139 46.8324V46.352H124.301V46.914C124.301 47.4713 124.546 47.6731 124.935 47.6731C125.325 47.6731 125.574 47.4713 125.574 46.914C125.574 46.3568 125.329 45.9196 124.522 45.2134C123.494 44.3103 123.172 43.6617 123.172 42.7682C123.172 41.5191 123.787 40.8033 124.984 40.8033Z" fill="#263238"/>
<path d="M134.976 59.2267H83.5635V66.9083H134.976V59.2267Z" fill="white" stroke="#263238" stroke-width="0.480401" stroke-linecap="round" stroke-linejoin="round"/>
<path d="M134.976 73.6337H83.5635V81.3153H134.976V73.6337Z" fill="white" stroke="#263238" stroke-width="0.480401" stroke-linecap="round" stroke-linejoin="round"/>
<path d="M134.976 86.7346H83.5635V94.4163H134.976V86.7346Z" fill="white" stroke="#263238" stroke-width="0.480401" stroke-linecap="round" stroke-linejoin="round"/>
<path d="M107.905 97.2167H83.5635V106.21H107.905V97.2167Z" fill="white" stroke="#263238" stroke-width="0.480401" stroke-linecap="round" stroke-linejoin="round"/>
<path d="M134.981 97.2167H110.639V106.21H134.981V97.2167Z" fill="white" stroke="#263238" stroke-width="0.480401" stroke-linecap="round" stroke-linejoin="round"/>
<path d="M86.7677 57.8862V58.0928H85.1583V55.8205H86.7196V56.0271H85.4033V56.839H86.5755V57.0407H85.4033V57.8862H86.7677Z" fill="#263238"/>
<path d="M90.1016 57.1033V58.0929H89.8518V57.1321C89.8518 56.7718 89.6693 56.5844 89.3714 56.5844C89.2913 56.581 89.2113 56.5951 89.1372 56.6258C89.063 56.6564 88.9964 56.7028 88.942 56.7618C88.8876 56.8208 88.8467 56.8909 88.8221 56.9673C88.7975 57.0437 88.7899 57.1245 88.7998 57.2041V58.0977H88.5692V57.1369C88.5692 56.7766 88.3866 56.5892 88.0888 56.5892C88.0086 56.5858 87.9286 56.5999 87.8545 56.6306C87.7803 56.6612 87.7137 56.7076 87.6593 56.7666C87.6049 56.8256 87.564 56.8957 87.5394 56.9721C87.5149 57.0485 87.5072 57.1293 87.5171 57.2089V58.1025H87.2865V56.3971H87.5075V56.7093C87.5731 56.6032 87.6663 56.5167 87.7771 56.4592C87.8879 56.4017 88.0122 56.3753 88.1368 56.3827C88.2627 56.3721 88.3887 56.4011 88.4973 56.4657C88.6058 56.5303 88.6914 56.6273 88.7421 56.743C88.8121 56.6274 88.912 56.533 89.0312 56.4696C89.1504 56.4061 89.2846 56.3761 89.4195 56.3827C89.5141 56.3763 89.6089 56.3909 89.6972 56.4254C89.7854 56.46 89.865 56.5136 89.9302 56.5824C89.9953 56.6512 90.0445 56.7336 90.0741 56.8237C90.1038 56.9137 90.1132 57.0092 90.1016 57.1033Z" fill="#263238"/>
<path d="M92.0186 57.0361V58.093H91.7976V57.8287C91.7328 57.9238 91.6441 58.0001 91.5403 58.0499C91.4365 58.0997 91.3215 58.1211 91.2068 58.1122C90.8224 58.1122 90.587 57.9104 90.587 57.6318C90.587 57.3531 90.7552 57.1514 91.2452 57.1514H91.7736V57.0457C91.7736 56.7526 91.6055 56.5941 91.2932 56.5941C91.0861 56.5909 90.8848 56.6625 90.7264 56.7959L90.6207 56.6229C90.8198 56.469 91.0656 56.3876 91.3172 56.3923C91.4077 56.3775 91.5004 56.3834 91.5883 56.4097C91.6761 56.4359 91.7569 56.4817 91.8244 56.5437C91.892 56.6057 91.9445 56.6823 91.9782 56.7675C92.0118 56.8528 92.0257 56.9447 92.0186 57.0361ZM91.788 57.5837V57.3003H91.25C90.9185 57.3003 90.8128 57.43 90.8128 57.6077C90.8128 57.7855 90.9714 57.9296 91.2452 57.9296C91.3581 57.9329 91.4692 57.9015 91.5637 57.8396C91.6582 57.7778 91.7315 57.6885 91.7736 57.5837H91.788Z" fill="#263238"/>
<path d="M92.5903 55.8494C92.5916 55.8056 92.6099 55.7641 92.6412 55.7336C92.6726 55.7031 92.7147 55.686 92.7585 55.686C92.8018 55.686 92.8433 55.7032 92.874 55.7339C92.9046 55.7645 92.9218 55.806 92.9218 55.8494C92.9218 55.8927 92.9046 55.9342 92.874 55.9649C92.8433 55.9955 92.8018 56.0127 92.7585 56.0127C92.7147 56.0127 92.6726 55.9957 92.6412 55.9652C92.6099 55.9347 92.5916 55.8931 92.5903 55.8494ZM92.6432 56.3874H92.8738V58.0928H92.6432V56.3874Z" fill="#263238"/>
<path d="M93.5175 55.686H93.748V58.088H93.5175V55.686Z" fill="#263238"/>
<path d="M88.3578 63.7954V64.002H86.7484V61.7297H88.3097V61.9363H86.9694V62.7434H88.1464V62.9499H86.9694V63.7954H88.3578Z" fill="#263238"/>
<path d="M91.692 63.0028V63.9925H91.4614V63.0317C91.4614 62.6714 91.2788 62.484 90.981 62.484C90.901 62.4799 90.8212 62.4933 90.747 62.5234C90.6728 62.5535 90.6061 62.5994 90.5516 62.658C90.4971 62.7167 90.4561 62.7865 90.4316 62.8627C90.407 62.9389 90.3994 63.0195 90.4093 63.0989V63.9973H90.1787V63.0365C90.1787 62.6762 89.9962 62.4888 89.6983 62.4888C89.6184 62.4847 89.5385 62.4981 89.4643 62.5282C89.3901 62.5583 89.3235 62.6042 89.269 62.6629C89.2145 62.7215 89.1735 62.7913 89.1489 62.8675C89.1243 62.9437 89.1167 63.0243 89.1266 63.1037V64.0021H88.8912V62.2918H89.1122V62.6041C89.1789 62.4992 89.2724 62.414 89.383 62.3574C89.4937 62.3008 89.6175 62.2749 89.7415 62.2822C89.8672 62.2731 89.9926 62.3027 90.1009 62.3671C90.2092 62.4316 90.295 62.5277 90.3469 62.6425C90.4164 62.5267 90.5162 62.4319 90.6356 62.3684C90.7549 62.305 90.8892 62.2752 91.0242 62.2822C91.1176 62.2781 91.2108 62.2943 91.2973 62.3298C91.3838 62.3653 91.4615 62.4192 91.5251 62.4878C91.5886 62.5564 91.6365 62.638 91.6653 62.7269C91.6941 62.8159 91.7032 62.91 91.692 63.0028Z" fill="#263238"/>
<path d="M93.6038 62.9355V63.9924H93.3829V63.7282C93.3189 63.8228 93.2309 63.8985 93.1278 63.9475C93.0247 63.9965 92.9104 64.017 92.7968 64.0068C92.4124 64.0068 92.1722 63.8051 92.1722 63.5264C92.1722 63.2478 92.3452 63.046 92.8352 63.046H93.378V62.9451C93.378 62.6521 93.2099 62.4936 92.8976 62.4936C92.6892 62.4909 92.4866 62.5624 92.326 62.6953L92.2251 62.5224C92.4227 62.3656 92.6695 62.2839 92.9217 62.2918C93.0107 62.2802 93.1012 62.2885 93.1866 62.3162C93.272 62.3438 93.3502 62.3901 93.4155 62.4518C93.4808 62.5134 93.5316 62.5888 93.5642 62.6724C93.5967 62.7561 93.6103 62.846 93.6038 62.9355ZM93.378 63.4784V63.1998H92.84C92.5085 63.1998 92.4028 63.3295 92.4028 63.5072C92.4028 63.685 92.5614 63.8291 92.8352 63.8291C92.9512 63.8358 93.0663 63.8054 93.1639 63.7423C93.2615 63.6793 93.3365 63.5869 93.378 63.4784Z" fill="#263238"/>
<path d="M94.1757 61.7441C94.1769 61.7004 94.1952 61.6588 94.2266 61.6283C94.258 61.5978 94.3 61.5808 94.3438 61.5808C94.3657 61.5801 94.3874 61.5839 94.4078 61.5918C94.4282 61.5997 94.4467 61.6117 94.4624 61.6269C94.4781 61.6421 94.4906 61.6604 94.4991 61.6805C94.5076 61.7006 94.5119 61.7223 94.5119 61.7441C94.5119 61.7887 94.4942 61.8315 94.4627 61.863C94.4312 61.8946 94.3884 61.9123 94.3438 61.9123C94.2992 61.9123 94.2564 61.8946 94.2249 61.863C94.1934 61.8315 94.1757 61.7887 94.1757 61.7441ZM94.2285 62.2822H94.4591V63.9924H94.2285V62.2822Z" fill="#263238"/>
<path d="M95.1075 61.5807H95.3333V63.9827H95.1075V61.5807Z" fill="#263238"/>
<path d="M97.5384 63.0027V63.9924H97.3079V63.0316C97.3181 62.9606 97.3123 62.8882 97.2909 62.8198C97.2695 62.7513 97.233 62.6885 97.1842 62.636C97.1353 62.5835 97.0754 62.5426 97.0086 62.5162C96.9419 62.4899 96.8702 62.4789 96.7986 62.4839C96.7168 62.4771 96.6344 62.4884 96.5575 62.5171C96.4805 62.5458 96.4109 62.5911 96.3535 62.6499C96.2961 62.7086 96.2524 62.7794 96.2256 62.857C96.1987 62.9346 96.1893 63.0172 96.1981 63.0988V63.9972H95.9675V62.2869H96.1885V62.604C96.258 62.497 96.3547 62.4104 96.4686 62.353C96.5826 62.2956 96.7097 62.2695 96.8371 62.2773C96.9332 62.2696 97.0299 62.2833 97.1201 62.3174C97.2104 62.3514 97.292 62.4051 97.359 62.4744C97.4261 62.5438 97.4769 62.6271 97.508 62.7185C97.539 62.8098 97.5494 62.9069 97.5384 63.0027Z" fill="#263238"/>
<path d="M99.4599 62.9355V63.9923H99.2389V63.7281C99.175 63.8227 99.087 63.8984 98.9839 63.9474C98.8808 63.9964 98.7665 64.0169 98.6528 64.0068C98.2637 64.0068 98.0283 63.805 98.0283 63.5264C98.0283 63.2477 98.1965 63.046 98.6865 63.046H99.2293V62.9451C99.2293 62.652 99.066 62.4935 98.7489 62.4935C98.5418 62.4903 98.3405 62.5619 98.182 62.6953L98.0764 62.5223C98.2744 62.3662 98.5209 62.2846 98.7729 62.2917C98.8623 62.2793 98.9534 62.287 99.0394 62.3144C99.1254 62.3417 99.2043 62.3879 99.2701 62.4496C99.336 62.5113 99.3872 62.587 99.42 62.671C99.4529 62.7551 99.4665 62.8454 99.4599 62.9355ZM99.2293 63.4783V63.1997H98.6961C98.3646 63.1997 98.2541 63.3294 98.2541 63.5071C98.2541 63.6849 98.4126 63.829 98.6865 63.829C98.8032 63.8367 98.9194 63.8069 99.018 63.7438C99.1165 63.6806 99.1923 63.5876 99.2341 63.4783H99.2293Z" fill="#263238"/>
<path d="M102.909 63.0026V63.9922H102.679V63.0314C102.679 62.6711 102.496 62.4837 102.198 62.4837C102.118 62.4796 102.038 62.493 101.964 62.5231C101.89 62.5532 101.823 62.5991 101.769 62.6578C101.714 62.7164 101.673 62.7862 101.649 62.8624C101.624 62.9386 101.617 63.0192 101.627 63.0986V63.997H101.382V63.0362C101.382 62.6759 101.199 62.4885 100.901 62.4885C100.821 62.4844 100.741 62.4978 100.667 62.5279C100.593 62.558 100.526 62.6039 100.472 62.6626C100.417 62.7212 100.376 62.791 100.352 62.8672C100.327 62.9434 100.32 63.024 100.329 63.1034V64.0018H100.099V62.2916H100.32V62.6038C100.386 62.4989 100.48 62.4137 100.591 62.3571C100.701 62.3005 100.825 62.2746 100.949 62.282C101.075 62.2713 101.201 62.3004 101.31 62.365C101.418 62.4296 101.504 62.5265 101.554 62.6423C101.624 62.5267 101.724 62.4323 101.844 62.3689C101.963 62.3054 102.097 62.2754 102.232 62.282C102.326 62.2763 102.42 62.2915 102.508 62.3263C102.596 62.3612 102.675 62.4149 102.739 62.4836C102.804 62.5524 102.853 62.6345 102.882 62.7242C102.911 62.8139 102.921 62.9089 102.909 63.0026Z" fill="#263238"/>
<path d="M105.028 63.2092H103.586C103.599 63.3767 103.677 63.5324 103.804 63.6423C103.931 63.7522 104.096 63.8072 104.264 63.7953C104.362 63.798 104.46 63.7792 104.551 63.7402C104.641 63.7012 104.722 63.6429 104.787 63.5695L104.917 63.7184C104.795 63.8471 104.637 63.9368 104.463 63.9762C104.29 64.0155 104.109 64.0029 103.943 63.9398C103.777 63.8767 103.633 63.766 103.529 63.6215C103.426 63.477 103.367 63.3052 103.361 63.1275C103.355 63.0148 103.372 62.9021 103.412 62.7964C103.451 62.6907 103.512 62.5943 103.59 62.5132C103.669 62.4321 103.763 62.3679 103.867 62.3249C103.972 62.2818 104.084 62.2607 104.197 62.2628C104.309 62.2606 104.421 62.2817 104.524 62.3249C104.628 62.3681 104.722 62.4323 104.8 62.5136C104.877 62.5949 104.937 62.6915 104.976 62.7971C105.014 62.9028 105.03 63.0153 105.023 63.1275C105.023 63.1275 105.028 63.1852 105.028 63.2092ZM103.586 63.0362H104.797C104.797 62.8757 104.733 62.7217 104.62 62.6082C104.506 62.4947 104.352 62.4309 104.192 62.4309C104.031 62.4309 103.877 62.4947 103.764 62.6082C103.65 62.7217 103.586 62.8757 103.586 63.0362Z" fill="#263238"/>
<path d="M108.371 63.1324C108.371 63.6849 108.165 64.0068 107.829 64.0068C107.781 64.0094 107.734 64.0022 107.689 63.9857C107.645 63.9692 107.604 63.9437 107.57 63.9108C107.535 63.8779 107.508 63.8384 107.49 63.7945C107.472 63.7507 107.463 63.7035 107.463 63.6561C107.397 63.7671 107.301 63.8583 107.187 63.9199C107.073 63.9816 106.944 64.0116 106.815 64.0068C106.593 64.0068 106.381 63.9187 106.224 63.7619C106.067 63.6052 105.979 63.3925 105.979 63.1708C105.979 62.9492 106.067 62.7365 106.224 62.5798C106.381 62.423 106.593 62.335 106.815 62.335C106.943 62.3295 107.07 62.3582 107.183 62.4182C107.296 62.4781 107.391 62.5671 107.459 62.676V62.3542H107.67V63.584C107.67 63.7665 107.761 63.8338 107.872 63.8338C108.069 63.8338 108.198 63.584 108.198 63.1468C108.204 62.9733 108.172 62.8006 108.106 62.6399C108.041 62.4793 107.942 62.3342 107.816 62.2142C107.691 62.0942 107.542 62.0019 107.378 61.9432C107.215 61.8846 107.041 61.8609 106.868 61.8738C106.696 61.8738 106.526 61.9076 106.368 61.9732C106.209 62.0389 106.065 62.1352 105.944 62.2565C105.822 62.3778 105.726 62.5219 105.661 62.6804C105.595 62.8389 105.561 63.0089 105.561 63.1805C105.561 63.3521 105.595 63.522 105.661 63.6805C105.726 63.839 105.822 63.9831 105.944 64.1044C106.065 64.2258 106.209 64.322 106.368 64.3877C106.526 64.4534 106.696 64.4872 106.868 64.4872C107.084 64.4866 107.298 64.4373 107.492 64.343L107.545 64.5016C107.333 64.6012 107.102 64.6521 106.868 64.6505C106.478 64.6505 106.104 64.4956 105.828 64.2199C105.553 63.9442 105.398 63.5703 105.398 63.1805C105.398 62.7906 105.553 62.4167 105.828 62.141C106.104 61.8653 106.478 61.7104 106.868 61.7104C107.062 61.6964 107.257 61.7229 107.44 61.7883C107.624 61.8538 107.791 61.9566 107.933 62.0904C108.074 62.2241 108.186 62.3858 108.262 62.5652C108.337 62.7446 108.375 62.9378 108.371 63.1324ZM107.459 63.166C107.466 63.0804 107.456 62.9941 107.428 62.9127C107.401 62.8313 107.356 62.7565 107.298 62.693C107.24 62.6296 107.17 62.579 107.091 62.5444C107.012 62.5097 106.927 62.4918 106.841 62.4918C106.755 62.4918 106.67 62.5097 106.592 62.5444C106.513 62.579 106.442 62.6296 106.384 62.693C106.326 62.7565 106.282 62.8313 106.254 62.9127C106.227 62.9941 106.216 63.0804 106.224 63.166C106.216 63.2517 106.227 63.338 106.254 63.4194C106.282 63.5008 106.326 63.5756 106.384 63.639C106.442 63.7025 106.513 63.7531 106.592 63.7877C106.67 63.8224 106.755 63.8403 106.841 63.8403C106.927 63.8403 107.012 63.8224 107.091 63.7877C107.17 63.7531 107.24 63.7025 107.298 63.639C107.356 63.5756 107.401 63.5008 107.428 63.4194C107.456 63.338 107.466 63.2517 107.459 63.166Z" fill="#263238"/>
<path d="M110.341 63.2091H108.9C108.905 63.2925 108.926 63.374 108.963 63.4491C108.999 63.5241 109.05 63.5913 109.113 63.6466C109.175 63.702 109.248 63.7444 109.327 63.7716C109.406 63.7987 109.489 63.81 109.573 63.8048C109.671 63.8075 109.769 63.7887 109.859 63.7497C109.95 63.7107 110.031 63.6525 110.096 63.579L110.226 63.728C110.103 63.8567 109.945 63.9463 109.772 63.9857C109.599 64.0251 109.418 64.0124 109.251 63.9494C109.085 63.8863 108.941 63.7755 108.838 63.631C108.734 63.4866 108.676 63.3147 108.669 63.1371C108.663 63.0244 108.681 62.9117 108.72 62.806C108.76 62.7003 108.821 62.6039 108.899 62.5227C108.977 62.4416 109.072 62.3775 109.176 62.3344C109.28 62.2913 109.392 62.2702 109.505 62.2723C109.618 62.2701 109.729 62.2913 109.833 62.3344C109.937 62.3776 110.031 62.4419 110.108 62.5232C110.186 62.6045 110.246 62.701 110.284 62.8067C110.323 62.9124 110.339 63.0249 110.332 63.1371C110.332 63.1371 110.341 63.1851 110.341 63.2091ZM108.9 63.0362H110.111C110.111 62.8756 110.047 62.7217 109.933 62.6082C109.82 62.4947 109.666 62.4309 109.505 62.4309C109.345 62.4309 109.191 62.4947 109.077 62.6082C108.964 62.7217 108.9 62.8756 108.9 63.0362Z" fill="#263238"/>
<path d="M113.637 63.0026V63.9922H113.392V63.0314C113.392 62.6711 113.209 62.4837 112.911 62.4837C112.831 62.4796 112.751 62.493 112.677 62.5231C112.603 62.5532 112.536 62.5991 112.482 62.6578C112.427 62.7164 112.386 62.7862 112.362 62.8624C112.337 62.9386 112.33 63.0192 112.34 63.0986V63.997H112.109V63.0362C112.109 62.6759 111.926 62.4885 111.629 62.4885C111.549 62.4844 111.469 62.4978 111.395 62.5279C111.32 62.558 111.254 62.6039 111.199 62.6626C111.145 62.7212 111.104 62.791 111.079 62.8672C111.055 62.9434 111.047 63.024 111.057 63.1034V64.0018H110.826V62.2916H111.047V62.6038C111.113 62.4993 111.206 62.4143 111.316 62.3577C111.425 62.3011 111.548 62.275 111.672 62.282C111.798 62.2725 111.924 62.3019 112.033 62.3663C112.143 62.4307 112.229 62.527 112.282 62.6423C112.35 62.5264 112.449 62.4315 112.568 62.368C112.686 62.3045 112.82 62.2747 112.954 62.282C113.049 62.2756 113.144 62.2902 113.232 62.3247C113.32 62.3593 113.4 62.4128 113.465 62.4817C113.53 62.5505 113.579 62.6329 113.609 62.723C113.639 62.813 113.648 62.9085 113.637 63.0026Z" fill="#263238"/>
<path d="M115.549 62.9354V63.9923H115.313V63.728C115.249 63.8222 115.161 63.8977 115.058 63.9466C114.955 63.9956 114.841 64.0163 114.727 64.0067C114.338 64.0067 114.103 63.8049 114.103 63.5263C114.103 63.2476 114.271 63.0459 114.761 63.0459H115.313V62.945C115.313 62.6519 115.15 62.4934 114.833 62.4934C114.626 62.4902 114.425 62.5619 114.266 62.6952L114.16 62.5222C114.358 62.3661 114.605 62.2845 114.857 62.2916C114.947 62.2784 115.038 62.2856 115.125 62.3125C115.212 62.3395 115.291 62.3856 115.358 62.4474C115.424 62.5092 115.476 62.5851 115.509 62.6696C115.542 62.7541 115.556 62.8449 115.549 62.9354ZM115.318 63.4782V63.1996H114.785C114.453 63.1996 114.343 63.3293 114.343 63.5071C114.343 63.6848 114.502 63.8289 114.775 63.8289C114.891 63.8346 115.005 63.8037 115.101 63.7407C115.198 63.6778 115.272 63.5859 115.313 63.4782H115.318Z" fill="#263238"/>
<path d="M116.125 61.7439C116.125 61.7106 116.135 61.6781 116.153 61.6505C116.172 61.6228 116.198 61.6013 116.229 61.5885C116.26 61.5758 116.293 61.5725 116.326 61.579C116.359 61.5855 116.389 61.6015 116.412 61.625C116.436 61.6485 116.452 61.6785 116.458 61.7111C116.465 61.7437 116.461 61.7775 116.449 61.8082C116.436 61.839 116.414 61.8652 116.387 61.8837C116.359 61.9022 116.327 61.912 116.293 61.912C116.249 61.912 116.206 61.8943 116.174 61.8628C116.143 61.8313 116.125 61.7885 116.125 61.7439ZM116.173 62.2819H116.404V63.9922H116.173V62.2819Z" fill="#263238"/>
<path d="M117.047 61.5807H117.278V63.9827H117.047V61.5807Z" fill="#263238"/>
<path d="M117.773 63.8289C117.772 63.806 117.776 63.7832 117.785 63.762C117.793 63.7407 117.806 63.7214 117.822 63.7052C117.838 63.689 117.858 63.6763 117.879 63.6678C117.9 63.6593 117.923 63.6553 117.946 63.656C117.992 63.656 118.036 63.6742 118.068 63.7066C118.101 63.7391 118.119 63.7831 118.119 63.8289C118.119 63.8753 118.101 63.9197 118.068 63.9529C118.036 63.9861 117.992 64.0054 117.946 64.0067C117.923 64.0067 117.9 64.0021 117.879 63.9931C117.857 63.9841 117.838 63.9709 117.822 63.9543C117.806 63.9378 117.793 63.9181 117.785 63.8966C117.776 63.875 117.772 63.852 117.773 63.8289Z" fill="#263238"/>
<path d="M118.388 63.137C118.384 63.0213 118.405 62.9061 118.448 62.7987C118.491 62.6912 118.556 62.5939 118.639 62.5127C118.721 62.4315 118.82 62.3683 118.928 62.3269C119.036 62.2855 119.151 62.2669 119.267 62.2723C119.399 62.2636 119.531 62.2902 119.649 62.3493C119.767 62.4084 119.867 62.4979 119.94 62.6085L119.767 62.7238C119.713 62.6466 119.641 62.5836 119.557 62.5401C119.473 62.4966 119.38 62.474 119.286 62.474C119.119 62.4882 118.964 62.5644 118.851 62.6877C118.738 62.8109 118.675 62.9721 118.675 63.1394C118.675 63.3067 118.738 63.4679 118.851 63.5911C118.964 63.7143 119.119 63.7906 119.286 63.8047C119.381 63.8056 119.474 63.7833 119.558 63.7398C119.641 63.6962 119.713 63.6327 119.767 63.5549L119.94 63.6702C119.867 63.7802 119.766 63.8692 119.648 63.9282C119.53 63.9872 119.399 64.0142 119.267 64.0065C119.151 64.0119 119.035 63.9932 118.927 63.9515C118.818 63.9098 118.719 63.8461 118.637 63.7644C118.554 63.6827 118.489 63.5848 118.447 63.4768C118.404 63.3688 118.384 63.2531 118.388 63.137Z" fill="#263238"/>
<path d="M120.189 63.1371C120.189 62.9652 120.24 62.797 120.336 62.6541C120.431 62.5111 120.567 62.3996 120.726 62.3338C120.885 62.268 121.06 62.2508 121.229 62.2843C121.397 62.3179 121.552 62.4007 121.674 62.5223C121.795 62.6439 121.878 62.7988 121.912 62.9675C121.945 63.1362 121.928 63.311 121.862 63.4699C121.796 63.6288 121.685 63.7646 121.542 63.8601C121.399 63.9557 121.231 64.0067 121.059 64.0067C120.944 64.0107 120.829 63.9909 120.721 63.9487C120.614 63.9064 120.517 63.8425 120.435 63.7609C120.354 63.6794 120.29 63.5819 120.247 63.4746C120.205 63.3673 120.185 63.2524 120.189 63.1371ZM121.693 63.1371C121.689 63.0107 121.648 62.8882 121.574 62.7852C121.501 62.6823 121.398 62.6035 121.28 62.5589C121.161 62.5143 121.032 62.5058 120.909 62.5346C120.786 62.5634 120.674 62.6281 120.588 62.7206C120.501 62.8131 120.444 62.9291 120.424 63.054C120.403 63.1789 120.421 63.307 120.473 63.4221C120.526 63.5372 120.611 63.6342 120.719 63.7006C120.827 63.767 120.952 63.8 121.078 63.7953C121.162 63.7941 121.245 63.776 121.322 63.7419C121.399 63.7079 121.468 63.6586 121.526 63.5972C121.583 63.5357 121.628 63.4633 121.656 63.3842C121.685 63.3052 121.698 63.2211 121.693 63.1371Z" fill="#263238"/>
<path d="M125.214 63.0026V63.9922H124.984V63.0314C124.984 62.6711 124.801 62.4837 124.503 62.4837C124.423 62.4796 124.343 62.493 124.269 62.5231C124.195 62.5532 124.128 62.5991 124.074 62.6578C124.019 62.7164 123.978 62.7862 123.954 62.8624C123.929 62.9386 123.922 63.0192 123.932 63.0986V63.997H123.701V63.0362C123.701 62.6759 123.518 62.4885 123.221 62.4885C123.141 62.4844 123.061 62.4978 122.987 62.5279C122.912 62.558 122.846 62.6039 122.791 62.6626C122.737 62.7212 122.696 62.791 122.671 62.8672C122.647 62.9434 122.639 63.024 122.649 63.1034V64.0018H122.418V62.2916H122.639V62.6038C122.705 62.4993 122.798 62.4143 122.908 62.3577C123.018 62.3011 123.14 62.275 123.264 62.282C123.39 62.2725 123.516 62.3019 123.625 62.3663C123.735 62.4307 123.821 62.527 123.874 62.6423C123.943 62.5268 124.042 62.4322 124.16 62.3687C124.279 62.3052 124.412 62.2752 124.547 62.282C124.64 62.2778 124.733 62.294 124.82 62.3295C124.906 62.365 124.984 62.4189 125.047 62.4875C125.111 62.5561 125.159 62.6377 125.188 62.7266C125.216 62.8156 125.226 62.9097 125.214 63.0026Z" fill="#263238"/>
<path d="M87.157 77.5157L87.5606 77.7463L87.4885 77.8808L87.0802 77.6454V78.1258H86.9312V77.6454L86.5229 77.8808L86.446 77.7463L86.8544 77.5157L86.446 77.2899L86.5229 77.1506L86.9312 77.3908V76.9104H87.0802V77.3908L87.4885 77.1506L87.5606 77.2899L87.157 77.5157Z" fill="#263238"/>
<path d="M88.4779 77.5157L88.8814 77.7463L88.8046 77.8808L88.401 77.6454V78.1258H88.2473V77.6454L87.8438 77.8808L87.7621 77.7463L88.1704 77.5157L87.7621 77.2899L87.8438 77.1506L88.2473 77.3908V76.9104H88.4106V77.3908L88.8142 77.1506L88.891 77.2899L88.4779 77.5157Z" fill="#263238"/>
<path d="M89.7943 77.5157L90.1979 77.7463L90.121 77.8808L89.7175 77.6454V78.1258H89.5685V77.6454L89.165 77.8808L89.0881 77.7463L89.4917 77.5157L89.0881 77.2899L89.165 77.1506L89.5685 77.3908V76.9104H89.7175V77.3908L90.121 77.1506L90.1979 77.2899L89.7943 77.5157Z" fill="#263238"/>
<path d="M91.1106 77.5157L91.5142 77.7463L91.4421 77.8808L91.0338 77.6454V78.1258H90.8849V77.6454L90.4765 77.8808L90.3997 77.7463L90.808 77.5157L90.3997 77.2899L90.4765 77.1506L90.8849 77.3908V76.9104H91.0338V77.3908L91.4421 77.1506L91.5142 77.2899L91.1106 77.5157Z" fill="#263238"/>
<path d="M92.4316 77.5157L92.8352 77.7463L92.7583 77.8808L92.3548 77.6454V78.1258H92.201V77.6454L91.7975 77.8808L91.7158 77.7463L92.1242 77.5157L91.7158 77.2899L91.7975 77.1506L92.201 77.3908V76.9104H92.3548V77.3908L92.7583 77.1506L92.8352 77.2899L92.4316 77.5157Z" fill="#263238"/>
<path d="M93.7479 77.5157L94.1515 77.7463L94.0746 77.8808L93.6711 77.6454V78.1258H93.5221V77.6454L93.1186 77.8808L93.0417 77.7463L93.4453 77.5157L93.0417 77.2899L93.1186 77.1506L93.5221 77.3908V76.9104H93.6951V77.3908L94.0986 77.1506L94.1755 77.2899L93.7479 77.5157Z" fill="#263238"/>
<path d="M95.0641 77.5157L95.4677 77.7463L95.3956 77.8808L94.9873 77.6454V78.1258H94.8384V77.6454L94.43 77.8808L94.3531 77.7463L94.7615 77.5157L94.3531 77.2899L94.43 77.1506L94.8384 77.3908V76.9104H94.9873V77.3908L95.3956 77.1506L95.4677 77.2899L95.0641 77.5157Z" fill="#263238"/>
<path d="M96.3854 77.5157L96.7889 77.7463L96.712 77.8808L96.3037 77.6454V78.1258H96.1548V77.6454L95.7512 77.8808L95.6696 77.7463L96.0779 77.5157L95.6696 77.2899L95.7512 77.1506L96.1548 77.3908V76.9104H96.3037V77.3908L96.712 77.1506L96.7889 77.2899L96.3854 77.5157Z" fill="#263238"/>
<path d="M97.7016 77.5157L98.1051 77.7463L98.0282 77.8808L97.6247 77.6454V78.1258H97.4758V77.6454L97.0722 77.8808L96.9954 77.7463L97.3989 77.5157L96.9954 77.2899L97.0722 77.1506L97.4758 77.3908V76.9104H97.6247V77.3908L98.0282 77.1506L98.1051 77.2899L97.7016 77.5157Z" fill="#263238"/>
<path d="M99.0181 77.5157L99.4217 77.7463L99.3496 77.8808L98.9413 77.6454V78.1258H98.7923V77.6454L98.384 77.8808L98.3071 77.7463L98.7107 77.5157L98.3071 77.2899L98.384 77.1506L98.7923 77.3908V76.9104H98.9413V77.3908L99.3496 77.1506L99.4217 77.2899L99.0181 77.5157Z" fill="#263238"/>
<path d="M100.339 77.5157L100.738 77.7463L100.666 77.8808L100.258 77.6454V78.1258H100.109V77.6454L99.7051 77.8808L99.6234 77.7463L100.032 77.5157L99.6234 77.2899L99.7051 77.1506L100.109 77.3908V76.9104H100.258V77.3908L100.666 77.1506L100.738 77.2899L100.339 77.5157Z" fill="#263238"/>
<path d="M86.9406 71.0012C86.9406 71.4816 86.5899 71.7794 86.0134 71.7794H85.4033V72.4952H85.1583V70.2325H86.0086C86.5899 70.2325 86.9406 70.5208 86.9406 71.0012ZM86.7004 71.0012C86.7004 70.6361 86.4602 70.4295 86.0038 70.4295H85.4033V71.568H86.0086C86.4602 71.5777 86.7004 71.3711 86.7004 71.0012Z" fill="#263238"/>
<path d="M88.6843 71.4482V72.5051H88.4633V72.2408C88.3983 72.3354 88.3093 72.411 88.2055 72.46C88.1017 72.5089 87.9867 72.5295 87.8724 72.5195C87.4881 72.5195 87.2527 72.3225 87.2527 72.0391C87.2527 71.7556 87.4208 71.5587 87.9108 71.5587H88.4537V71.4578C88.4537 71.1647 88.2855 71.0062 87.9733 71.0062C87.7662 71.003 87.5649 71.0747 87.4064 71.208L87.3007 71.035C87.4987 70.8789 87.7453 70.7973 87.9973 70.8044C88.0867 70.792 88.1778 70.7998 88.2638 70.8271C88.3498 70.8544 88.4286 70.9006 88.4945 70.9623C88.5603 71.024 88.6116 71.0997 88.6444 71.1838C88.6772 71.2678 88.6909 71.3582 88.6843 71.4482ZM88.4537 71.991V71.7124H87.9301C87.5986 71.7124 87.4929 71.8421 87.4929 72.0199C87.4929 72.1976 87.6514 72.3417 87.9253 72.3417C88.0388 72.3453 88.1507 72.3135 88.2454 72.2507C88.3401 72.1878 88.4129 72.0971 88.4537 71.991Z" fill="#263238"/>
<path d="M89.0736 72.3129L89.1745 72.1303C89.3531 72.2558 89.5663 72.323 89.7846 72.3225C90.1065 72.3225 90.241 72.212 90.241 72.039C90.241 71.5971 89.1361 71.9478 89.1361 71.2704C89.1361 70.9918 89.3763 70.79 89.8086 70.79C90.021 70.7872 90.2302 70.842 90.4139 70.9485L90.313 71.1311C90.1631 71.0336 89.9874 70.9834 89.8086 70.987C89.5012 70.987 89.3667 71.107 89.3667 71.2704C89.3667 71.7508 90.4716 71.3857 90.4716 72.039C90.4716 72.3369 90.2122 72.5194 89.7654 72.5194C89.5185 72.5274 89.2757 72.4549 89.0736 72.3129Z" fill="#263238"/>
<path d="M90.6592 72.3129L90.7649 72.1304C90.9414 72.2564 91.1532 72.3236 91.3702 72.3225C91.6969 72.3225 91.8506 72.212 91.8506 72.0391C91.8506 71.5971 90.7457 71.9478 90.7457 71.2704C90.7457 70.9918 90.9859 70.79 91.423 70.79C91.634 70.7867 91.8417 70.8416 92.0235 70.9486L91.9226 71.1311C91.7797 71.038 91.6129 70.9879 91.4422 70.987C91.13 70.987 90.9955 71.1071 90.9955 71.2704C90.9955 71.7508 92.1004 71.3857 92.1004 72.0391C92.1004 72.3369 91.841 72.5195 91.399 72.5195C91.136 72.538 90.8746 72.465 90.6592 72.3129Z" fill="#263238"/>
<path d="M94.9585 70.7995L94.3099 72.5049H94.0937L93.5557 71.1069L93.0176 72.5049H92.7966L92.1577 70.7995H92.3787L92.9119 72.2407L93.4596 70.7995H93.6614L94.2042 72.2407L94.7471 70.7995H94.9585Z" fill="#263238"/>
<path d="M95.0835 71.6499C95.0835 71.4779 95.1345 71.3098 95.2301 71.1668C95.3256 71.0238 95.4614 70.9124 95.6203 70.8465C95.7792 70.7807 95.954 70.7635 96.1227 70.7971C96.2914 70.8306 96.4463 70.9134 96.5679 71.035C96.6895 71.1566 96.7723 71.3116 96.8059 71.4802C96.8394 71.6489 96.8222 71.8237 96.7564 71.9826C96.6906 72.1415 96.5791 72.2773 96.4361 72.3729C96.2931 72.4684 96.125 72.5194 95.953 72.5194C95.8378 72.5234 95.7229 72.5037 95.6156 72.4614C95.5083 72.4191 95.4108 72.3552 95.3292 72.2737C95.2477 72.1921 95.1838 72.0946 95.1415 71.9873C95.0992 71.88 95.0795 71.7651 95.0835 71.6499ZM96.5872 71.6499C96.5872 71.4817 96.5204 71.3204 96.4014 71.2015C96.2825 71.0826 96.1212 71.0157 95.953 71.0157C95.7849 71.0157 95.6236 71.0826 95.5046 71.2015C95.3857 71.3204 95.3189 71.4817 95.3189 71.6499C95.3189 71.8181 95.3857 71.9794 95.5046 72.0983C95.6236 72.2172 95.7849 72.284 95.953 72.284C96.1212 72.284 96.2825 72.2172 96.4014 72.0983C96.5204 71.9794 96.5872 71.8181 96.5872 71.6499Z" fill="#263238"/>
<path d="M98.1532 70.7853V71.0015H98.0956C98.0145 70.9978 97.9336 71.0121 97.8587 71.0433C97.7837 71.0745 97.7166 71.1218 97.662 71.1819C97.6074 71.242 97.5668 71.3134 97.5429 71.3909C97.519 71.4685 97.5126 71.5504 97.5239 71.6308V72.5003H97.2933V70.7949H97.5383V71.1264C97.5962 71.0156 97.6854 70.9242 97.7946 70.8636C97.9039 70.803 98.0286 70.7758 98.1532 70.7853Z" fill="#263238"/>
<path d="M100.109 70.0983V72.5003H99.8875V72.164C99.8191 72.2758 99.722 72.3673 99.6062 72.429C99.4905 72.4907 99.3604 72.5202 99.2294 72.5147C99.0106 72.4984 98.806 72.4 98.6567 72.2391C98.5074 72.0783 98.4244 71.867 98.4244 71.6476C98.4244 71.4281 98.5074 71.2168 98.6567 71.056C98.806 70.8952 99.0106 70.7967 99.2294 70.7804C99.3573 70.7756 99.4844 70.804 99.5981 70.8629C99.7117 70.9219 99.8082 71.0093 99.8779 71.1167V70.0935L100.109 70.0983ZM99.8827 71.65C99.8762 71.5262 99.8334 71.407 99.7599 71.3073C99.6863 71.2075 99.5852 71.1315 99.4689 71.0886C99.3526 71.0457 99.2263 71.0379 99.1056 71.066C98.9848 71.0941 98.875 71.157 98.7897 71.2469C98.7043 71.3368 98.6472 71.4497 98.6253 71.5717C98.6034 71.6937 98.6178 71.8195 98.6666 71.9334C98.7155 72.0473 98.7966 72.1444 98.9 72.2127C99.0035 72.281 99.1246 72.3175 99.2486 72.3177C99.3352 72.3193 99.4211 72.3028 99.501 72.2693C99.5809 72.2358 99.6529 72.1861 99.7126 72.1233C99.7722 72.0606 99.8181 71.986 99.8474 71.9045C99.8767 71.823 99.8887 71.7364 99.8827 71.65Z" fill="#263238"/>
<path d="M103.524 89.737V92.0141H103.303V89.9484H102.765V89.737H103.524Z" fill="#263238"/>
<path d="M105.619 91.7932V92.0046H104.024V91.8364L104.985 90.9092C105.239 90.6594 105.292 90.5057 105.292 90.352C105.292 90.0878 105.105 89.9244 104.759 89.9244C104.643 89.917 104.527 89.936 104.42 89.9801C104.312 90.0243 104.216 90.0923 104.139 90.179L103.971 90.0349C104.073 89.9247 104.199 89.8384 104.338 89.7819C104.478 89.7255 104.628 89.7003 104.778 89.7082C105.258 89.7082 105.532 89.9436 105.532 90.3231C105.525 90.4617 105.487 90.597 105.423 90.7197C105.358 90.8424 105.268 90.9497 105.158 91.0341L104.384 91.7932H105.619Z" fill="#263238"/>
<path d="M107.415 91.3511C107.415 91.7306 107.137 92.0237 106.589 92.0237C106.289 92.0331 105.997 91.9283 105.772 91.7306L105.883 91.5433C106.075 91.7198 106.328 91.8145 106.589 91.8075C106.968 91.8075 107.175 91.6346 107.175 91.3511C107.175 91.0677 106.983 90.8996 106.56 90.8996H106.397V90.7266L107.026 89.9388H105.863V89.737H107.305V89.9051L106.666 90.6978C107.17 90.7314 107.415 90.986 107.415 91.3511Z" fill="#263238"/>
<path d="M109.673 91.404H109.217V92.0045H108.986V91.404H107.704V91.2359L108.91 89.7274H109.169L108.006 91.1782H108.991V90.6498H109.217V91.1782H109.673V91.404Z" fill="#263238"/>
<path d="M112.282 91.3319C112.282 91.7211 112.013 92.0237 111.456 92.0237C111.156 92.0326 110.864 91.9279 110.639 91.7307L110.754 91.5433C110.847 91.6315 110.956 91.7003 111.076 91.7457C111.195 91.791 111.323 91.8121 111.451 91.8075C111.84 91.8075 112.042 91.6202 112.042 91.3271C112.042 91.0341 111.859 90.8467 111.283 90.8467H110.802L110.922 89.7034H112.167V89.9147H111.124L111.047 90.6353H111.34C112.022 90.6594 112.282 90.9332 112.282 91.3319Z" fill="#263238"/>
<path d="M114.285 91.3225C114.284 91.421 114.263 91.5182 114.223 91.6081C114.182 91.6979 114.123 91.7783 114.05 91.8442C113.977 91.9102 113.891 91.9602 113.797 91.9911C113.704 92.0221 113.605 92.0332 113.507 92.0239C112.902 92.0239 112.575 91.6011 112.575 90.8853C112.575 90.1695 112.998 89.7084 113.613 89.7084C113.801 89.7012 113.989 89.7443 114.155 89.8333L114.059 90.0206C113.925 89.9438 113.772 89.9071 113.617 89.9149C113.137 89.9149 112.81 90.2272 112.81 90.8469C112.81 90.8998 112.81 90.9622 112.81 91.0295C112.877 90.9044 112.978 90.8012 113.101 90.7322C113.225 90.6631 113.366 90.6312 113.507 90.6403C113.604 90.6281 113.702 90.6366 113.796 90.6652C113.89 90.6939 113.976 90.742 114.049 90.8065C114.123 90.8709 114.182 90.9503 114.223 91.0392C114.263 91.1282 114.285 91.2247 114.285 91.3225ZM114.055 91.3225C114.055 91.0199 113.834 90.8421 113.483 90.8421C113.413 90.8335 113.341 90.8392 113.273 90.8589C113.205 90.8786 113.142 90.9119 113.087 90.9568C113.032 91.0018 112.987 91.0573 112.954 91.1202C112.922 91.183 112.902 91.2519 112.897 91.3225C112.897 91.5723 113.103 91.8029 113.497 91.8029C113.566 91.814 113.636 91.8102 113.703 91.7916C113.769 91.7731 113.831 91.7404 113.884 91.6957C113.937 91.6509 113.98 91.5953 114.009 91.5325C114.039 91.4698 114.054 91.4014 114.055 91.3321V91.3225Z" fill="#263238"/>
<path d="M116.13 89.737V89.9051L115.169 92.0141H114.915L115.851 89.9484H114.684V90.3711H114.453V89.737H116.13Z" fill="#263238"/>
<path d="M118.124 91.3704C118.124 91.7739 117.783 92.0237 117.24 92.0237C116.697 92.0237 116.366 91.7739 116.366 91.3704C116.364 91.2411 116.406 91.1151 116.486 91.013C116.565 90.9109 116.677 90.8388 116.803 90.8083C116.698 90.7802 116.606 90.7174 116.541 90.6301C116.477 90.5429 116.443 90.4364 116.447 90.3279C116.447 89.958 116.759 89.7274 117.24 89.7274C117.72 89.7274 118.042 89.958 118.042 90.3279C118.04 90.4365 118.004 90.5416 117.938 90.628C117.873 90.7145 117.781 90.7776 117.677 90.8083C117.804 90.8377 117.917 90.9092 117.999 91.0113C118.08 91.1134 118.124 91.24 118.124 91.3704ZM117.884 91.3704C117.884 91.0918 117.643 90.914 117.24 90.914C116.836 90.914 116.601 91.0918 116.601 91.3704C116.601 91.649 116.836 91.8508 117.24 91.8508C117.643 91.8508 117.884 91.6586 117.884 91.3656V91.3704ZM117.235 90.7267C117.591 90.7267 117.802 90.5681 117.802 90.3183C117.802 90.0685 117.576 89.91 117.235 89.91C116.894 89.91 116.673 90.0637 116.673 90.3183C116.673 90.5729 116.884 90.7267 117.235 90.7267Z" fill="#263238"/>
<path d="M120.939 90.8466C120.939 91.6201 120.516 92.0236 119.896 92.0236C119.709 92.0302 119.523 91.9871 119.358 91.8987L119.454 91.7114C119.588 91.7882 119.742 91.8249 119.896 91.8171C120.377 91.8171 120.699 91.5 120.699 90.8851C120.703 90.8243 120.703 90.7633 120.699 90.7025C120.634 90.828 120.534 90.9317 120.411 91.0009C120.288 91.0701 120.148 91.1016 120.007 91.0917C119.911 91.1024 119.813 91.0928 119.721 91.0635C119.628 91.0342 119.543 90.9859 119.471 90.9216C119.398 90.8572 119.34 90.7784 119.3 90.6902C119.26 90.602 119.239 90.5064 119.238 90.4095C119.239 90.311 119.26 90.2137 119.301 90.1239C119.341 90.0341 119.4 89.9537 119.473 89.8877C119.546 89.8218 119.632 89.7718 119.726 89.7409C119.819 89.7099 119.918 89.6988 120.016 89.7081C120.598 89.7081 120.939 90.1308 120.939 90.8466ZM120.617 90.3951C120.617 90.1453 120.41 89.9147 120.016 89.9147C119.947 89.9034 119.876 89.9075 119.809 89.9266C119.741 89.9456 119.679 89.9792 119.626 90.025C119.573 90.0708 119.53 90.1276 119.501 90.1916C119.473 90.2555 119.458 90.325 119.459 90.3951C119.459 90.6977 119.68 90.8755 120.031 90.8755C120.17 90.8861 120.307 90.8417 120.413 90.7517C120.519 90.6618 120.585 90.5336 120.598 90.3951H120.617Z" fill="#263238"/>
<path d="M121.9 89.737V92.0141H121.664V89.9484H121.126V89.737H121.9Z" fill="#263238"/>
<path d="M122.438 90.8657C122.438 90.1403 122.822 89.7079 123.345 89.7079C123.869 89.7079 124.253 90.1403 124.253 90.8657C124.253 91.5911 123.874 92.0235 123.345 92.0235C122.817 92.0235 122.438 91.5911 122.438 90.8657ZM124.013 90.8657C124.013 90.2604 123.744 89.9049 123.345 89.9049C122.947 89.9049 122.678 90.2412 122.678 90.8657C122.678 91.4902 122.952 91.8265 123.345 91.8265C123.739 91.8265 124.013 91.471 124.013 90.8657Z" fill="#263238"/>
<path d="M125.214 89.737V92.0141H124.979V89.9484H124.441V89.737H125.214Z" fill="#263238"/>
<path d="M127.237 89.737V92.0141H127.001V89.9484H126.463V89.737H127.237Z" fill="#263238"/>
<path d="M128.404 89.737V92.0141H128.173V89.9484H127.635V89.737H128.404Z" fill="#263238"/>
<path d="M130.498 91.793V92.0043H128.904V91.8362L129.864 90.909C130.119 90.6592 130.172 90.5055 130.172 90.3518C130.172 90.0875 129.984 89.9242 129.639 89.9242C129.523 89.9168 129.407 89.9358 129.299 89.9799C129.192 90.0241 129.096 90.0921 129.019 90.1788L128.851 90.0347C128.954 89.925 129.079 89.839 129.218 89.7826C129.358 89.7262 129.508 89.7008 129.658 89.708C130.138 89.708 130.412 89.9434 130.412 90.3229C130.405 90.4615 130.367 90.5968 130.303 90.7195C130.238 90.8422 130.147 90.9495 130.037 91.0339L129.245 91.793H130.498Z" fill="#263238"/>
<path d="M131.421 89.737V92.0141H131.166V89.9484H130.633V89.737H131.421Z" fill="#263238"/>
<path d="M93.1139 89.2086V88.8627C93.1139 88.7022 93.0501 88.5482 92.9366 88.4347C92.8231 88.3212 92.6691 88.2574 92.5086 88.2574H86.3739C86.2133 88.2574 86.0594 88.3212 85.9458 88.4347C85.8323 88.5482 85.7686 88.7022 85.7686 88.8627V89.2086H93.1139Z" fill="#263238"/>
<path d="M85.7686 89.6839V92.23C85.7686 92.3905 85.8323 92.5445 85.9458 92.658C86.0594 92.7715 86.2133 92.8353 86.3739 92.8353H92.5086C92.6691 92.8353 92.8231 92.7715 92.9366 92.658C93.0501 92.5445 93.1139 92.3905 93.1139 92.23V89.6839H85.7686Z" fill="#263238"/>
<path d="M85.8597 103.092C85.8597 102.367 86.2393 101.939 86.7677 101.939C87.2961 101.939 87.6757 102.367 87.6757 103.092C87.6757 103.817 87.2913 104.25 86.7677 104.25C86.2441 104.25 85.8597 103.817 85.8597 103.092ZM87.4355 103.092C87.4355 102.487 87.1616 102.131 86.7677 102.131C86.3738 102.131 86.0999 102.467 86.0999 103.092C86.0999 103.716 86.369 104.053 86.7677 104.053C87.1664 104.053 87.4499 103.702 87.4499 103.092H87.4355Z" fill="#263238"/>
<path d="M89.7559 103.597C89.7559 104 89.4148 104.25 88.872 104.25C88.3291 104.25 87.9976 104 87.9976 103.597C87.9955 103.468 88.0378 103.342 88.1174 103.24C88.197 103.139 88.3091 103.068 88.4348 103.039C88.3329 103.006 88.2438 102.942 88.1801 102.856C88.1163 102.77 88.0811 102.666 88.0793 102.559C88.0793 102.189 88.3916 101.958 88.872 101.958C89.3524 101.958 89.6742 102.189 89.6742 102.559C89.6714 102.666 89.6352 102.771 89.5706 102.857C89.5061 102.943 89.4164 103.007 89.3139 103.039C89.4401 103.068 89.5528 103.139 89.6332 103.24C89.7136 103.341 89.7569 103.467 89.7559 103.597ZM89.5157 103.597C89.5157 103.318 89.2755 103.145 88.872 103.145C88.4684 103.145 88.233 103.318 88.233 103.597C88.233 103.875 88.4732 104.077 88.872 104.077C89.2707 104.077 89.5157 103.875 89.5157 103.592V103.597ZM88.8912 102.953C89.2467 102.953 89.4581 102.794 89.4581 102.549C89.4581 102.304 89.2323 102.136 88.8912 102.136C88.5501 102.136 88.3291 102.29 88.3291 102.545C88.3291 102.799 88.5213 102.953 88.8912 102.953Z" fill="#263238"/>
<path d="M90.9043 101.497H91.1156L90.0395 104.552H89.8522L90.9043 101.497Z" fill="#263238"/>
<path d="M92.7342 104.019V104.23H91.1393V104.062L92.1001 103.14C92.3547 102.885 92.4027 102.732 92.4027 102.578C92.4027 102.314 92.2202 102.15 91.8743 102.15C91.7577 102.143 91.641 102.162 91.5328 102.206C91.4246 102.25 91.3279 102.318 91.2498 102.405L91.0864 102.261C91.1889 102.151 91.3144 102.065 91.4539 102.01C91.5934 101.954 91.7436 101.93 91.8935 101.939C92.3739 101.939 92.6429 102.17 92.6429 102.549C92.638 102.688 92.6023 102.823 92.5383 102.946C92.4743 103.069 92.3837 103.177 92.273 103.26L91.4996 104.019H92.7342Z" fill="#263238"/>
<path d="M94.5551 103.558C94.5551 103.947 94.2861 104.25 93.7288 104.25C93.4293 104.259 93.1376 104.154 92.9121 103.957L93.0274 103.77C93.1201 103.858 93.2294 103.927 93.349 103.972C93.4687 104.017 93.5961 104.038 93.724 104.034C94.1131 104.034 94.3149 103.846 94.3149 103.553C94.3149 103.26 94.1371 103.073 93.5559 103.073H93.0755L93.1907 101.934H94.435V102.141H93.3925L93.3157 102.866H93.6087C94.2957 102.89 94.5551 103.159 94.5551 103.558Z" fill="#263238"/>
<path d="M86.9215 100.493V100.623H85.9222V99.2105H86.883V99.345H86.0664V99.8254H86.7966V99.9552H86.0664V100.479L86.9215 100.493Z" fill="#263238"/>
<path d="M88.1368 100.623L87.6852 99.9984L87.2048 100.623H87.0319L87.5699 99.8975L87.0895 99.2105H87.2576L87.6852 99.787L88.108 99.2105H88.2665L87.7861 99.8927L88.3241 100.623H88.1368Z" fill="#263238"/>
<path d="M89.6356 99.6957C89.6356 99.9936 89.4146 100.176 89.0591 100.176H88.6796V100.623H88.5306V99.2105H89.0591C89.4146 99.2105 89.6356 99.3931 89.6356 99.6957ZM89.4866 99.6957C89.4866 99.4699 89.3377 99.3402 89.0543 99.3402H88.6796V100.046H89.0543C89.3377 100.046 89.4866 99.9167 89.4866 99.6957Z" fill="#263238"/>
<path d="M90.51 99.2105H91.0817C91.269 99.2105 91.4486 99.2849 91.581 99.4174C91.7135 99.5498 91.7879 99.7294 91.7879 99.9167C91.7879 100.104 91.7135 100.284 91.581 100.416C91.4486 100.549 91.269 100.623 91.0817 100.623H90.51V99.2105ZM91.0721 100.493C91.225 100.493 91.3716 100.432 91.4797 100.324C91.5878 100.216 91.6486 100.07 91.6486 99.9167C91.6486 99.7638 91.5878 99.6172 91.4797 99.5091C91.3716 99.401 91.225 99.3402 91.0721 99.3402H90.6589V100.493H91.0721Z" fill="#263238"/>
<path d="M92.9456 99.9647V100.623H92.8063V100.455C92.7673 100.515 92.7128 100.563 92.6484 100.594C92.5841 100.626 92.5125 100.639 92.4412 100.632C92.2058 100.632 92.0569 100.508 92.0569 100.325C92.0569 100.142 92.1626 100.022 92.4652 100.022H92.8015V99.9599C92.8057 99.9204 92.8007 99.8805 92.7869 99.8432C92.7732 99.8059 92.7511 99.7723 92.7223 99.7449C92.6936 99.7175 92.6589 99.6971 92.621 99.6852C92.583 99.6734 92.5429 99.6704 92.5037 99.6765C92.3741 99.6743 92.2479 99.7186 92.1482 99.8014L92.0857 99.6957C92.2085 99.5984 92.3615 99.5474 92.5181 99.5516C92.5749 99.5431 92.633 99.5478 92.6877 99.5653C92.7424 99.5829 92.7924 99.6128 92.8337 99.6527C92.875 99.6927 92.9066 99.7416 92.926 99.7957C92.9454 99.8498 92.9522 99.9076 92.9456 99.9647ZM92.8015 100.301V100.128H92.47C92.2635 100.128 92.1962 100.21 92.1962 100.32C92.1962 100.431 92.2971 100.517 92.4652 100.517C92.5365 100.522 92.6075 100.504 92.6679 100.466C92.7284 100.428 92.7752 100.372 92.8015 100.306V100.301Z" fill="#263238"/>
<path d="M93.8922 100.556C93.8311 100.608 93.752 100.636 93.6712 100.632C93.6296 100.637 93.5874 100.632 93.5479 100.618C93.5083 100.604 93.4723 100.582 93.4424 100.553C93.4125 100.523 93.3896 100.488 93.3751 100.448C93.3607 100.409 93.3552 100.367 93.359 100.325V99.6813H93.1716V99.5612H93.359V99.345H93.5031V99.5756H93.825V99.6957H93.5031V100.306C93.4993 100.331 93.5014 100.357 93.5091 100.381C93.5168 100.406 93.5299 100.428 93.5475 100.446C93.5651 100.465 93.5867 100.479 93.6106 100.488C93.6346 100.497 93.6602 100.5 93.6857 100.498C93.743 100.499 93.799 100.48 93.8442 100.445L93.8922 100.556Z" fill="#263238"/>
<path d="M95.0403 100.138H94.1755C94.1829 100.241 94.231 100.338 94.3093 100.406C94.3876 100.475 94.4897 100.509 94.5935 100.503C94.6549 100.505 94.716 100.494 94.7726 100.47C94.8291 100.446 94.8795 100.41 94.9202 100.363L95.0018 100.46C94.9494 100.516 94.8854 100.561 94.8141 100.591C94.7428 100.621 94.6659 100.635 94.5887 100.633C94.5159 100.637 94.443 100.625 94.3748 100.6C94.3066 100.574 94.2445 100.534 94.1925 100.483C94.1405 100.432 94.0997 100.371 94.0728 100.303C94.0459 100.235 94.0334 100.163 94.0362 100.09C94.0323 100.02 94.0427 99.9503 94.0668 99.8848C94.0909 99.8193 94.1282 99.7595 94.1764 99.709C94.2246 99.6586 94.2827 99.6186 94.347 99.5915C94.4113 99.5644 94.4805 99.5508 94.5502 99.5516C94.6213 99.5461 94.6926 99.5564 94.7591 99.5819C94.8256 99.6073 94.8857 99.6472 94.9349 99.6987C94.9841 99.7502 95.0212 99.812 95.0436 99.8796C95.066 99.9472 95.073 100.019 95.0643 100.09L95.0403 100.138ZM94.1515 100.027H94.9057C94.8953 99.9345 94.851 99.8489 94.7815 99.7868C94.7119 99.7247 94.6219 99.6903 94.5286 99.6903C94.4354 99.6903 94.3453 99.7247 94.2758 99.7868C94.2062 99.8489 94.162 99.9345 94.1515 100.027Z" fill="#263238"/>
<path d="M112.69 101.958V104.231H112.46V102.165H111.922V101.958H112.69Z" fill="#263238"/>
<path d="M114.785 104.019V104.231H113.19V104.062L114.151 103.14C114.405 102.886 114.458 102.732 114.458 102.578C114.458 102.314 114.271 102.15 113.925 102.15C113.809 102.143 113.693 102.162 113.586 102.206C113.478 102.25 113.382 102.318 113.305 102.405L113.137 102.261C113.24 102.152 113.365 102.066 113.505 102.011C113.644 101.955 113.794 101.931 113.944 101.939C114.424 101.939 114.698 102.17 114.698 102.549C114.691 102.688 114.654 102.823 114.589 102.946C114.524 103.069 114.434 103.176 114.324 103.26L113.55 104.019H114.785Z" fill="#263238"/>
<path d="M116.581 103.577C116.581 103.957 116.303 104.25 115.755 104.25C115.456 104.259 115.164 104.155 114.938 103.957L115.054 103.77C115.147 103.858 115.257 103.927 115.378 103.973C115.498 104.018 115.627 104.039 115.755 104.034C116.135 104.034 116.341 103.861 116.341 103.577C116.341 103.294 116.149 103.126 115.726 103.126H115.563V102.953L116.192 102.165H115.03V101.958H116.471V102.122L115.827 102.929C116.336 102.958 116.581 103.212 116.581 103.577Z" fill="#263238"/>
<path d="M111.998 99.9164C111.997 99.8198 112.015 99.7239 112.052 99.6345C112.089 99.5452 112.144 99.4644 112.213 99.3969C112.283 99.3295 112.365 99.2769 112.455 99.2423C112.545 99.2077 112.642 99.1919 112.738 99.1958C112.834 99.1927 112.929 99.2094 113.017 99.245C113.106 99.2806 113.186 99.3342 113.252 99.4024L113.161 99.4985C113.106 99.4436 113.041 99.4004 112.969 99.3715C112.898 99.3426 112.821 99.3286 112.743 99.3304C112.662 99.323 112.58 99.3326 112.503 99.3586C112.426 99.3846 112.355 99.4264 112.295 99.4813C112.235 99.5362 112.187 99.603 112.154 99.6776C112.121 99.7521 112.104 99.8326 112.104 99.914C112.104 99.9955 112.121 100.076 112.154 100.151C112.187 100.225 112.235 100.292 112.295 100.347C112.355 100.402 112.426 100.443 112.503 100.469C112.58 100.495 112.662 100.505 112.743 100.498C112.821 100.501 112.898 100.487 112.97 100.458C113.042 100.429 113.107 100.385 113.161 100.33L113.252 100.426C113.186 100.495 113.105 100.55 113.015 100.585C112.926 100.621 112.83 100.637 112.733 100.632C112.638 100.636 112.542 100.62 112.452 100.586C112.362 100.552 112.281 100.5 112.212 100.433C112.143 100.366 112.089 100.285 112.052 100.196C112.015 100.108 111.997 100.012 111.998 99.9164Z" fill="#263238"/>
<path d="M115.496 99.2105L115.015 100.623H114.857L114.444 99.4171L114.031 100.623H113.872L113.392 99.2105H113.545L113.954 100.426L114.377 99.2105H114.516L114.929 100.431L115.342 99.2105H115.496Z" fill="#263238"/>
<path d="M100.089 116.438H98.8211L98.5473 117.048H98.2975L99.3352 114.776H99.5754L100.613 117.048H100.358L100.089 116.438ZM99.9981 116.246L99.4601 115.025L98.9124 116.246H99.9981Z" fill="#263238"/>
<path d="M100.752 116.193C100.748 116.077 100.768 115.961 100.811 115.853C100.854 115.745 100.919 115.647 101.001 115.565C101.084 115.484 101.182 115.42 101.291 115.378C101.399 115.336 101.515 115.318 101.631 115.323C101.763 115.315 101.894 115.343 102.012 115.403C102.129 115.463 102.228 115.553 102.299 115.664L102.131 115.779C102.077 115.702 102.005 115.638 101.922 115.594C101.838 115.549 101.745 115.526 101.651 115.525C101.473 115.525 101.304 115.595 101.178 115.72C101.053 115.846 100.983 116.016 100.983 116.193C100.983 116.37 101.053 116.54 101.178 116.665C101.304 116.79 101.473 116.86 101.651 116.86C101.745 116.86 101.837 116.837 101.921 116.793C102.004 116.75 102.076 116.687 102.131 116.611L102.299 116.726C102.227 116.835 102.127 116.924 102.01 116.983C101.893 117.042 101.762 117.069 101.631 117.062C101.515 117.068 101.399 117.049 101.291 117.007C101.182 116.965 101.084 116.902 101.001 116.82C100.919 116.738 100.854 116.64 100.811 116.532C100.768 116.424 100.748 116.309 100.752 116.193Z" fill="#263238"/>
<path d="M103.668 116.942C103.567 117.025 103.439 117.068 103.308 117.062C103.244 117.066 103.179 117.057 103.119 117.034C103.059 117.012 103.004 116.976 102.959 116.931C102.913 116.885 102.878 116.831 102.855 116.77C102.833 116.71 102.823 116.646 102.828 116.582V115.534H102.525V115.337H102.823V114.963H103.053V115.337H103.577V115.534H103.053V116.553C103.047 116.594 103.051 116.636 103.063 116.676C103.076 116.715 103.097 116.752 103.126 116.782C103.155 116.812 103.19 116.835 103.229 116.849C103.268 116.864 103.31 116.869 103.351 116.865C103.444 116.867 103.534 116.836 103.606 116.779L103.668 116.942Z" fill="#263238"/>
<path d="M104.038 114.8C104.038 114.755 104.056 114.712 104.087 114.681C104.119 114.649 104.162 114.632 104.206 114.632C104.251 114.632 104.294 114.649 104.325 114.681C104.357 114.712 104.374 114.755 104.374 114.8C104.374 114.844 104.357 114.887 104.325 114.919C104.294 114.95 104.251 114.968 104.206 114.968C104.162 114.968 104.119 114.95 104.087 114.919C104.056 114.887 104.038 114.844 104.038 114.8ZM104.091 115.338H104.322V117.048H104.091V115.338Z" fill="#263238"/>
<path d="M104.788 116.192C104.788 116.021 104.838 115.853 104.934 115.71C105.029 115.567 105.165 115.456 105.323 115.39C105.482 115.324 105.656 115.306 105.825 115.339C105.994 115.372 106.148 115.455 106.27 115.576C106.392 115.697 106.475 115.852 106.509 116.02C106.543 116.188 106.527 116.363 106.462 116.522C106.397 116.681 106.286 116.817 106.144 116.913C106.001 117.009 105.834 117.061 105.662 117.062C105.546 117.066 105.431 117.046 105.324 117.004C105.216 116.962 105.118 116.898 105.037 116.817C104.955 116.735 104.89 116.638 104.847 116.53C104.805 116.423 104.784 116.308 104.788 116.192ZM106.291 116.192C106.285 116.069 106.242 115.949 106.168 115.849C106.094 115.749 105.993 115.673 105.876 115.631C105.76 115.588 105.633 115.58 105.512 115.609C105.391 115.637 105.282 115.701 105.197 115.791C105.111 115.882 105.055 115.995 105.033 116.117C105.012 116.24 105.027 116.365 105.077 116.479C105.126 116.593 105.208 116.69 105.312 116.758C105.416 116.825 105.538 116.861 105.662 116.86C105.748 116.861 105.834 116.844 105.913 116.81C105.992 116.777 106.064 116.727 106.123 116.664C106.182 116.601 106.227 116.527 106.256 116.446C106.285 116.365 106.297 116.278 106.291 116.192Z" fill="#263238"/>
<path d="M108.588 116.058V117.048H108.357V116.087C108.367 116.016 108.36 115.944 108.338 115.875C108.316 115.807 108.279 115.745 108.23 115.693C108.18 115.641 108.12 115.6 108.053 115.575C107.986 115.549 107.914 115.538 107.843 115.544C107.762 115.538 107.68 115.55 107.603 115.579C107.527 115.608 107.458 115.653 107.401 115.712C107.344 115.771 107.301 115.841 107.275 115.918C107.248 115.996 107.239 116.078 107.247 116.159V117.057H107.017V115.347H107.238V115.679C107.307 115.571 107.403 115.484 107.517 115.426C107.631 115.367 107.759 115.34 107.886 115.347C107.981 115.341 108.076 115.355 108.165 115.388C108.253 115.422 108.334 115.474 108.4 115.541C108.467 115.609 108.518 115.69 108.55 115.779C108.583 115.868 108.595 115.964 108.588 116.058Z" fill="#263238"/>
<path d="M110.336 114.982V115.875H111.508V116.082H110.336V117.043H110.096V114.771H111.652V114.977L110.336 114.982Z" fill="#263238"/>
<path d="M112.017 114.8C112.017 114.755 112.035 114.712 112.067 114.681C112.098 114.649 112.141 114.632 112.186 114.632C112.23 114.632 112.273 114.649 112.304 114.681C112.336 114.712 112.354 114.755 112.354 114.8C112.354 114.844 112.336 114.887 112.304 114.919C112.273 114.95 112.23 114.968 112.186 114.968C112.141 114.968 112.098 114.95 112.067 114.919C112.035 114.887 112.017 114.844 112.017 114.8ZM112.065 115.338H112.296V117.048H112.065V115.338Z" fill="#263238"/>
<path d="M114.521 115.338V116.841C114.539 116.957 114.529 117.075 114.493 117.187C114.456 117.298 114.394 117.399 114.311 117.482C114.228 117.565 114.127 117.627 114.016 117.664C113.904 117.7 113.786 117.71 113.67 117.691C113.382 117.704 113.099 117.612 112.873 117.432L112.988 117.254C113.177 117.41 113.416 117.494 113.661 117.49C114.093 117.49 114.29 117.288 114.29 116.87V116.639C114.217 116.747 114.118 116.834 114.002 116.892C113.886 116.95 113.757 116.977 113.627 116.971C113.513 116.98 113.398 116.965 113.29 116.927C113.182 116.889 113.083 116.83 112.999 116.752C112.915 116.674 112.848 116.58 112.802 116.475C112.756 116.37 112.733 116.257 112.733 116.142C112.733 116.028 112.756 115.915 112.802 115.81C112.848 115.705 112.915 115.61 112.999 115.533C113.083 115.455 113.182 115.395 113.29 115.357C113.398 115.32 113.513 115.305 113.627 115.314C113.759 115.308 113.89 115.337 114.008 115.397C114.125 115.456 114.226 115.545 114.3 115.655V115.328L114.521 115.338ZM114.3 116.149C114.303 116.02 114.269 115.893 114.2 115.784C114.131 115.675 114.031 115.589 113.913 115.537C113.795 115.485 113.664 115.469 113.537 115.492C113.41 115.515 113.292 115.575 113.2 115.665C113.107 115.755 113.043 115.87 113.017 115.996C112.99 116.123 113.002 116.254 113.05 116.374C113.099 116.493 113.182 116.596 113.289 116.668C113.396 116.74 113.522 116.779 113.651 116.779C113.735 116.784 113.819 116.772 113.899 116.743C113.978 116.714 114.05 116.669 114.111 116.611C114.172 116.553 114.22 116.483 114.253 116.405C114.285 116.327 114.301 116.243 114.3 116.159V116.149Z" fill="#263238"/>
<path d="M116.706 115.338V117.048H116.485V116.736C116.422 116.84 116.331 116.926 116.223 116.983C116.115 117.041 115.993 117.068 115.87 117.062C115.772 117.071 115.673 117.059 115.581 117.025C115.488 116.991 115.404 116.937 115.335 116.866C115.266 116.796 115.214 116.711 115.182 116.618C115.15 116.524 115.139 116.425 115.15 116.327V115.338H115.38V116.298C115.37 116.37 115.376 116.443 115.398 116.511C115.419 116.58 115.456 116.643 115.506 116.696C115.555 116.749 115.616 116.789 115.683 116.815C115.75 116.841 115.823 116.852 115.894 116.846C115.975 116.85 116.056 116.836 116.131 116.806C116.206 116.776 116.273 116.73 116.329 116.671C116.384 116.612 116.426 116.541 116.451 116.465C116.477 116.388 116.485 116.307 116.476 116.226V115.328L116.706 115.338Z" fill="#263238"/>
<path d="M118.196 115.323V115.549H118.138C118.056 115.545 117.975 115.56 117.899 115.591C117.824 115.623 117.756 115.67 117.701 115.731C117.646 115.791 117.605 115.863 117.581 115.941C117.557 116.02 117.55 116.102 117.562 116.183V117.053H117.331V115.342H117.552V115.679C117.612 115.562 117.705 115.466 117.819 115.403C117.934 115.339 118.065 115.312 118.196 115.323Z" fill="#263238"/>
<path d="M120.117 116.265H118.676C118.681 116.348 118.702 116.43 118.739 116.505C118.775 116.58 118.826 116.647 118.889 116.702C118.951 116.758 119.024 116.8 119.103 116.827C119.182 116.854 119.265 116.866 119.349 116.86C119.447 116.863 119.545 116.844 119.635 116.805C119.726 116.766 119.807 116.708 119.872 116.635L120.002 116.784C119.879 116.912 119.721 117.002 119.548 117.041C119.375 117.081 119.194 117.068 119.027 117.005C118.861 116.942 118.717 116.831 118.614 116.687C118.51 116.542 118.452 116.37 118.445 116.193C118.439 116.08 118.457 115.967 118.496 115.861C118.536 115.755 118.596 115.658 118.675 115.577C118.753 115.495 118.847 115.431 118.952 115.387C119.056 115.343 119.168 115.322 119.281 115.323C119.394 115.321 119.506 115.342 119.61 115.386C119.715 115.429 119.809 115.494 119.886 115.576C119.964 115.657 120.024 115.755 120.062 115.861C120.1 115.967 120.116 116.08 120.108 116.193C120.108 116.193 120.117 116.236 120.117 116.265ZM118.676 116.092H119.887C119.887 115.931 119.823 115.777 119.709 115.664C119.596 115.55 119.442 115.486 119.281 115.486C119.121 115.486 118.967 115.55 118.853 115.664C118.74 115.777 118.676 115.931 118.676 116.092Z" fill="#263238"/>
<path d="M101.108 126.161V127.16H100.219V126.199C99.4251 126.175 98.6542 125.927 97.9949 125.483L98.4753 124.398C98.9885 124.756 99.5862 124.975 100.21 125.032V123.543C99.2151 123.298 98.1102 122.971 98.1102 121.693C98.1102 120.732 98.7971 119.935 100.21 119.771V118.782H101.098V119.743C101.737 119.779 102.358 119.967 102.909 120.29L102.463 121.386C102.044 121.137 101.58 120.974 101.098 120.905V122.423C102.088 122.654 103.178 122.985 103.178 124.244C103.188 125.19 102.511 125.993 101.108 126.161ZM100.219 122.222V120.963C99.7387 121.069 99.5562 121.328 99.5562 121.621C99.5562 121.914 99.8252 122.097 100.219 122.222ZM101.752 124.369C101.752 124.057 101.492 123.889 101.108 123.754V124.984C101.555 124.888 101.752 124.657 101.752 124.369Z" fill="#263238"/>
<path d="M108.448 124.912V126.094H103.731V125.157L106.133 122.88C106.69 122.351 106.786 122.034 106.786 121.727C106.786 121.247 106.445 120.953 105.787 120.953C105.537 120.944 105.288 120.996 105.063 121.105C104.837 121.213 104.642 121.376 104.495 121.578L103.443 120.901C103.727 120.517 104.102 120.209 104.535 120.006C104.968 119.803 105.444 119.711 105.921 119.738C107.315 119.738 108.242 120.454 108.242 121.588C108.242 122.193 108.069 122.745 107.194 123.557L105.753 124.912H108.448Z" fill="#263238"/>
<path d="M109.029 122.971C109.029 120.91 110.173 119.738 111.705 119.738C113.238 119.738 114.381 120.91 114.381 122.971C114.381 125.032 113.247 126.199 111.705 126.199C110.163 126.199 109.029 125.032 109.029 122.971ZM112.93 122.971C112.93 121.53 112.45 120.963 111.705 120.963C110.961 120.963 110.495 121.549 110.495 122.971C110.495 124.393 110.975 124.974 111.705 124.974C112.435 124.974 112.911 124.388 112.911 122.971H112.93Z" fill="#263238"/>
<path d="M115.088 122.971C115.088 120.91 116.231 119.738 117.763 119.738C119.296 119.738 120.439 120.91 120.439 122.971C120.439 125.032 119.305 126.199 117.763 126.199C116.221 126.199 115.088 125.032 115.088 122.971ZM118.984 122.971C118.984 121.53 118.503 120.963 117.763 120.963C117.024 120.963 116.548 121.549 116.548 122.971C116.548 124.393 117.028 124.974 117.763 124.974C118.498 124.974 118.984 124.388 118.984 122.971Z" fill="#263238"/>
<path d="M119.228 141.995H99.3109C98.0754 141.994 96.8909 141.502 96.0173 140.629C95.1436 139.755 94.6523 138.571 94.651 137.335C94.651 136.099 95.1418 134.913 96.0156 134.038C96.8893 133.164 98.0746 132.672 99.3109 132.67H119.228C119.841 132.67 120.447 132.791 121.013 133.026C121.578 133.26 122.092 133.604 122.525 134.037C122.958 134.47 123.301 134.985 123.535 135.55C123.769 136.116 123.889 136.723 123.888 137.335C123.888 138.571 123.397 139.756 122.523 140.63C121.649 141.504 120.464 141.995 119.228 141.995Z" fill="#263238"/>
<path d="M102.88 136.816C102.88 137.402 102.458 137.753 101.761 137.753H101.021V138.618H100.733V135.88H101.761C102.458 135.899 102.88 136.249 102.88 136.816ZM102.587 136.816C102.587 136.379 102.299 136.129 101.751 136.129H101.021V137.499H101.751C102.299 137.518 102.587 137.268 102.587 136.816Z" fill="white"/>
<path d="M104.98 137.359V138.637H104.715V138.315C104.638 138.43 104.531 138.522 104.406 138.582C104.281 138.642 104.143 138.668 104.004 138.656C103.524 138.656 103.255 138.416 103.255 138.056C103.255 137.695 103.457 137.474 104.048 137.474H104.701V137.35C104.701 136.999 104.504 136.807 104.12 136.807C103.87 136.803 103.626 136.888 103.433 137.047L103.308 136.84C103.547 136.652 103.844 136.554 104.149 136.562C104.258 136.546 104.371 136.555 104.476 136.589C104.582 136.623 104.679 136.681 104.759 136.758C104.839 136.834 104.901 136.929 104.939 137.033C104.977 137.137 104.991 137.249 104.98 137.359ZM104.701 138.017V137.681H104.057C103.659 137.681 103.529 137.84 103.529 138.051C103.529 138.262 103.721 138.44 104.048 138.44C104.188 138.449 104.327 138.413 104.444 138.337C104.562 138.26 104.652 138.149 104.701 138.017Z" fill="white"/>
<path d="M107.425 136.576L106.397 138.882C106.224 139.285 106.008 139.415 105.715 139.415C105.532 139.415 105.357 139.344 105.225 139.218L105.355 139.012C105.403 139.062 105.461 139.102 105.526 139.13C105.59 139.157 105.659 139.171 105.729 139.17C105.917 139.17 106.042 139.084 106.157 138.824L106.248 138.623L105.326 136.566H105.619L106.392 138.32L107.146 136.576H107.425Z" fill="white"/>
<path d="M109.774 138.656V139.108H109.577V138.661C109.232 138.658 108.9 138.532 108.64 138.306L108.756 138.08C108.983 138.282 109.273 138.399 109.577 138.411V137.383C109.145 137.278 108.708 137.143 108.708 136.624C108.708 136.249 108.977 135.923 109.577 135.88V135.428H109.774V135.856C110.056 135.86 110.33 135.944 110.567 136.096L110.471 136.326C110.261 136.195 110.021 136.117 109.774 136.101V137.138C110.216 137.244 110.682 137.369 110.682 137.892C110.682 138.291 110.394 138.623 109.774 138.656ZM109.577 137.109V136.149C109.174 136.182 108.991 136.389 108.991 136.629C108.991 136.869 109.255 137.023 109.577 137.109ZM110.394 137.931C110.394 137.619 110.11 137.513 109.774 137.45V138.411C110.202 138.378 110.394 138.181 110.394 137.931Z" fill="white"/>
<path d="M112.94 138.387V138.637H111.018V138.44L112.157 137.321C112.464 137.018 112.522 136.84 112.522 136.643C112.522 136.326 112.301 136.134 111.883 136.134C111.744 136.127 111.605 136.151 111.475 136.203C111.346 136.255 111.229 136.335 111.134 136.437L110.932 136.264C111.055 136.134 111.204 136.032 111.37 135.964C111.536 135.897 111.714 135.867 111.893 135.875C112.445 135.875 112.801 136.158 112.801 136.614C112.794 136.782 112.75 136.945 112.672 137.093C112.594 137.241 112.483 137.37 112.349 137.47L111.417 138.387H112.94Z" fill="white"/>
<path d="M113.276 137.268C113.276 136.393 113.733 135.875 114.367 135.875C115.001 135.875 115.462 136.393 115.462 137.268C115.462 138.142 114.982 138.661 114.367 138.661C113.752 138.661 113.276 138.142 113.276 137.268ZM115.174 137.268C115.174 136.538 114.847 136.134 114.367 136.134C113.886 136.134 113.56 136.538 113.56 137.268C113.56 137.998 113.891 138.401 114.367 138.401C114.842 138.401 115.174 137.998 115.174 137.268Z" fill="white"/>
<path d="M115.866 137.268C115.866 136.393 116.346 135.875 116.961 135.875C117.576 135.875 118.056 136.393 118.056 137.268C118.056 138.142 117.576 138.661 116.961 138.661C116.346 138.661 115.866 138.142 115.866 137.268ZM117.787 137.268C117.787 136.538 117.461 136.134 116.985 136.134C116.509 136.134 116.178 136.538 116.178 137.268C116.178 137.998 116.505 138.401 116.985 138.401C117.465 138.401 117.763 137.998 117.763 137.268H117.787Z" fill="white"/>
<path d="M79.1345 127.324C79.8551 138.397 74.7244 150.729 74.7244 150.729L47.0101 142.927L42.1772 141.563C46.9813 134.89 49.268 121.746 48.0141 111.11C47.918 110.308 47.8604 109.553 47.8172 108.833C47.3368 100.061 50.983 97.4954 54.0624 93.6186C57.4252 89.4199 64.9098 73.5666 64.9098 69.8147C64.9098 66.0628 74.3017 56.8775 72.2119 46.4528C72.2119 46.4528 75.0511 44.6897 77.9047 46.1357C79.2018 46.7891 80.494 48.1006 81.5365 50.5314C83.9817 56.2434 80.5469 72.3897 77.626 76.3482L72.0005 99.638C72.0005 99.638 73.8981 102.91 75.7621 108.847C77.6149 114.851 78.747 121.053 79.1345 127.324Z" fill="white"/>
<path opacity="0.4" d="M47.8168 108.833C49.3877 113.133 51.0547 116.039 50.9106 122.063C50.7664 128.088 47.5478 137.359 48.4653 142.178C47.9411 142.332 47.4518 142.587 47.0241 142.927L42.1913 141.563C46.9953 134.89 49.282 121.746 48.0282 111.11C47.9177 110.308 47.86 109.554 47.8168 108.833Z" fill="#E39292"/>
<path opacity="0.4" d="M77.6259 76.3481L72.0004 99.638C72.0004 99.638 73.898 102.91 75.762 108.847C71.9524 102.708 68.7145 100.873 68.7145 100.873C71.251 97.8317 73.2062 75.5891 73.2062 75.5891C73.2062 75.5891 81.1569 66.2453 80.4122 56.4691C80.1733 52.9066 79.3251 49.4115 77.9046 46.1357C79.2016 46.789 80.4939 48.1005 81.5364 50.5314C83.9816 56.2433 80.5468 72.3896 77.6259 76.3481Z" fill="#E39292"/>
<path d="M42.1772 141.563C46.9813 134.89 49.268 121.746 48.0189 111.11C46.7699 100.474 50.7284 97.8124 54.0672 93.6137C57.406 89.415 64.9098 73.5666 64.9098 69.8098C64.9098 66.0531 74.2969 56.8822 72.2119 46.4527C72.2119 46.4527 78.2025 42.7392 81.5365 50.5313C83.9817 56.2481 80.5469 72.3896 77.626 76.3529L72.0054 99.6379C72.0054 99.6379 78.0056 109.991 79.1345 127.323C79.8551 138.397 74.7244 150.733 74.7244 150.733" stroke="#263238" stroke-width="0.480401" stroke-linecap="round" stroke-linejoin="round"/>
<path d="M60.701 159.592C60.701 159.592 67.0087 163.474 70.6886 169.613" stroke="#263238" stroke-width="0.480401" stroke-linecap="round" stroke-linejoin="round"/>
<path d="M78.4182 166.937C78.4182 166.937 72.9849 167.711 68.0752 161.835C64.9285 158.074 55.3734 156.373 53.1827 146.535" stroke="#263238" stroke-width="0.480401" stroke-linecap="round" stroke-linejoin="round"/>
<path opacity="0.2" d="M157.387 196.03C143.479 189.377 151.901 184.044 132.766 175.786C113.632 167.528 113.44 160.471 115.746 144.243C118.051 128.015 116.226 110.754 121.789 109.289C127.352 107.824 117.437 85.442 123.922 77.5298L155.84 139.617L157.387 196.03Z" fill="black" fill-opacity="0.7"/>
<path d="M209.208 195.382C208.554 193.513 207.891 191.471 207.377 189.617C206.714 187.215 206.196 185.294 204.975 183.06C204.783 182.704 204.577 182.329 204.346 181.926C203.044 179.606 201.262 176.43 200.219 172.529C199.518 169.901 200.219 163.43 200.873 157.156C201.353 152.65 201.79 148.399 201.661 145.987L201.622 145.132C201.295 138.824 200.613 125.7 199.22 122.073C197.851 118.575 196.573 118.052 194.243 117.12C194.003 117.014 193.763 116.918 193.484 116.803C192.61 116.438 191.121 115.669 189.406 114.78C185.538 112.777 180.725 110.284 178.279 109.976C175.992 109.719 173.678 109.826 171.424 110.293C168.412 107.983 163.286 105.009 161.758 104.946C160.509 104.884 157.781 105.667 156.474 106.075L155.816 106.287C154.988 105.645 154.111 105.07 153.193 104.567C153.13 104.533 153.068 104.509 153.015 104.485C151.319 103.789 148.759 103.765 147.361 103.803C146.938 103.803 146.607 103.846 146.458 103.861C143.82 99.8013 141.226 95.7612 140.097 93.9885C137.743 90.2606 130.455 74.9214 130.383 74.7724C130.375 74.7527 130.362 74.7353 130.345 74.7219C130.328 74.7085 130.308 74.6994 130.287 74.6956C130.265 74.6925 130.242 74.6925 130.22 74.6956C129.653 74.5322 125.479 73.4705 123.802 77.5155C121.967 81.9208 124.585 91.5913 127.141 95.103C128.371 96.794 131.729 103.693 135.135 110.831C134.26 111.643 127.266 118.105 123.869 119.31C121.088 120.295 121.741 134.554 122.265 146.002C122.462 150.229 122.625 153.866 122.577 156.051C122.481 160.279 130.172 166.101 137.628 171.732C144.353 176.834 151.329 182.104 152.146 185.932C152.371 187.009 153.015 187.883 153.784 188.868C155.066 190.501 156.719 192.427 157.42 196.074C157.627 197.169 159.385 198.601 160.783 200.94H211.245C210.822 199.802 210.024 197.726 209.208 195.382ZM139.228 119.431C141.673 124.552 143.186 127.597 143.551 127.938C143.916 128.28 143.892 129.903 143.883 131.484C143.83 132.867 143.878 134.253 144.027 135.63C143.431 136.153 139.67 139.579 138.911 142.355L135.716 138.594L134.909 126.79C135.389 126.281 138.675 122.808 139.228 119.431Z" fill="white"/>
<path opacity="0.4" d="M194.728 152.338C195.915 163.411 195.929 169.416 197.26 172.62C199.508 178.03 202.818 179.125 202.818 179.125C201.717 177.028 200.843 174.821 200.21 172.539C199.513 169.911 200.21 163.44 200.863 157.166C201.343 152.66 201.785 148.403 201.66 145.992L201.617 145.137C201.291 138.834 200.608 125.709 199.215 122.077C197.851 118.58 196.568 118.057 194.238 117.12C193.998 117.019 193.758 116.923 193.479 116.807C192.605 116.442 191.12 115.674 189.401 114.785C185.533 112.782 180.72 110.288 178.275 109.981C175.987 109.721 173.673 109.828 171.419 110.298C168.407 107.987 163.281 105.014 161.754 104.951C160.505 104.889 157.118 105.874 155.801 106.292C161.566 110.995 169.868 116.86 169.868 116.86C176.435 118.167 175.594 121.016 178.251 122.625C180.653 124.066 182.949 119.848 184.976 119.479C187.628 118.998 190.64 121.794 190.506 125.186C190.092 134.529 193.71 142.831 194.728 152.338Z" fill="#E39292"/>
<path opacity="0.4" d="M161.533 118.023C161.533 118.023 156.33 113.699 153.846 112.258C151.362 110.817 150.964 105.849 152.924 104.644C152.998 104.599 153.082 104.573 153.169 104.567L152.991 104.485C151.295 103.788 148.735 103.76 147.337 103.803C150.219 109.169 152.52 113.286 153.14 114.189C155.23 117.206 161.533 118.023 161.533 118.023Z" fill="#E39292"/>
<path opacity="0.4" d="M153.64 185.26C153.861 184.112 151.968 180.749 151.137 179.385C149.249 176.272 127.328 156.902 130.504 151.733C133.679 146.564 136.581 150.388 138.589 150.724C140.03 150.964 143.988 148.605 143.969 148.408C143.518 144.426 147.193 141.837 147.193 141.837C147.193 141.837 146.856 125.983 146.011 126.252C145.165 126.521 135.048 102.449 135.048 102.449C135.048 102.449 124.354 88.2286 124.96 81.5943C125.565 74.96 130.206 74.8447 130.206 74.8447V74.6669C129.639 74.5036 125.464 73.4419 123.788 77.4869C121.952 81.8921 124.571 91.5626 127.126 95.0743C128.356 96.7654 131.714 103.664 135.12 110.803C134.246 111.615 127.251 118.076 123.855 119.282C121.073 120.267 121.727 134.525 122.25 145.973C122.447 150.2 122.611 153.837 122.562 156.023C122.466 160.25 130.158 166.073 137.613 171.703C144.339 176.805 151.315 182.075 152.131 185.904C152.357 186.98 153.001 187.854 153.769 188.839C153.616 187.653 153.573 186.454 153.64 185.26ZM139.228 119.445C141.673 124.566 143.186 127.612 143.551 127.953C143.916 128.294 143.892 129.918 143.883 131.498C143.83 132.882 143.878 134.268 144.027 135.644C143.431 136.168 139.67 139.593 138.911 142.37L135.716 138.608L134.909 126.805C135.389 126.281 138.675 122.808 139.228 119.431V119.445Z" fill="#E39292"/>
<path d="M158.549 117.961C156.403 117.285 154.517 115.963 153.15 114.175C150.954 111.235 142.331 97.8414 139.943 94.0654C137.556 90.2895 130.206 74.8446 130.206 74.8446C130.206 74.8446 125.69 73.3313 123.932 77.5493C122.173 81.7672 124.58 91.2983 127.256 94.9686C129.932 98.6389 142.648 126.901 143.657 127.814C144.666 128.726 143.153 136.269 145.175 138.094" stroke="#263238" stroke-width="0.480401" stroke-linecap="round" stroke-linejoin="round"/>
<path d="M144.205 135.697C144.205 135.697 139.545 139.756 138.997 142.72L135.538 138.651L134.721 126.728C134.721 126.728 138.896 122.548 139.127 118.83" stroke="#263238" stroke-width="0.480401" stroke-linecap="round" stroke-linejoin="round"/>
<path d="M135.312 110.817C135.312 110.817 127.573 118.119 123.893 119.421C120.213 120.723 122.899 148.082 122.716 156.004C122.534 163.925 150.555 177.727 152.275 185.836C152.957 189.065 155.782 189.723 157.507 195.925" stroke="#263238" stroke-width="0.480401" stroke-linecap="round" stroke-linejoin="round"/>
<path d="M146.328 104.019C146.328 104.019 150.541 103.64 152.914 104.629C155.287 105.619 164.924 113.896 167.249 115.477C169.574 117.057 173.072 117.658 173.735 119.363" stroke="#263238" stroke-width="0.480401" stroke-linecap="round" stroke-linejoin="round"/>
<path d="M155.749 106.46C155.749 106.46 160.072 105.019 161.725 105.1C163.377 105.182 169.594 108.847 172.38 111.297C174.515 113.192 176.974 114.686 179.639 115.708" stroke="#263238" stroke-width="0.480401" stroke-linecap="round" stroke-linejoin="round"/>
<path d="M171.366 110.466C173.623 109.981 175.943 109.869 178.236 110.135C181.753 110.615 190.582 115.804 193.398 116.976C196.213 118.148 197.558 118.364 199.037 122.15C200.517 125.935 201.194 140.328 201.492 146.016C201.79 151.704 198.826 167.994 200.051 172.577C201.276 177.16 203.486 180.696 204.826 183.146" stroke="#263238" stroke-width="0.480401" stroke-linecap="round" stroke-linejoin="round"/>
<path d="M134.721 126.728C134.721 126.728 134.049 123.918 133.088 123.557" stroke="#263238" stroke-width="0.480401" stroke-linecap="round" stroke-linejoin="round"/>
<path d="M135.538 138.651C135.862 140.289 136.3 141.903 136.85 143.479C137.541 145.185 136.465 147.654 136.465 147.654" stroke="#263238" stroke-width="0.480401" stroke-linecap="round" stroke-linejoin="round"/>
<path d="M138.997 142.72C138.886 145.449 141.601 148.639 142.259 148.187" stroke="#263238" stroke-width="0.480401" stroke-linecap="round" stroke-linejoin="round"/>
<path d="M152.818 126.728C152.818 126.728 155.734 122.01 158.53 121.78C161.326 121.549 164.554 125.517 166.279 125.142C168.004 124.768 170.175 122.231 173.077 121.78C175.978 121.328 177.338 122.712 179.639 122.827C181.94 122.942 182.176 119.868 184.923 119.464C187.671 119.061 188.608 120.425 190.453 120.78C192.298 121.136 192.759 119.68 194.253 118.859" stroke="#263238" stroke-width="0.480401" stroke-linecap="round" stroke-linejoin="round"/>
</svg>
