<svg width="158" height="159" viewBox="0 0 158 159" fill="none" xmlns="http://www.w3.org/2000/svg">
<g opacity="0.9">
<path d="M140.529 107.787C140.529 107.787 162.776 81.9993 157.061 49.0199C151.347 16.0405 121.871 -1.2262 102.1 0.727678C82.3285 2.68156 62.6428 22.0613 43.3243 24.4557C24.0058 26.8501 -5.11479 43.8966 0.77132 76.3294C6.65743 108.762 24.5442 111.936 53.4975 113.127C82.4509 114.318 123.421 129.17 140.529 107.787Z" fill="#E39292"/>
<path opacity="0.7" d="M140.529 107.787C140.529 107.787 162.776 81.9993 157.061 49.0199C151.347 16.0405 121.871 -1.2262 102.1 0.727678C82.3285 2.68156 62.6428 22.0613 43.3243 24.4557C24.0058 26.8501 -5.11479 43.8966 0.77132 76.3294C6.65743 108.762 24.5442 111.936 53.4975 113.127C82.4509 114.318 123.421 129.17 140.529 107.787Z" fill="white"/>
<path d="M37.181 21.0211H125.477C126.357 21.0211 127.202 21.371 127.825 21.9936C128.447 22.6163 128.797 23.4609 128.797 24.3415V86.0662H33.8606V24.3374C33.8617 23.4575 34.212 22.614 34.8345 21.9922C35.4571 21.3704 36.3011 21.0211 37.181 21.0211Z" fill="#263238" stroke="#263238" stroke-width="0.407908" stroke-linecap="round" stroke-linejoin="round"/>
<path d="M143.033 114.82H19.6206L33.8607 86.0662H128.793L143.033 114.82Z" fill="white" stroke="#263238" stroke-width="0.407908" stroke-linecap="round" stroke-linejoin="round"/>
<path d="M123.046 26.1689H39.6121V80.9143H123.046V26.1689Z" fill="#F0B6B6" stroke="#263238" stroke-width="0.407908" stroke-linecap="round" stroke-linejoin="round"/>
<path d="M62.7923 64.9001C67.3976 60.2948 67.3976 52.8281 62.7923 48.2228C58.187 43.6175 50.7203 43.6175 46.115 48.2228C41.5097 52.8281 41.5097 60.2948 46.115 64.9001C50.7203 69.5054 58.187 69.5054 62.7923 64.9001Z" fill="#263238"/>
<path d="M90.0457 64.8993C94.651 60.294 94.651 52.8273 90.0457 48.222C85.4404 43.6167 77.9737 43.6167 73.3684 48.222C68.7631 52.8273 68.7631 60.294 73.3684 64.8993C77.9737 69.5046 85.4404 69.5046 90.0457 64.8993Z" fill="#263238"/>
<path d="M111.638 68.0408C117.981 66.5624 121.925 60.222 120.446 53.8791C118.968 47.5363 112.628 43.5928 106.285 45.0712C99.942 46.5495 95.9985 52.8899 97.4769 59.2328C98.9552 65.5757 105.296 69.5191 111.638 68.0408Z" fill="#263238"/>
<path d="M46.3508 53.5559C46.3508 53.5559 51.5476 39.3607 54.6028 39.3607C57.658 39.3607 63.0384 53.3886 63.0384 53.3886L62.1287 53.4702C62.1287 53.4702 56.8463 41.1759 55.2799 40.4172C53.7136 39.6584 50.8215 44.1291 47.2727 53.5396L46.3508 53.5559Z" fill="white" stroke="#263238" stroke-width="0.407908" stroke-linecap="round" stroke-linejoin="round"/>
<path d="M46.8772 52.7278H62.496C62.9634 52.7278 63.4116 52.9135 63.7421 53.244C64.0725 53.5744 64.2582 54.0226 64.2582 54.49V62.8684C64.2582 63.2427 64.1095 63.6017 63.8448 63.8664C63.5801 64.1311 63.2211 64.2798 62.8468 64.2798H46.5305C46.1562 64.2798 45.7972 64.1311 45.5325 63.8664C45.2678 63.6017 45.1191 63.2427 45.1191 62.8684V54.4941C45.1186 54.2627 45.1637 54.0334 45.2517 53.8194C45.3398 53.6054 45.4691 53.4108 45.6324 53.2468C45.7956 53.0828 45.9896 52.9526 46.2032 52.8635C46.4168 52.7745 46.6458 52.7284 46.8772 52.7278Z" fill="white" stroke="#263238" stroke-width="0.407908" stroke-linecap="round" stroke-linejoin="round"/>
<path d="M45.2778 58.9199H62.6058" stroke="#263238" stroke-width="0.407908" stroke-linecap="round" stroke-linejoin="round"/>
<path d="M63.3524 53.1398C63.3524 53.1398 62.9445 53.6375 62.9445 55.0407C62.9445 56.4439 62.4509 63.8719 62.5366 64.1982C62.6223 64.5245 63.1158 64.2839 63.1158 64.2839" fill="white"/>
<path d="M63.3524 53.1398C63.3524 53.1398 62.9445 53.6375 62.9445 55.0407C62.9445 56.4439 62.4509 63.8719 62.5366 64.1982C62.6223 64.5245 63.1158 64.2839 63.1158 64.2839" stroke="#263238" stroke-width="0.407908" stroke-linecap="round" stroke-linejoin="round"/>
<path d="M54.6026 57.2679H53.281V60.2374H54.6026V57.2679Z" fill="white" stroke="#263238" stroke-width="0.407908" stroke-linecap="round" stroke-linejoin="round"/>
<path d="M71.3882 49.6645C71.3882 49.6645 76.899 49.1831 83.3684 49.1831C89.8379 49.1831 92.8768 49.591 92.9543 49.999C93.0318 50.4069 92.0773 55.5914 92.0773 56.0686C92.0773 56.5459 92.0773 63.26 91.9182 63.6598C91.7591 64.0595 91.0371 64.3777 90.7189 64.4552C90.4008 64.5327 73.6235 64.6959 73.1463 64.6959C72.9057 64.6764 72.6813 64.5668 72.518 64.3891C72.3547 64.2114 72.2644 63.9787 72.2652 63.7373C72.2652 63.26 72.5058 57.9858 72.1061 56.0686C71.7063 54.1515 71.3882 49.6645 71.3882 49.6645Z" fill="white" stroke="#263238" stroke-width="0.407908" stroke-linecap="round" stroke-linejoin="round"/>
<path d="M77.3149 52.2995C77.3149 52.2995 77.2333 45.9892 77.8737 43.8314C78.1485 42.9181 78.707 42.1162 79.4684 41.5419C80.2297 40.9676 81.1542 40.6508 82.1078 40.6374C83.3458 40.7208 84.5264 41.1903 85.4835 41.9798C86.4406 42.7694 87.126 43.8392 87.4432 45.0388C88.2591 48.1511 87.6023 52.067 87.5248 52.4668C87.4473 52.8665 86.5662 53.9842 86.4031 51.8264C86.2399 49.6685 86.5662 44.639 85.9258 43.1991C85.5597 42.4434 84.9539 41.83 84.2028 41.4544C83.4518 41.0789 82.5976 40.9623 81.7733 41.1228C80.0927 41.5307 79.2157 42.2405 78.8976 44.3168C78.5794 46.393 79.2157 51.19 78.816 52.2261C78.4162 53.2622 77.4577 53.7354 77.3149 52.2995Z" fill="white" stroke="#263238" stroke-width="0.407908" stroke-linecap="round" stroke-linejoin="round"/>
<path d="M72.9057 49.742C72.9057 49.742 72.4978 53.9761 72.4978 55.5751C72.4978 57.1741 72.4163 58.2102 72.4163 58.2102" fill="white"/>
<path d="M72.9057 49.742C72.9057 49.742 72.4978 53.9761 72.4978 55.5751C72.4978 57.1741 72.4163 58.2102 72.4163 58.2102" stroke="#263238" stroke-width="0.407908" stroke-linecap="round" stroke-linejoin="round"/>
<path d="M91.5918 49.8235C91.5918 49.8235 91.755 54.0576 91.755 56.5336" stroke="#263238" stroke-width="0.407908" stroke-linecap="round" stroke-linejoin="round"/>
<path d="M112.191 49.0118C112.092 49.0128 111.996 48.9777 111.921 48.9132C111.846 48.8486 111.797 48.759 111.783 48.661C110.996 43.7375 110.009 38.3083 109.503 36.5461C108.757 38.2104 107.117 43.5091 105.758 48.3265C105.729 48.4347 105.657 48.5266 105.56 48.5821C105.462 48.6375 105.347 48.652 105.238 48.6222C105.13 48.5925 105.038 48.521 104.983 48.4234C104.927 48.3259 104.913 48.2103 104.943 48.1021C104.943 48.0695 105.816 44.998 106.762 41.9346C108.732 35.5467 109.103 35.408 109.397 35.3142C109.47 35.2892 109.549 35.282 109.625 35.2934C109.702 35.3047 109.775 35.3342 109.838 35.3795C110.054 35.5386 110.351 35.7548 111.526 42.2487C112.093 45.3814 112.591 48.4978 112.595 48.5304C112.605 48.5847 112.604 48.6404 112.591 48.6941C112.579 48.7479 112.556 48.7986 112.524 48.8432C112.491 48.8878 112.45 48.9254 112.403 48.9537C112.355 48.9819 112.303 49.0003 112.248 49.0077C112.229 49.0111 112.21 49.0125 112.191 49.0118Z" fill="white" stroke="#263238" stroke-width="0.407908" stroke-linecap="round" stroke-linejoin="round"/>
<path d="M98.9546 47.6412C98.9546 47.6412 107.076 47.1436 109.874 47.2537C112.673 47.3639 117.645 47.6616 117.625 47.9839C117.604 48.3061 117.506 58.5895 117.217 60.629C116.927 62.6686 115.471 65.2302 114.206 65.6993C112.942 66.1684 108.691 65.9971 106.513 65.9074C104.335 65.8176 102.373 65.5321 101.394 64.1411C100.415 62.7502 99.7133 56.9089 99.7133 56.9089L98.9546 47.6412Z" fill="white" stroke="#263238" stroke-width="0.407908" stroke-linecap="round" stroke-linejoin="round"/>
<path d="M105.408 49.8766C105.411 49.7165 105.368 49.559 105.283 49.4234C105.198 49.2879 105.074 49.1805 104.929 49.1145C104.783 49.0484 104.621 49.0268 104.463 49.0521C104.305 49.0775 104.158 49.1488 104.04 49.2572C103.922 49.3656 103.839 49.5062 103.8 49.6616C103.762 49.8169 103.77 49.9802 103.824 50.131C103.877 50.2818 103.974 50.4135 104.102 50.5097C104.23 50.6059 104.383 50.6623 104.543 50.672C104.652 50.6786 104.762 50.6631 104.866 50.6263C104.969 50.5895 105.064 50.5323 105.144 50.4581C105.225 50.3838 105.29 50.2941 105.335 50.1941C105.381 50.0942 105.405 49.9862 105.408 49.8766Z" fill="white" stroke="#263238" stroke-width="0.407908" stroke-linecap="round" stroke-linejoin="round"/>
<path d="M113.161 50.3958C113.236 49.9447 112.931 49.5182 112.48 49.4432C112.029 49.3682 111.603 49.6731 111.528 50.1242C111.453 50.5753 111.758 51.0018 112.209 51.0769C112.66 51.1519 113.086 50.8469 113.161 50.3958Z" fill="white" stroke="#263238" stroke-width="0.407908" stroke-linecap="round" stroke-linejoin="round"/>
<path d="M100.374 61.3062C100.374 61.3062 106.207 60.8126 116.882 61.351L100.374 61.3062Z" fill="white"/>
<path d="M100.374 61.3062C100.374 61.3062 106.207 60.8126 116.882 61.351" stroke="#263238" stroke-width="0.407908" stroke-linecap="round" stroke-linejoin="round"/>
<path d="M121.471 27.7842H40.9053V34.3352H121.471V27.7842Z" fill="#263238"/>
<path d="M79.9788 31.5166H87.9656" stroke="white" stroke-width="0.815816" stroke-miterlimit="10"/>
<path d="M97.2046 31.5166H105.191" stroke="white" stroke-width="0.815816" stroke-miterlimit="10"/>
<path d="M118.946 29.4893C118.931 29.4677 118.911 29.4501 118.888 29.4381C118.864 29.426 118.838 29.4198 118.812 29.42H114.435L114.268 28.9141C114.256 28.8805 114.234 28.8514 114.204 28.8309C114.175 28.8104 114.14 28.7996 114.104 28.7999H112.995C112.951 28.7999 112.908 28.8176 112.877 28.8489C112.845 28.8803 112.828 28.9228 112.828 28.9672C112.827 28.9895 112.831 29.0117 112.839 29.0324C112.847 29.0532 112.86 29.0721 112.875 29.0881C112.891 29.104 112.909 29.1167 112.93 29.1254C112.951 29.134 112.973 29.1385 112.995 29.1385H113.982L115.051 32.3487C115.063 32.3824 115.085 32.4115 115.114 32.432C115.143 32.4525 115.178 32.4633 115.214 32.4629H115.275C115.215 32.557 115.183 32.6657 115.181 32.777C115.175 32.858 115.185 32.9395 115.211 33.0164C115.237 33.0933 115.279 33.1638 115.334 33.2236C115.389 33.2834 115.456 33.3312 115.531 33.3638C115.605 33.3965 115.685 33.4133 115.767 33.4133C115.848 33.4133 115.928 33.3965 116.003 33.3638C116.077 33.3312 116.144 33.2834 116.199 33.2236C116.254 33.1638 116.296 33.0933 116.322 33.0164C116.349 32.9395 116.359 32.858 116.352 32.777C116.352 32.6654 116.32 32.5561 116.258 32.4629H117.074C117.016 32.5573 116.985 32.6661 116.984 32.777C116.978 32.858 116.988 32.9395 117.014 33.0164C117.04 33.0933 117.082 33.1638 117.137 33.2236C117.192 33.2834 117.259 33.3312 117.334 33.3638C117.408 33.3965 117.488 33.4133 117.57 33.4133C117.651 33.4133 117.731 33.3965 117.806 33.3638C117.88 33.3312 117.947 33.2834 118.002 33.2236C118.057 33.1638 118.099 33.0933 118.125 33.0164C118.152 32.9395 118.162 32.858 118.155 32.777C118.153 32.6657 118.121 32.557 118.061 32.4629H118.192C118.237 32.4629 118.281 32.4449 118.313 32.4128C118.345 32.3806 118.363 32.3371 118.363 32.2916C118.363 32.2693 118.359 32.2472 118.35 32.2267C118.341 32.2061 118.329 32.1875 118.313 32.1719C118.297 32.1563 118.278 32.1441 118.257 32.1359C118.236 32.1278 118.214 32.1238 118.192 32.1244H115.336L115.149 31.5615H118.33C118.367 31.5619 118.403 31.5502 118.433 31.528C118.462 31.5059 118.484 31.4746 118.494 31.4391L118.979 29.6361C118.985 29.6108 118.985 29.5844 118.98 29.5589C118.974 29.5335 118.963 29.5097 118.946 29.4893ZM115.765 33.0259C115.715 33.0267 115.667 33.0128 115.625 32.9859C115.584 32.9591 115.551 32.9205 115.532 32.8751C115.512 32.8297 115.507 32.7796 115.516 32.731C115.525 32.6825 115.549 32.6378 115.583 32.6026C115.618 32.5674 115.662 32.5433 115.71 32.5333C115.759 32.5234 115.809 32.5281 115.855 32.5468C115.901 32.5655 115.94 32.5974 115.967 32.6384C115.995 32.6794 116.009 32.7277 116.009 32.777C116.009 32.8423 115.984 32.905 115.938 32.9516C115.892 32.9981 115.83 33.0248 115.765 33.0259ZM117.564 33.0259C117.514 33.0267 117.466 33.0128 117.424 32.9859C117.383 32.9591 117.35 32.9205 117.331 32.8751C117.311 32.8297 117.306 32.7796 117.315 32.731C117.324 32.6825 117.347 32.6378 117.382 32.6026C117.417 32.5674 117.461 32.5433 117.509 32.5333C117.558 32.5234 117.608 32.5281 117.654 32.5468C117.699 32.5655 117.738 32.5974 117.766 32.6384C117.794 32.6794 117.808 32.7277 117.808 32.777C117.809 32.8095 117.803 32.8418 117.791 32.872C117.779 32.9021 117.761 32.9296 117.738 32.9527C117.715 32.9759 117.688 32.9943 117.658 33.0068C117.628 33.0194 117.596 33.0259 117.564 33.0259ZM118.016 31.2229H117.388V29.7626H118.016V31.2229ZM116.417 29.7626H117.05V31.2229H116.417V29.7626ZM116.079 31.2229H115.446V29.7626H116.066L116.079 31.2229ZM114.545 29.7626H115.108V31.2229H115.03L114.545 29.7626ZM118.359 30.6233V29.7626H118.587L118.359 30.6233Z" fill="white"/>
<path d="M120.264 29.3833C120.268 29.1364 120.198 28.8939 120.064 28.6866C119.93 28.4793 119.737 28.3167 119.51 28.2194C119.283 28.1221 119.032 28.0945 118.79 28.1402C118.547 28.1859 118.323 28.3027 118.147 28.4759C117.971 28.6491 117.851 28.8707 117.801 29.1126C117.751 29.3544 117.775 29.6056 117.868 29.8341C117.962 30.0627 118.121 30.2582 118.326 30.3958C118.531 30.5334 118.773 30.607 119.02 30.607C119.346 30.606 119.659 30.4774 119.891 30.2487C120.124 30.02 120.257 29.7093 120.264 29.3833Z" fill="white"/>
<path d="M118.514 30.1501C118.484 30.1272 118.463 30.0937 118.457 30.0563C118.448 30.0158 118.45 29.9738 118.461 29.934C118.472 29.8941 118.493 29.8577 118.522 29.8279L119.093 29.2691C119.126 29.2446 119.153 29.2134 119.173 29.1775C119.193 29.1416 119.204 29.1019 119.207 29.061C119.208 29.0356 119.202 29.0105 119.191 28.9878C119.179 28.9651 119.163 28.9455 119.142 28.9305C119.097 28.897 119.043 28.8797 118.987 28.8815H118.922H118.848L118.791 28.906L118.73 28.9427L118.677 28.9713C118.655 28.9794 118.63 28.9794 118.608 28.9713C118.58 28.9648 118.556 28.949 118.538 28.9264C118.521 28.9029 118.507 28.8767 118.498 28.8489C118.487 28.8213 118.487 28.7909 118.498 28.7633C118.51 28.7316 118.533 28.7055 118.563 28.6898C118.715 28.5964 118.89 28.5496 119.069 28.5552C119.208 28.5522 119.342 28.6034 119.444 28.698C119.49 28.7391 119.526 28.7895 119.55 28.8458C119.575 28.902 119.587 28.9629 119.587 29.0243C119.586 29.1127 119.564 29.1997 119.521 29.2772C119.47 29.3703 119.401 29.4522 119.317 29.5179L118.881 29.8646H119.452C119.468 29.8642 119.483 29.8682 119.497 29.8761C119.511 29.884 119.522 29.8956 119.53 29.9095C119.548 29.9403 119.558 29.9755 119.558 30.0115C119.557 30.0499 119.548 30.0876 119.53 30.1216C119.521 30.1349 119.51 30.146 119.497 30.1539C119.483 30.1617 119.468 30.166 119.452 30.1665H118.636C118.616 30.1728 118.594 30.1746 118.573 30.1718C118.552 30.169 118.532 30.1616 118.514 30.1501Z" fill="#263238"/>
<path d="M73.3991 33.0259H43.9074C43.6494 33.0259 43.3939 32.975 43.1556 32.8762C42.9173 32.7773 42.7008 32.6324 42.5185 32.4498C42.3363 32.2672 42.1919 32.0504 42.0935 31.8119C41.9951 31.5734 41.9448 31.3178 41.9453 31.0598C41.9453 30.5394 42.152 30.0404 42.52 29.6724C42.8879 29.3045 43.387 29.0977 43.9074 29.0977H73.3991C73.9195 29.0977 74.4185 29.3045 74.7865 29.6724C75.1544 30.0404 75.3612 30.5394 75.3612 31.0598C75.3617 31.3178 75.3113 31.5734 75.213 31.8119C75.1146 32.0504 74.9702 32.2672 74.7879 32.4498C74.6057 32.6324 74.3892 32.7773 74.1509 32.8762C73.9126 32.975 73.6571 33.0259 73.3991 33.0259Z" fill="white"/>
<path d="M48.3984 72.026H60.4725" stroke="#263238" stroke-width="0.815816" stroke-linecap="round" stroke-linejoin="round"/>
<path d="M48.3984 74.3144H60.4725" stroke="#263238" stroke-width="0.815816" stroke-linecap="round" stroke-linejoin="round"/>
<path d="M75.6672 72.026H87.7454" stroke="#263238" stroke-width="0.815816" stroke-linecap="round" stroke-linejoin="round"/>
<path d="M75.6672 74.3144H87.7454" stroke="#263238" stroke-width="0.815816" stroke-linecap="round" stroke-linejoin="round"/>
<path d="M102.94 72.026H115.014" stroke="#263238" stroke-width="0.815816" stroke-linecap="round" stroke-linejoin="round"/>
<path d="M102.94 74.3144H115.014" stroke="#263238" stroke-width="0.815816" stroke-linecap="round" stroke-linejoin="round"/>
<path d="M77.3681 95.1707L77.5313 91.6668H72.5181L72.1836 95.1707H77.3681Z" fill="#263238" stroke="white" stroke-width="0.407908" stroke-linecap="round" stroke-linejoin="round"/>
<path d="M87.7372 95.1707L87.5659 91.6668H82.5486L82.5527 95.1707H87.7372Z" fill="#263238" stroke="white" stroke-width="0.407908" stroke-linecap="round" stroke-linejoin="round"/>
<path d="M114.737 98.9153H120.097L118.84 95.1707H113.656L114.737 98.9153Z" fill="#263238" stroke="white" stroke-width="0.407908" stroke-linecap="round" stroke-linejoin="round"/>
<path d="M72.1834 95.1707L72.5178 91.6668H67.5006L67.0029 95.1707H72.1834Z" fill="#263238" stroke="white" stroke-width="0.407908" stroke-linecap="round" stroke-linejoin="round"/>
<path d="M61.8185 95.1707L62.4834 91.6668H57.4702L56.634 95.1707H61.8185Z" fill="#263238" stroke="white" stroke-width="0.407908" stroke-linecap="round" stroke-linejoin="round"/>
<path d="M108.471 95.1707L107.631 91.6668H102.614L103.287 95.1707H108.471Z" fill="#263238" stroke="white" stroke-width="0.407908" stroke-linecap="round" stroke-linejoin="round"/>
<path d="M113.656 95.1707L112.644 91.6668H107.631L108.471 95.1707H113.656Z" fill="#263238" stroke="white" stroke-width="0.407908" stroke-linecap="round" stroke-linejoin="round"/>
<path d="M56.634 95.1707L57.4702 91.6668H52.4529L51.4495 95.1707H56.634Z" fill="#263238" stroke="white" stroke-width="0.407908" stroke-linecap="round" stroke-linejoin="round"/>
<path d="M92.9218 95.1707L92.5832 91.6668H87.5659L87.7372 95.1707H92.9218Z" fill="#263238" stroke="white" stroke-width="0.407908" stroke-linecap="round" stroke-linejoin="round"/>
<path d="M118.84 95.1707L117.661 91.6668H112.644L113.656 95.1707H118.84Z" fill="#263238" stroke="white" stroke-width="0.407908" stroke-linecap="round" stroke-linejoin="round"/>
<path d="M103.287 95.1707L102.613 91.6668H97.5962L98.102 95.1707H103.287Z" fill="#263238" stroke="white" stroke-width="0.407908" stroke-linecap="round" stroke-linejoin="round"/>
<path d="M98.102 95.1707L97.5962 91.6668H92.583L92.9216 95.1707H98.102Z" fill="#263238" stroke="white" stroke-width="0.407908" stroke-linecap="round" stroke-linejoin="round"/>
<path d="M82.5527 95.1707L82.5486 91.6668H77.5313L77.3682 95.1707H82.5527Z" fill="#263238" stroke="white" stroke-width="0.407908" stroke-linecap="round" stroke-linejoin="round"/>
<path d="M46.2652 95.1707H41.0807L39.6489 98.9153H45.0129L46.2652 95.1707Z" fill="#263238" stroke="white" stroke-width="0.407908" stroke-linecap="round" stroke-linejoin="round"/>
<path d="M47.436 91.6668H42.4228L41.0808 95.1707H46.2653L47.436 91.6668Z" fill="#263238" stroke="white" stroke-width="0.407908" stroke-linecap="round" stroke-linejoin="round"/>
<path d="M51.4499 95.1707L52.4533 91.6668H47.4361L46.2654 95.1707H51.4499Z" fill="#263238" stroke="white" stroke-width="0.407908" stroke-linecap="round" stroke-linejoin="round"/>
<path d="M38.115 102.929L36.467 107.245H42.2308L43.6707 102.929H38.115Z" fill="#263238" stroke="white" stroke-width="0.407908" stroke-linecap="round" stroke-linejoin="round"/>
<path d="M45.013 98.9153H39.649L38.1152 102.929H43.6709L45.013 98.9153Z" fill="#263238" stroke="white" stroke-width="0.407908" stroke-linecap="round" stroke-linejoin="round"/>
<path d="M43.6709 102.929L42.231 107.245H47.9947L49.2266 102.929H43.6709Z" fill="#263238" stroke="white" stroke-width="0.407908" stroke-linecap="round" stroke-linejoin="round"/>
<path d="M67.0031 95.1707L67.5008 91.6668H62.4835L61.8186 95.1707H67.0031Z" fill="#263238" stroke="white" stroke-width="0.407908" stroke-linecap="round" stroke-linejoin="round"/>
<path d="M66.4646 98.9153L67.0031 95.1707H61.8186L61.1047 98.9153H66.4646Z" fill="#263238" stroke="white" stroke-width="0.407908" stroke-linecap="round" stroke-linejoin="round"/>
<path d="M61.105 98.9153L61.8188 95.1707H56.6343L55.741 98.9153H61.105Z" fill="#263238" stroke="white" stroke-width="0.407908" stroke-linecap="round" stroke-linejoin="round"/>
<path d="M71.8286 98.9153L72.1835 95.1707H67.003L66.4646 98.9153H71.8286Z" fill="#263238" stroke="white" stroke-width="0.407908" stroke-linecap="round" stroke-linejoin="round"/>
<path d="M51.4495 95.1707H46.265L45.0127 98.9153H50.3767L51.4495 95.1707Z" fill="#263238" stroke="white" stroke-width="0.407908" stroke-linecap="round" stroke-linejoin="round"/>
<path d="M115.891 102.929H121.447L120.097 98.9153H114.737L115.891 102.929Z" fill="#263238" stroke="white" stroke-width="0.407908" stroke-linecap="round" stroke-linejoin="round"/>
<path d="M55.7407 98.9153L56.634 95.1707H51.4495L50.3767 98.9153H55.7407Z" fill="#263238" stroke="white" stroke-width="0.407908" stroke-linecap="round" stroke-linejoin="round"/>
<path d="M45.0127 98.9153L43.6707 102.929H49.2264L50.3767 98.9153H45.0127Z" fill="#263238" stroke="white" stroke-width="0.407908" stroke-linecap="round" stroke-linejoin="round"/>
<path d="M104.009 98.9153L103.287 95.1707H98.1023L98.6448 98.9153H104.009Z" fill="#263238" stroke="white" stroke-width="0.407908" stroke-linecap="round" stroke-linejoin="round"/>
<path d="M98.6446 98.9153L98.1021 95.1707H92.9216L93.2806 98.9153H98.6446Z" fill="#263238" stroke="white" stroke-width="0.407908" stroke-linecap="round" stroke-linejoin="round"/>
<path d="M114.737 98.9153L113.656 95.1707H108.471L109.373 98.9153H114.737Z" fill="#263238" stroke="white" stroke-width="0.407908" stroke-linecap="round" stroke-linejoin="round"/>
<path d="M82.5569 98.9153L82.5528 95.1707H77.3683L77.1929 98.9153H82.5569Z" fill="#263238" stroke="white" stroke-width="0.407908" stroke-linecap="round" stroke-linejoin="round"/>
<path d="M93.2805 98.9153L92.9216 95.1707H87.7371L87.9206 98.9153H93.2805Z" fill="#263238" stroke="white" stroke-width="0.407908" stroke-linecap="round" stroke-linejoin="round"/>
<path d="M87.9208 98.9153L87.7372 95.1707H82.5527L82.5568 98.9153H87.9208Z" fill="#263238" stroke="white" stroke-width="0.407908" stroke-linecap="round" stroke-linejoin="round"/>
<path d="M77.1929 98.9153L77.3683 95.1707H72.1837L71.8289 98.9153H77.1929Z" fill="#263238" stroke="white" stroke-width="0.407908" stroke-linecap="round" stroke-linejoin="round"/>
<path d="M93.2808 98.9153L93.6724 102.929H99.224L98.6448 98.9153H93.2808Z" fill="#263238" stroke="white" stroke-width="0.407908" stroke-linecap="round" stroke-linejoin="round"/>
<path d="M98.6445 98.9153L99.2238 102.929H104.779L104.009 98.9153H98.6445Z" fill="#263238" stroke="white" stroke-width="0.407908" stroke-linecap="round" stroke-linejoin="round"/>
<path d="M50.3766 98.9153L49.2263 102.929H54.782L55.7406 98.9153H50.3766Z" fill="#263238" stroke="white" stroke-width="0.407908" stroke-linecap="round" stroke-linejoin="round"/>
<path d="M104.009 98.9153L104.779 102.929H110.335L109.373 98.9153H104.009Z" fill="#263238" stroke="white" stroke-width="0.407908" stroke-linecap="round" stroke-linejoin="round"/>
<path d="M82.5566 98.9153L82.5607 102.929H88.1164L87.9206 98.9153H82.5566Z" fill="#263238" stroke="white" stroke-width="0.407908" stroke-linecap="round" stroke-linejoin="round"/>
<path d="M109.373 98.9153L110.335 102.929H115.891L114.737 98.9153H109.373Z" fill="#263238" stroke="white" stroke-width="0.407908" stroke-linecap="round" stroke-linejoin="round"/>
<path d="M87.9207 98.9153L88.1165 102.929H93.6722L93.2806 98.9153H87.9207Z" fill="#263238" stroke="white" stroke-width="0.407908" stroke-linecap="round" stroke-linejoin="round"/>
<path d="M61.1048 98.9153L60.3379 102.929H65.8936L66.4647 98.9153H61.1048Z" fill="#263238" stroke="white" stroke-width="0.407908" stroke-linecap="round" stroke-linejoin="round"/>
<path d="M55.7408 98.9153L54.7822 102.929H60.3379L61.1048 98.9153H55.7408Z" fill="#263238" stroke="white" stroke-width="0.407908" stroke-linecap="round" stroke-linejoin="round"/>
<path d="M77.1928 98.9153L77.0051 102.929H82.5608L82.5568 98.9153H77.1928Z" fill="#263238" stroke="white" stroke-width="0.407908" stroke-linecap="round" stroke-linejoin="round"/>
<path d="M71.8288 98.9153L71.4495 102.929H77.0052L77.1928 98.9153H71.8288Z" fill="#263238" stroke="white" stroke-width="0.407908" stroke-linecap="round" stroke-linejoin="round"/>
<path d="M66.4646 98.9153L65.8936 102.929H71.4493L71.8286 98.9153H66.4646Z" fill="#263238" stroke="white" stroke-width="0.407908" stroke-linecap="round" stroke-linejoin="round"/>
<path d="M109.373 98.9153L108.471 95.1707H103.287L104.009 98.9153H109.373Z" fill="#263238" stroke="white" stroke-width="0.407908" stroke-linecap="round" stroke-linejoin="round"/>
<path d="M47.4356 91.6668L48.6348 88.0772H43.7889L42.4224 91.6668H47.4356Z" fill="#263238" stroke="white" stroke-width="0.407908" stroke-linecap="round" stroke-linejoin="round"/>
<path d="M42.4227 91.6668H37.7888L36.2959 95.1707H41.0807L42.4227 91.6668Z" fill="#263238" stroke="white" stroke-width="0.407908" stroke-linecap="round" stroke-linejoin="round"/>
<path d="M43.7891 88.0772H39.3185L37.7888 91.6668H42.4227L43.7891 88.0772Z" fill="#263238" stroke="white" stroke-width="0.407908" stroke-linecap="round" stroke-linejoin="round"/>
<path d="M41.0804 95.1707H36.2956L34.7007 98.9153H39.6486L41.0804 95.1707Z" fill="#263238" stroke="white" stroke-width="0.407908" stroke-linecap="round" stroke-linejoin="round"/>
<path d="M39.6487 98.9153H34.7008L32.9875 102.929H38.115L39.6487 98.9153Z" fill="#263238" stroke="white" stroke-width="0.407908" stroke-linecap="round" stroke-linejoin="round"/>
<path d="M38.1153 102.929H32.9879L31.1482 107.245H36.4673L38.1153 102.929Z" fill="#263238" stroke="white" stroke-width="0.407908" stroke-linecap="round" stroke-linejoin="round"/>
<path d="M124.021 95.1707L125.46 98.9153H130.204L128.609 95.1707H124.021Z" fill="#263238" stroke="white" stroke-width="0.407908" stroke-linecap="round" stroke-linejoin="round"/>
<path d="M127.002 102.929H131.918L130.204 98.9153H125.46L127.002 102.929Z" fill="#263238" stroke="white" stroke-width="0.407908" stroke-linecap="round" stroke-linejoin="round"/>
<path d="M128.659 107.245H133.757L131.918 102.929H127.002L128.659 107.245Z" fill="#263238" stroke="white" stroke-width="0.407908" stroke-linecap="round" stroke-linejoin="round"/>
<path d="M87.5658 91.6668L87.3904 88.0772H82.5444L82.5485 91.6668H87.5658Z" fill="#263238" stroke="white" stroke-width="0.407908" stroke-linecap="round" stroke-linejoin="round"/>
<path d="M124.02 95.1707H128.609L127.116 91.6668H122.678L124.02 95.1707Z" fill="#263238" stroke="white" stroke-width="0.407908" stroke-linecap="round" stroke-linejoin="round"/>
<path d="M121.447 102.929H127.002L125.46 98.9153H120.096L121.447 102.929Z" fill="#263238" stroke="white" stroke-width="0.407908" stroke-linecap="round" stroke-linejoin="round"/>
<path d="M52.4531 91.6668L53.481 88.0772H48.635L47.4358 91.6668H52.4531Z" fill="#263238" stroke="white" stroke-width="0.407908" stroke-linecap="round" stroke-linejoin="round"/>
<path d="M117.661 91.6668L118.84 95.1707H124.021L122.679 91.6668H117.661Z" fill="#263238" stroke="white" stroke-width="0.407908" stroke-linecap="round" stroke-linejoin="round"/>
<path d="M127.117 91.6668L125.587 88.0772H121.3L122.679 91.6668H127.117Z" fill="#263238" stroke="white" stroke-width="0.407908" stroke-linecap="round" stroke-linejoin="round"/>
<path d="M122.679 91.6668L121.3 88.0772H116.458L117.661 91.6668H122.679Z" fill="#263238" stroke="white" stroke-width="0.407908" stroke-linecap="round" stroke-linejoin="round"/>
<path d="M104.779 102.929L105.611 107.245H111.371L110.335 102.929H104.779Z" fill="#263238" stroke="white" stroke-width="0.407908" stroke-linecap="round" stroke-linejoin="round"/>
<path d="M122.895 107.245H128.659L127.002 102.929H121.447L122.895 107.245Z" fill="#263238" stroke="white" stroke-width="0.407908" stroke-linecap="round" stroke-linejoin="round"/>
<path d="M117.661 91.6668L116.458 88.0772H111.612L112.644 91.6668H117.661Z" fill="#263238" stroke="white" stroke-width="0.407908" stroke-linecap="round" stroke-linejoin="round"/>
<path d="M115.891 102.929L117.135 107.245H122.895L121.447 102.929H115.891Z" fill="#263238" stroke="white" stroke-width="0.407908" stroke-linecap="round" stroke-linejoin="round"/>
<path d="M110.335 102.929L111.372 107.245H117.135L115.891 102.929H110.335Z" fill="#263238" stroke="white" stroke-width="0.407908" stroke-linecap="round" stroke-linejoin="round"/>
<path d="M120.096 98.9153H125.46L124.021 95.1707H118.84L120.096 98.9153Z" fill="#263238" stroke="white" stroke-width="0.407908" stroke-linecap="round" stroke-linejoin="round"/>
<path d="M72.518 91.6668L72.8566 88.0772H68.0106L67.5007 91.6668H72.518Z" fill="#263238" stroke="white" stroke-width="0.407908" stroke-linecap="round" stroke-linejoin="round"/>
<path d="M112.644 91.6668L111.612 88.0772H106.766L107.631 91.6668H112.644Z" fill="#263238" stroke="white" stroke-width="0.407908" stroke-linecap="round" stroke-linejoin="round"/>
<path d="M67.5009 91.6668L68.0108 88.0772H63.1689L62.4836 91.6668H67.5009Z" fill="#263238" stroke="white" stroke-width="0.407908" stroke-linecap="round" stroke-linejoin="round"/>
<path d="M82.5485 91.6668L82.5444 88.0772H77.7026L77.5312 91.6668H82.5485Z" fill="#263238" stroke="white" stroke-width="0.407908" stroke-linecap="round" stroke-linejoin="round"/>
<path d="M62.4836 91.6668L63.1689 88.0772H58.323L57.4705 91.6668H62.4836Z" fill="#263238" stroke="white" stroke-width="0.407908" stroke-linecap="round" stroke-linejoin="round"/>
<path d="M57.4704 91.6668L58.3229 88.0772H53.4811L52.4531 91.6668H57.4704Z" fill="#263238" stroke="white" stroke-width="0.407908" stroke-linecap="round" stroke-linejoin="round"/>
<path d="M77.5313 91.6668L77.7026 88.0772H72.8566L72.5181 91.6668H77.5313Z" fill="#263238" stroke="white" stroke-width="0.407908" stroke-linecap="round" stroke-linejoin="round"/>
<path d="M107.631 91.6668L106.766 88.0772H101.924L102.614 91.6668H107.631Z" fill="#263238" stroke="white" stroke-width="0.407908" stroke-linecap="round" stroke-linejoin="round"/>
<path d="M102.614 91.6668L101.924 88.0772H97.0784L97.5964 91.6668H102.614Z" fill="#263238" stroke="white" stroke-width="0.407908" stroke-linecap="round" stroke-linejoin="round"/>
<path d="M92.5833 91.6668L92.2325 88.0772H87.3906L87.566 91.6668H92.5833Z" fill="#263238" stroke="white" stroke-width="0.407908" stroke-linecap="round" stroke-linejoin="round"/>
<path d="M104.78 102.929H99.2238H93.6722H88.1165H82.5608H77.0051H71.4493H65.8936H60.3379H54.7822H49.2265L47.9946 107.245H53.7543H59.518H65.2777H71.0414H76.8011H82.5648H88.3245H94.0882H99.8479H105.612L104.78 102.929Z" fill="#263238" stroke="white" stroke-width="0.407908" stroke-linecap="round" stroke-linejoin="round"/>
<path d="M97.5962 91.6668L97.0781 88.0772H92.2322L92.583 91.6668H97.5962Z" fill="#263238" stroke="white" stroke-width="0.407908" stroke-linecap="round" stroke-linejoin="round"/>
<path d="M143.09 114.82H19.6206V116.574H143.09V114.82Z" fill="#263238" stroke="#263238" stroke-width="0.407908" stroke-linecap="round" stroke-linejoin="round"/>
<path d="M101.679 145.731L56.9604 146.086C56.0058 146.086 55.3287 145.523 55.447 144.817L58.3024 128.052C58.3921 127.522 59.1182 127.094 59.934 127.089L98.2488 126.914C99.0646 126.914 99.7866 127.322 99.8804 127.856L103.144 144.454C103.27 145.148 102.605 145.727 101.679 145.731Z" fill="#E39292" stroke="#263238" stroke-width="0.407908" stroke-linecap="round" stroke-linejoin="round"/>
<path d="M80.4763 129.924H94.5043" stroke="#263238" stroke-width="0.407908" stroke-linecap="round" stroke-linejoin="round"/>
<path d="M73.24 131.111H94.5042" stroke="#263238" stroke-width="0.407908" stroke-linecap="round" stroke-linejoin="round"/>
<path d="M72.6607 141.358C64.1518 144.067 58.7021 144.548 55.5286 144.389L55.4266 144.993C55.3246 145.6 55.9079 146.094 56.7278 146.086L101.924 145.731C102.74 145.731 103.291 145.229 103.172 144.625L101.218 134.632C89.4135 134.33 86.0034 137.116 72.6607 141.358Z" fill="#263238" stroke="#263238" stroke-width="0.407908" stroke-linecap="round" stroke-linejoin="round"/>
<path d="M65.3508 134.195L61.8224 134.216C61.492 134.216 61.2513 134.036 61.284 133.808L61.5858 131.564C61.6185 131.352 61.8999 131.177 62.2181 131.177L65.6608 131.156C65.979 131.156 66.2197 131.328 66.1993 131.54L65.9831 133.779C65.9627 134.008 65.6771 134.191 65.3508 134.195Z" fill="white" stroke="#263238" stroke-width="0.407908" stroke-linecap="round" stroke-linejoin="round"/>
<path d="M64.1475 133.147H63.2746C63.1155 133.147 62.9972 133.061 63.0094 132.955L63.0788 132.4C63.0788 132.294 63.2297 132.209 63.3847 132.209H64.2617C64.4208 132.209 64.5391 132.294 64.5268 132.396L64.4657 132.951C64.4453 133.049 64.3066 133.147 64.1475 133.147Z" fill="white" stroke="#263238" stroke-width="0.407908" stroke-linecap="round" stroke-linejoin="round"/>
<path d="M61.5942 131.515H62.9485C63.2096 131.515 63.4054 131.654 63.385 131.833L63.3401 132.209" stroke="#263238" stroke-width="0.407908" stroke-linecap="round" stroke-linejoin="round"/>
<path d="M66.2077 131.515H64.8738C64.6087 131.515 64.3803 131.658 64.3599 131.833L64.3191 132.213" stroke="#263238" stroke-width="0.407908" stroke-linecap="round" stroke-linejoin="round"/>
<path d="M61.272 133.897H62.6507C62.9199 133.897 63.1565 133.747 63.1769 133.563L63.2218 133.18" stroke="#263238" stroke-width="0.407908" stroke-linecap="round" stroke-linejoin="round"/>
<path d="M65.9749 133.869H64.6165C64.3473 133.869 64.1434 133.726 64.1638 133.543L64.2086 133.155" stroke="#263238" stroke-width="0.407908" stroke-linecap="round" stroke-linejoin="round"/>
<path d="M61.4351 132.755L63.0341 132.747" stroke="#263238" stroke-width="0.407908" stroke-linecap="round" stroke-linejoin="round"/>
<path d="M64.4414 132.739L66.0363 132.731" stroke="#263238" stroke-width="0.407908" stroke-linecap="round" stroke-linejoin="round"/>
<path d="M60.9049 138.923C60.8351 138.9 60.7701 138.864 60.7132 138.817C60.6673 138.77 60.6312 138.715 60.6071 138.654C60.5834 138.59 60.5696 138.522 60.5663 138.454C60.5586 138.381 60.5586 138.307 60.5663 138.234C60.5675 138.131 60.5901 138.029 60.6327 137.936C60.6753 137.842 60.7369 137.758 60.8137 137.69C60.8905 137.622 60.9808 137.57 61.0787 137.539C61.1765 137.507 61.2799 137.497 61.3821 137.507C61.8472 137.507 62.0511 137.744 61.9899 138.225C61.9818 138.3 61.9667 138.374 61.9451 138.446C61.923 138.515 61.8914 138.581 61.8512 138.641C61.8109 138.705 61.7598 138.762 61.7003 138.809C61.635 138.857 61.5619 138.895 61.4841 138.919C61.3885 138.945 61.2897 138.959 61.1904 138.96C61.0939 138.962 60.9976 138.95 60.9049 138.923ZM61.3495 138.78C61.3893 138.767 61.4276 138.749 61.4637 138.727C61.4938 138.704 61.5212 138.678 61.5453 138.65C61.5712 138.62 61.5932 138.587 61.6106 138.552C61.628 138.518 61.6417 138.482 61.6514 138.446C61.6514 138.405 61.6718 138.368 61.6799 138.335C61.6825 138.299 61.6825 138.262 61.6799 138.225C61.6799 138.185 61.6799 138.148 61.6799 138.115V138.005C61.6825 137.968 61.6825 137.932 61.6799 137.895C61.6713 137.864 61.659 137.834 61.6432 137.805C61.626 137.776 61.6039 137.75 61.5779 137.728C61.5477 137.708 61.5147 137.693 61.48 137.683C61.4356 137.674 61.3899 137.674 61.3454 137.683C61.2981 137.676 61.25 137.676 61.2027 137.683C61.1639 137.694 61.1269 137.711 61.0925 137.732C61.0615 137.753 61.0339 137.779 61.0109 137.809C60.9851 137.835 60.9644 137.866 60.9498 137.899C60.9317 137.934 60.9166 137.971 60.9049 138.009C60.8925 138.045 60.883 138.082 60.8763 138.119C60.874 138.157 60.874 138.195 60.8763 138.234V138.34V138.45C60.8738 138.486 60.8738 138.523 60.8763 138.56C60.885 138.592 60.8973 138.624 60.913 138.654C60.9278 138.684 60.9486 138.71 60.9742 138.731C61.0042 138.752 61.0372 138.769 61.0721 138.78C61.118 138.789 61.165 138.789 61.2108 138.78C61.2568 138.786 61.3035 138.786 61.3495 138.78Z" fill="white"/>
<path d="M62.8668 138.907C62.7952 138.887 62.7293 138.851 62.6751 138.801C62.6256 138.756 62.5878 138.7 62.5649 138.637C62.5395 138.575 62.5243 138.509 62.5201 138.442C62.5122 138.368 62.5122 138.294 62.5201 138.221C62.5197 138.121 62.5403 138.021 62.5806 137.929C62.6208 137.836 62.6798 137.753 62.7539 137.685C62.8279 137.617 62.9154 137.565 63.0106 137.532C63.1059 137.499 63.207 137.487 63.3073 137.495C63.7764 137.495 63.9804 137.728 63.9273 138.213C63.9205 138.288 63.9069 138.361 63.8865 138.433C63.8637 138.502 63.8322 138.568 63.7927 138.629C63.7529 138.691 63.7049 138.747 63.65 138.796C63.5849 138.845 63.5117 138.88 63.4338 138.902C63.3388 138.933 63.2397 138.948 63.1401 138.947C63.0473 138.949 62.9549 138.936 62.8668 138.907ZM63.3073 138.764C63.3477 138.753 63.3862 138.737 63.4215 138.715C63.4525 138.692 63.4799 138.664 63.5031 138.633C63.5272 138.605 63.5478 138.573 63.5643 138.539C63.581 138.505 63.5947 138.47 63.6051 138.433C63.6051 138.393 63.6255 138.356 63.6336 138.323V138.213C63.6336 138.172 63.6336 138.136 63.6336 138.103C63.6356 138.065 63.6356 138.027 63.6336 137.989C63.6359 137.953 63.6359 137.918 63.6336 137.883C63.6252 137.851 63.6114 137.82 63.5929 137.793C63.577 137.763 63.5547 137.736 63.5276 137.715C63.4973 137.696 63.4644 137.681 63.4297 137.671C63.3852 137.662 63.3396 137.662 63.2951 137.671C63.2477 137.664 63.1997 137.664 63.1523 137.671C63.1146 137.681 63.0787 137.698 63.0463 137.72C63.0131 137.74 62.984 137.766 62.9606 137.797C62.9375 137.825 62.917 137.855 62.8994 137.887C62.8994 137.919 62.8709 137.956 62.8586 137.997C62.8464 138.038 62.8586 138.074 62.8301 138.107C62.8015 138.14 62.8301 138.18 62.8301 138.221C62.8282 138.257 62.8282 138.292 62.8301 138.327V138.45C62.8275 138.486 62.8275 138.523 62.8301 138.56C62.8392 138.593 62.8529 138.624 62.8709 138.654C62.8866 138.683 62.9073 138.709 62.932 138.731C62.9631 138.753 62.9975 138.77 63.034 138.78C63.08 138.787 63.1267 138.787 63.1727 138.78C63.2182 138.783 63.2638 138.777 63.3073 138.764Z" fill="white"/>
<path d="M64.8248 138.894C64.7536 138.874 64.688 138.838 64.6331 138.788C64.5836 138.744 64.5458 138.688 64.523 138.625C64.4944 138.564 64.4778 138.497 64.474 138.429C64.466 138.356 64.466 138.282 64.474 138.209C64.4713 138.109 64.4899 138.009 64.5285 137.916C64.5672 137.824 64.625 137.74 64.6983 137.672C64.7715 137.603 64.8585 137.551 64.9534 137.518C65.0484 137.486 65.1491 137.474 65.2491 137.483C65.7141 137.483 65.9262 137.715 65.8813 138.201C65.8745 138.275 65.8608 138.349 65.8405 138.421C65.8189 138.489 65.7902 138.555 65.7549 138.617C65.7159 138.68 65.6662 138.735 65.608 138.78C65.5447 138.83 65.4728 138.867 65.3959 138.89C65.3024 138.921 65.2046 138.936 65.1063 138.935C65.0109 138.937 64.9157 138.923 64.8248 138.894ZM65.2654 138.752C65.3047 138.742 65.3419 138.725 65.3755 138.703C65.4079 138.68 65.4367 138.652 65.4612 138.621C65.484 138.592 65.5032 138.561 65.5183 138.527C65.5343 138.493 65.5479 138.457 65.5591 138.421C65.5591 138.38 65.5672 138.344 65.5835 138.311V138.201C65.5835 138.16 65.5835 138.123 65.5835 138.091C65.5855 138.053 65.5855 138.015 65.5835 137.977C65.5811 137.94 65.5742 137.905 65.5631 137.87C65.5547 137.838 65.5409 137.808 65.5224 137.781C65.5076 137.75 65.4851 137.723 65.4571 137.703C65.4273 137.683 65.3942 137.668 65.3592 137.658C65.3142 137.645 65.2675 137.638 65.2205 137.638C65.1737 137.64 65.1273 137.647 65.0818 137.658C65.044 137.669 65.0082 137.685 64.9758 137.707C64.9449 137.727 64.9173 137.752 64.8942 137.781C64.871 137.81 64.8505 137.841 64.833 137.875C64.8169 137.909 64.8033 137.944 64.7922 137.981C64.7806 138.018 64.7724 138.056 64.7677 138.095C64.7652 138.133 64.7652 138.171 64.7677 138.209C64.7677 138.246 64.7677 138.282 64.7677 138.315C64.7658 138.352 64.7658 138.389 64.7677 138.425C64.7652 138.462 64.7652 138.499 64.7677 138.535C64.7786 138.568 64.7922 138.599 64.8085 138.629C64.8258 138.657 64.8479 138.682 64.8738 138.703C64.9045 138.726 64.939 138.744 64.9758 138.756C65.0217 138.762 65.0685 138.762 65.1144 138.756C65.1647 138.762 65.2156 138.761 65.2654 138.752Z" fill="white"/>
<path d="M66.7827 138.882C66.7115 138.862 66.6459 138.826 66.591 138.776C66.5416 138.73 66.5027 138.675 66.4767 138.613C66.4497 138.551 66.4318 138.485 66.4237 138.417C66.4196 138.344 66.4196 138.27 66.4237 138.197C66.4198 138.097 66.4373 137.997 66.475 137.905C66.5127 137.812 66.5698 137.729 66.6424 137.66C66.715 137.591 66.8015 137.539 66.8961 137.506C66.9906 137.473 67.091 137.461 67.1906 137.471C67.6556 137.471 67.8718 137.703 67.831 138.189C67.8278 138.262 67.8154 138.335 67.7943 138.405C67.7767 138.475 67.7492 138.542 67.7127 138.605C67.6751 138.667 67.6268 138.722 67.5699 138.768C67.5061 138.817 67.4344 138.854 67.3578 138.878C67.2638 138.906 67.1664 138.922 67.0682 138.923C66.9714 138.925 66.8749 138.912 66.7827 138.882ZM67.2232 138.739C67.2628 138.728 67.3001 138.71 67.3333 138.686C67.3644 138.665 67.3919 138.639 67.4149 138.609C67.4353 138.576 67.4557 138.548 67.472 138.515L67.5088 138.409C67.5088 138.368 67.5169 138.331 67.5332 138.299V138.189C67.5332 138.148 67.5332 138.111 67.5332 138.074C67.5351 138.038 67.5351 138.001 67.5332 137.964C67.5274 137.928 67.5193 137.893 67.5088 137.858C67.5012 137.826 67.4873 137.795 67.468 137.769C67.4518 137.738 67.4296 137.712 67.4027 137.691C67.3723 137.669 67.3375 137.654 67.3007 137.646C67.2561 137.64 67.2107 137.64 67.1661 137.646C67.1187 137.64 67.0707 137.64 67.0233 137.646C66.9856 137.657 66.9498 137.673 66.9173 137.695C66.8872 137.716 66.8598 137.741 66.8357 137.769C66.8153 137.801 66.7949 137.83 66.7786 137.862L66.7419 137.968C66.7303 138.006 66.7221 138.044 66.7174 138.083C66.7174 138.115 66.7174 138.152 66.7174 138.193C66.7174 138.234 66.7174 138.27 66.7174 138.303C66.7155 138.34 66.7155 138.376 66.7174 138.413C66.7211 138.449 66.7279 138.484 66.7378 138.519C66.7472 138.552 66.7609 138.584 66.7786 138.613C66.7962 138.643 66.8198 138.67 66.8479 138.69C66.8769 138.713 66.9102 138.73 66.9458 138.739C66.9904 138.755 67.0374 138.762 67.0845 138.76C67.1315 138.759 67.1781 138.752 67.2232 138.739Z" fill="white"/>
<path d="M70.9516 138.858C70.8791 138.838 70.8122 138.801 70.7558 138.752C70.7053 138.706 70.665 138.651 70.6375 138.588C70.6068 138.527 70.5861 138.461 70.5763 138.393C70.568 138.319 70.568 138.246 70.5763 138.172C70.568 138.074 70.5815 137.975 70.6159 137.882C70.6502 137.789 70.7046 137.705 70.7751 137.636C70.8455 137.567 70.9304 137.514 71.0237 137.481C71.1169 137.448 71.2163 137.436 71.3146 137.446C71.7796 137.446 71.9999 137.683 71.9795 138.164C71.9766 138.238 71.967 138.312 71.951 138.384C71.9341 138.453 71.908 138.519 71.8735 138.58C71.8388 138.642 71.7932 138.698 71.7389 138.743C71.676 138.791 71.6058 138.829 71.5308 138.854C71.4373 138.884 71.3395 138.899 71.2412 138.898C71.143 138.901 71.0451 138.888 70.9516 138.858ZM71.384 138.715C71.4229 138.704 71.46 138.688 71.4941 138.666C71.523 138.642 71.549 138.614 71.5716 138.584C71.5934 138.556 71.6112 138.524 71.6246 138.491C71.6399 138.456 71.6522 138.421 71.6613 138.384C71.6613 138.344 71.6613 138.307 71.6613 138.274C71.6637 138.238 71.6637 138.201 71.6613 138.164C71.6632 138.127 71.6632 138.091 71.6613 138.054C71.6634 138.017 71.6634 137.981 71.6613 137.944C71.6613 137.903 71.6613 137.866 71.6369 137.838C71.6244 137.805 71.6094 137.774 71.592 137.744C71.5718 137.716 71.547 137.691 71.5186 137.671C71.488 137.648 71.4534 137.631 71.4166 137.622C71.372 137.615 71.3266 137.615 71.282 137.622C71.235 137.622 71.1883 137.628 71.1433 137.642C71.1064 137.653 71.0708 137.668 71.0372 137.687C71.0075 137.708 70.9813 137.735 70.9597 137.764C70.9367 137.792 70.9188 137.824 70.9067 137.858C70.8908 137.892 70.8785 137.928 70.87 137.964C70.87 138.005 70.87 138.042 70.8496 138.074C70.8474 138.112 70.8474 138.151 70.8496 138.189C70.8476 138.224 70.8476 138.259 70.8496 138.295C70.8476 138.331 70.8476 138.368 70.8496 138.405C70.853 138.442 70.8612 138.479 70.8741 138.515C70.885 138.548 70.9001 138.58 70.919 138.609C70.9376 138.638 70.961 138.664 70.9883 138.686C71.0189 138.709 71.0535 138.726 71.0903 138.735C71.1363 138.742 71.183 138.742 71.229 138.735C71.2816 138.735 71.3339 138.727 71.384 138.711V138.715Z" fill="white"/>
<path d="M72.9056 138.858C72.8323 138.837 72.7642 138.8 72.7057 138.752C72.6552 138.706 72.6149 138.651 72.5874 138.588C72.5548 138.528 72.5341 138.461 72.5262 138.393C72.5176 138.319 72.5176 138.246 72.5262 138.172C72.5137 138.075 72.5232 137.975 72.554 137.882C72.5848 137.788 72.636 137.703 72.7041 137.632C72.7721 137.561 72.8551 137.506 72.9472 137.471C73.0392 137.436 73.1379 137.422 73.236 137.43C73.701 137.43 73.9254 137.667 73.909 138.148C73.9102 138.29 73.8766 138.43 73.8111 138.556C73.7765 138.618 73.7309 138.673 73.6765 138.719C73.6158 138.768 73.5467 138.805 73.4726 138.829C73.3786 138.857 73.2811 138.873 73.183 138.874C73.0902 138.883 72.9966 138.878 72.9056 138.858ZM73.338 138.715C73.3766 138.705 73.4127 138.687 73.444 138.662C73.4747 138.641 73.501 138.615 73.5215 138.584C73.5433 138.556 73.5611 138.524 73.5745 138.491C73.5878 138.456 73.5987 138.421 73.6072 138.384C73.6072 138.344 73.6072 138.307 73.6072 138.274C73.6072 138.242 73.6072 138.205 73.6072 138.164V138.042C73.6092 138.005 73.6092 137.968 73.6072 137.932C73.6024 137.896 73.5942 137.86 73.5827 137.826C73.5705 137.792 73.5541 137.761 73.5338 137.732C73.515 137.704 73.4915 137.679 73.4644 137.658C73.4334 137.636 73.3989 137.62 73.3624 137.609C73.3165 137.603 73.2697 137.603 73.2238 137.609C73.1778 137.603 73.1311 137.603 73.0851 137.609C73.0493 137.622 73.015 137.638 72.9831 137.658C72.9524 137.679 72.9261 137.705 72.9056 137.736C72.8835 137.763 72.8656 137.793 72.8526 137.826C72.8387 137.861 72.8278 137.898 72.8199 137.936C72.8199 137.977 72.8199 138.013 72.7995 138.046C72.7791 138.079 72.7995 138.119 72.7995 138.16V138.266C72.7955 138.303 72.7955 138.34 72.7995 138.376C72.8029 138.414 72.8111 138.451 72.824 138.486C72.834 138.519 72.8491 138.549 72.8689 138.576C72.8876 138.606 72.9111 138.632 72.9382 138.654C72.9692 138.676 73.0037 138.692 73.0402 138.703C73.0848 138.718 73.1318 138.725 73.1789 138.723C73.2329 138.723 73.2866 138.715 73.338 138.699V138.715Z" fill="white"/>
<path d="M74.8676 138.829C74.7946 138.807 74.7267 138.771 74.6677 138.723C74.6147 138.679 74.5728 138.623 74.5453 138.56C74.5145 138.498 74.4925 138.432 74.4801 138.364C74.4734 138.291 74.4734 138.217 74.4801 138.144C74.4685 138.046 74.479 137.948 74.5108 137.855C74.5427 137.762 74.5951 137.678 74.6641 137.608C74.733 137.538 74.8169 137.485 74.9093 137.452C75.0018 137.419 75.1004 137.407 75.198 137.418C75.663 137.418 75.8914 137.654 75.8833 138.136C75.8829 138.21 75.8761 138.283 75.8629 138.356C75.8493 138.425 75.8245 138.491 75.7895 138.552C75.7576 138.614 75.7131 138.67 75.6589 138.715C75.5992 138.765 75.5298 138.803 75.455 138.825C75.3627 138.854 75.2662 138.868 75.1694 138.866C75.0675 138.869 74.9658 138.856 74.8676 138.829ZM75.2755 138.686C75.3135 138.674 75.3493 138.657 75.3815 138.633C75.4113 138.612 75.4375 138.586 75.4591 138.556C75.4785 138.526 75.4949 138.495 75.508 138.462C75.5213 138.427 75.5322 138.392 75.5406 138.356C75.5406 138.315 75.5406 138.278 75.5406 138.246C75.5406 138.213 75.5406 138.176 75.5406 138.136C75.5428 138.099 75.5428 138.062 75.5406 138.025C75.5444 137.988 75.5444 137.949 75.5406 137.911C75.5348 137.875 75.5267 137.84 75.5162 137.805C75.503 137.774 75.4866 137.744 75.4672 137.715C75.447 137.687 75.4222 137.662 75.3938 137.642C75.3628 137.62 75.3283 137.604 75.2918 137.593C75.2458 137.586 75.1991 137.586 75.1531 137.593C75.1071 137.587 75.0604 137.587 75.0144 137.593C74.9779 137.604 74.9435 137.62 74.9124 137.642C74.8827 137.664 74.8565 137.69 74.835 137.72C74.8155 137.748 74.7991 137.778 74.786 137.809C74.7721 137.845 74.7612 137.882 74.7534 137.919C74.7534 137.956 74.7534 137.997 74.7534 138.03C74.7512 138.068 74.7512 138.106 74.7534 138.144C74.7493 138.179 74.7493 138.215 74.7534 138.25C74.7498 138.286 74.7498 138.323 74.7534 138.36C74.7563 138.396 74.7645 138.432 74.7778 138.466C74.79 138.499 74.8065 138.531 74.8268 138.56C74.8459 138.592 74.8713 138.619 74.9015 138.641C74.9316 138.663 74.9659 138.678 75.0022 138.686C75.0471 138.7 75.0939 138.707 75.1409 138.707C75.1865 138.706 75.2318 138.699 75.2755 138.686Z" fill="white"/>
<path d="M76.8092 138.817C76.7366 138.794 76.6688 138.758 76.6093 138.711C76.5563 138.666 76.5132 138.61 76.4828 138.548C76.452 138.486 76.43 138.42 76.4176 138.352C76.4043 138.279 76.3975 138.205 76.3972 138.132C76.3835 138.035 76.3921 137.936 76.4224 137.843C76.4528 137.75 76.5039 137.666 76.572 137.596C76.6402 137.525 76.7234 137.472 76.8154 137.439C76.9074 137.406 77.0057 137.395 77.1029 137.405C77.5679 137.405 77.8004 137.642 77.8004 138.123C77.8023 138.196 77.7954 138.269 77.78 138.34C77.7682 138.409 77.7462 138.476 77.7147 138.539C77.6818 138.602 77.6375 138.657 77.5842 138.703C77.5255 138.752 77.4576 138.79 77.3843 138.813C77.2915 138.84 77.1954 138.853 77.0988 138.854C77.001 138.855 76.9035 138.843 76.8092 138.817ZM77.2375 138.674C77.2747 138.661 77.3103 138.643 77.3435 138.621C77.3729 138.6 77.3979 138.574 77.4169 138.544C77.4364 138.514 77.4528 138.483 77.4659 138.45C77.4802 138.414 77.4898 138.377 77.4945 138.34C77.4945 138.303 77.4945 138.266 77.4945 138.234C77.4945 138.201 77.4945 138.164 77.4945 138.123C77.4945 138.083 77.4945 138.046 77.4945 138.013C77.4945 137.981 77.4945 137.94 77.4945 137.899C77.4873 137.863 77.4778 137.828 77.4659 137.793C77.4528 137.761 77.4364 137.731 77.4169 137.703C77.3967 137.675 77.3719 137.65 77.3435 137.63C77.3125 137.608 77.278 137.591 77.2416 137.581C77.1955 137.574 77.1489 137.574 77.1029 137.581C77.0569 137.574 77.0102 137.574 76.9642 137.581C76.9277 137.591 76.8932 137.608 76.8622 137.63C76.8328 137.651 76.8078 137.677 76.7888 137.707C76.7667 137.734 76.7488 137.765 76.7357 137.797C76.7357 137.83 76.7154 137.866 76.7072 137.907C76.7052 137.944 76.7052 137.981 76.7072 138.017C76.7072 138.05 76.7072 138.091 76.7072 138.127C76.7072 138.164 76.7072 138.205 76.7072 138.238C76.7072 138.27 76.7072 138.307 76.7072 138.348C76.7138 138.384 76.7233 138.419 76.7357 138.454C76.7479 138.487 76.7644 138.519 76.7847 138.548C76.8038 138.578 76.8287 138.604 76.8581 138.625C76.8902 138.648 76.9261 138.664 76.9642 138.674C77.0091 138.688 77.0559 138.695 77.1029 138.694C77.1485 138.694 77.1938 138.687 77.2375 138.674Z" fill="white"/>
<path d="M80.9863 138.788C80.9102 138.768 80.8393 138.732 80.7783 138.682C80.7252 138.636 80.681 138.581 80.6478 138.519C80.615 138.457 80.5903 138.391 80.5743 138.323C80.5572 138.251 80.549 138.177 80.5499 138.103C80.5499 137.622 80.7661 137.381 81.2311 137.381C81.3278 137.369 81.426 137.38 81.5181 137.411C81.6103 137.443 81.6941 137.495 81.7632 137.564C81.8323 137.632 81.8849 137.716 81.9171 137.808C81.9493 137.9 81.9602 137.998 81.949 138.095C81.9573 138.168 81.9573 138.242 81.949 138.315C81.9399 138.383 81.9192 138.45 81.8878 138.511C81.8603 138.574 81.8184 138.63 81.7654 138.674C81.7083 138.724 81.6417 138.761 81.5696 138.784C81.3828 138.836 81.1854 138.836 80.9986 138.784L80.9863 138.788ZM81.3942 138.645C81.4657 138.623 81.5274 138.577 81.5696 138.515C81.5885 138.486 81.6036 138.454 81.6145 138.421C81.6274 138.387 81.6356 138.351 81.639 138.315C81.639 138.274 81.639 138.238 81.639 138.205V138.099C81.639 138.058 81.639 138.017 81.639 137.985C81.639 137.952 81.639 137.915 81.639 137.875C81.639 137.834 81.6186 137.801 81.6063 137.768L81.5533 137.675C81.5306 137.647 81.5046 137.622 81.4758 137.601C81.4448 137.579 81.4103 137.563 81.3738 137.552C81.3277 137.548 81.2813 137.548 81.2351 137.552C81.1882 137.552 81.1414 137.559 81.0965 137.573C81.06 137.583 81.0255 137.6 80.9945 137.622C80.9684 137.643 80.9451 137.668 80.9251 137.695C80.9057 137.725 80.8893 137.756 80.8762 137.789C80.8762 137.817 80.8762 137.854 80.8517 137.895C80.8482 137.932 80.8482 137.968 80.8517 138.005V138.119C80.8495 138.155 80.8495 138.19 80.8517 138.225C80.8478 138.262 80.8478 138.299 80.8517 138.335C80.8583 138.373 80.8679 138.41 80.8803 138.446C80.8964 138.476 80.9141 138.506 80.9333 138.535C80.9538 138.566 80.9801 138.592 81.0108 138.613C81.0429 138.635 81.0788 138.652 81.1169 138.662C81.1627 138.671 81.2097 138.671 81.2556 138.662C81.3023 138.663 81.349 138.657 81.3942 138.645Z" fill="white"/>
<path d="M82.9115 138.776C82.836 138.754 82.7654 138.718 82.7034 138.67C82.6492 138.625 82.6048 138.57 82.5729 138.507C82.5384 138.445 82.5123 138.379 82.4954 138.311C82.4788 138.239 82.4693 138.165 82.4669 138.091C82.4465 137.609 82.6708 137.369 83.1358 137.369C83.233 137.357 83.3316 137.368 83.4242 137.4C83.5168 137.431 83.6012 137.483 83.6712 137.551C83.7412 137.62 83.795 137.703 83.8287 137.795C83.8624 137.887 83.8751 137.985 83.866 138.083C83.8722 138.156 83.8722 138.23 83.866 138.303C83.8565 138.371 83.8372 138.437 83.8089 138.499C83.7786 138.56 83.7371 138.616 83.6865 138.662C83.6294 138.711 83.5628 138.749 83.4907 138.772C83.3985 138.802 83.302 138.815 83.2052 138.813C83.106 138.815 83.0071 138.802 82.9115 138.776ZM83.3194 138.633C83.3561 138.621 83.3906 138.604 83.4214 138.58C83.4485 138.558 83.4719 138.532 83.4907 138.503C83.509 138.473 83.524 138.442 83.5356 138.409C83.548 138.375 83.5562 138.339 83.56 138.303C83.56 138.262 83.56 138.225 83.56 138.193V138.083C83.56 138.042 83.56 138.005 83.56 137.972C83.5572 137.935 83.5504 137.898 83.5397 137.862C83.5259 137.79 83.4967 137.722 83.454 137.662C83.4323 137.634 83.4061 137.609 83.3765 137.589C83.344 137.567 83.3082 137.551 83.2704 137.54C83.2243 137.535 83.1779 137.535 83.1317 137.54C83.0871 137.534 83.0418 137.534 82.9971 137.54C82.9606 137.551 82.9262 137.567 82.8951 137.589C82.8691 137.611 82.8458 137.635 82.8258 137.662C82.8059 137.691 82.7908 137.723 82.7809 137.756C82.7676 137.79 82.7594 137.826 82.7565 137.862C82.7565 137.903 82.7565 137.94 82.7565 137.972C82.7524 138.01 82.7524 138.049 82.7565 138.087C82.7543 138.122 82.7543 138.157 82.7565 138.193C82.7565 138.225 82.7565 138.262 82.7565 138.303C82.7637 138.339 82.7747 138.375 82.7891 138.409C82.8042 138.442 82.8234 138.474 82.8462 138.503C82.8653 138.533 82.8902 138.56 82.9196 138.58C82.9521 138.602 82.9879 138.619 83.0257 138.629C83.0721 138.643 83.1202 138.649 83.1685 138.65C83.2234 138.653 83.2785 138.648 83.3316 138.633H83.3194Z" fill="white"/>
<path d="M84.8571 138.764C84.7817 138.742 84.7111 138.706 84.6491 138.658C84.5947 138.612 84.5491 138.557 84.5145 138.495C84.4789 138.433 84.4515 138.367 84.4329 138.299C84.4152 138.227 84.4042 138.153 84.4003 138.079C84.3758 137.597 84.5961 137.357 85.057 137.357C85.1549 137.345 85.2541 137.355 85.3476 137.386C85.4411 137.417 85.5265 137.469 85.5975 137.537C85.6686 137.606 85.7236 137.689 85.7585 137.781C85.7934 137.873 85.8074 137.972 85.7994 138.07C85.8056 138.142 85.8056 138.215 85.7994 138.287C85.7919 138.355 85.774 138.423 85.7464 138.486C85.7164 138.547 85.6764 138.602 85.6281 138.65C85.5709 138.699 85.5043 138.737 85.4323 138.76C85.341 138.787 85.2461 138.801 85.1508 138.801C85.0517 138.802 84.9528 138.79 84.8571 138.764ZM85.265 138.621C85.301 138.608 85.3353 138.59 85.367 138.568C85.3952 138.547 85.4188 138.521 85.4364 138.491C85.4546 138.461 85.4696 138.429 85.4812 138.397C85.4835 138.361 85.4835 138.326 85.4812 138.291C85.4812 138.25 85.4812 138.213 85.4812 138.18C85.4831 138.144 85.4831 138.107 85.4812 138.07V137.96C85.4764 137.923 85.4696 137.886 85.4608 137.85C85.4542 137.813 85.4418 137.777 85.4241 137.744C85.4096 137.711 85.3918 137.68 85.3711 137.65C85.3484 137.623 85.3223 137.598 85.2936 137.577C85.2608 137.555 85.2251 137.539 85.1875 137.528C85.1414 137.524 85.095 137.524 85.0488 137.528C85.0019 137.528 84.9551 137.535 84.9102 137.548C84.8749 137.559 84.8418 137.575 84.8123 137.597C84.7851 137.618 84.7617 137.642 84.7429 137.671C84.724 137.7 84.7089 137.731 84.6981 137.764C84.695 137.8 84.695 137.835 84.6981 137.87C84.6943 137.907 84.6943 137.944 84.6981 137.981V138.095V138.201C84.7016 138.238 84.7084 138.275 84.7184 138.311C84.7257 138.347 84.7366 138.383 84.7511 138.417C84.7662 138.451 84.7853 138.482 84.8082 138.511C84.8287 138.542 84.855 138.568 84.8857 138.588C84.9182 138.61 84.954 138.627 84.9917 138.637C85.0368 138.651 85.0835 138.658 85.1304 138.658C85.1796 138.653 85.2278 138.641 85.2732 138.621H85.265Z" fill="white"/>
<path d="M86.803 138.747C86.7279 138.727 86.6573 138.692 86.595 138.646C86.5392 138.6 86.4922 138.545 86.4563 138.482C86.4193 138.421 86.3905 138.355 86.3706 138.287C86.3532 138.214 86.3423 138.141 86.338 138.066C86.3013 137.585 86.5175 137.344 86.9825 137.344C87.0805 137.333 87.1798 137.344 87.2733 137.376C87.3668 137.407 87.4523 137.459 87.5238 137.527C87.5953 137.595 87.6511 137.677 87.6872 137.769C87.7233 137.861 87.739 137.96 87.733 138.058C87.7412 138.13 87.7412 138.202 87.733 138.274C87.7255 138.343 87.7076 138.411 87.68 138.474C87.6529 138.535 87.6141 138.591 87.5658 138.637C87.5109 138.687 87.4453 138.723 87.3741 138.743C87.2835 138.774 87.1883 138.789 87.0926 138.788C86.9945 138.791 86.8967 138.777 86.803 138.747ZM87.2109 138.609C87.2469 138.595 87.2812 138.577 87.3129 138.556C87.3401 138.534 87.3636 138.508 87.3822 138.478C87.3985 138.448 87.4121 138.417 87.423 138.384C87.4257 138.348 87.4257 138.311 87.423 138.274C87.425 138.239 87.425 138.204 87.423 138.168C87.4249 138.132 87.4249 138.095 87.423 138.058V137.948C87.4188 137.911 87.4106 137.874 87.3985 137.838C87.3919 137.801 87.3796 137.765 87.3618 137.732C87.3471 137.698 87.3279 137.667 87.3047 137.638C87.283 137.609 87.2569 137.585 87.2272 137.565C87.1947 137.543 87.1589 137.526 87.1212 137.516C87.0752 137.509 87.0285 137.509 86.9825 137.516C86.9355 137.515 86.8887 137.522 86.8438 137.536C86.8089 137.547 86.7759 137.564 86.7459 137.585C86.6942 137.629 86.6561 137.687 86.6358 137.752C86.6258 137.787 86.619 137.822 86.6154 137.858C86.6154 137.899 86.6154 137.936 86.6154 137.968C86.6154 138.001 86.6154 138.042 86.6154 138.083C86.6132 138.118 86.6132 138.153 86.6154 138.189C86.6154 138.221 86.6154 138.258 86.6398 138.299C86.6471 138.336 86.6595 138.371 86.6766 138.405C86.6913 138.439 86.7105 138.47 86.7337 138.499C86.7542 138.529 86.7805 138.556 86.8112 138.576C86.8436 138.598 86.8795 138.615 86.9172 138.625C86.9644 138.634 87.0128 138.634 87.06 138.625C87.1122 138.628 87.1646 138.623 87.215 138.609H87.2109Z" fill="white"/>
<path d="M90.9431 138.723C90.8656 138.7 90.7925 138.664 90.7269 138.617C90.6711 138.57 90.623 138.515 90.5842 138.454C90.5445 138.393 90.5142 138.327 90.4944 138.258C90.4735 138.186 90.4598 138.112 90.4536 138.038C90.4047 137.56 90.6086 137.32 91.0737 137.316C91.1727 137.306 91.2726 137.317 91.367 137.349C91.4614 137.38 91.548 137.431 91.6212 137.499C91.6944 137.566 91.7525 137.648 91.7917 137.74C91.8309 137.831 91.8503 137.93 91.8487 138.03C91.8568 138.103 91.8568 138.177 91.8487 138.25C91.8435 138.317 91.8284 138.383 91.8038 138.446C91.7807 138.507 91.7445 138.563 91.6978 138.609C91.6422 138.658 91.5769 138.696 91.506 138.719C91.4149 138.747 91.3199 138.761 91.2246 138.76C91.1295 138.761 91.0348 138.748 90.9431 138.723ZM91.351 138.58C91.3861 138.568 91.4191 138.55 91.4489 138.527C91.4759 138.506 91.4981 138.48 91.5142 138.45C91.5299 138.42 91.5423 138.388 91.5509 138.356C91.5604 138.321 91.5672 138.286 91.5713 138.25V138.14C91.5732 138.104 91.5732 138.069 91.5713 138.034C91.5713 137.993 91.5713 137.956 91.5713 137.919C91.5713 137.883 91.5713 137.85 91.5428 137.809C91.5323 137.773 91.5187 137.737 91.502 137.703C91.4859 137.672 91.4667 137.641 91.4449 137.613C91.4218 137.585 91.3942 137.56 91.3633 137.54C91.3289 137.519 91.2919 137.502 91.2531 137.491C91.2071 137.485 91.1604 137.485 91.1144 137.491C91.0698 137.485 91.0245 137.485 90.9798 137.491C90.9442 137.501 90.9109 137.517 90.8819 137.54C90.8561 137.562 90.8341 137.588 90.8167 137.618C90.799 137.645 90.7853 137.676 90.7759 137.707C90.7733 137.743 90.7733 137.778 90.7759 137.813C90.7738 137.85 90.7738 137.887 90.7759 137.923C90.7759 137.96 90.7759 137.997 90.7759 138.038V138.144C90.7835 138.181 90.793 138.218 90.8044 138.254C90.8129 138.29 90.8252 138.326 90.8411 138.36C90.8577 138.394 90.8782 138.425 90.9023 138.454C90.9243 138.485 90.952 138.511 90.9839 138.531C91.0175 138.554 91.0548 138.57 91.094 138.58C91.1391 138.594 91.1858 138.6 91.2327 138.601C91.2729 138.599 91.3126 138.592 91.351 138.58Z" fill="white"/>
<path d="M92.8808 138.711C92.8052 138.686 92.7337 138.651 92.6687 138.605C92.6105 138.559 92.5608 138.504 92.5218 138.442C92.4824 138.381 92.4509 138.315 92.428 138.246C92.4056 138.174 92.3906 138.1 92.3832 138.025C92.326 137.548 92.53 137.308 92.9909 137.303C93.0905 137.294 93.191 137.305 93.286 137.337C93.381 137.368 93.4684 137.419 93.5425 137.486C93.6166 137.553 93.6759 137.635 93.7165 137.727C93.7571 137.818 93.7781 137.917 93.7782 138.017C93.7842 138.091 93.7842 138.164 93.7782 138.238C93.7744 138.305 93.7607 138.371 93.7374 138.433C93.7133 138.494 93.6773 138.55 93.6314 138.597C93.5781 138.646 93.5138 138.683 93.4437 138.703C93.3533 138.734 93.258 138.749 93.1623 138.747C93.0672 138.748 92.9726 138.736 92.8808 138.711ZM93.2887 138.568C93.3239 138.555 93.3569 138.538 93.3866 138.515C93.4124 138.493 93.4345 138.467 93.4519 138.437C93.485 138.376 93.5019 138.307 93.5008 138.238C93.5049 138.201 93.5049 138.164 93.5008 138.127C93.5027 138.092 93.5027 138.057 93.5008 138.021C93.4964 137.983 93.4895 137.945 93.4804 137.907C93.4757 137.869 93.4661 137.832 93.4519 137.797C93.4414 137.761 93.4278 137.725 93.4111 137.691C93.3945 137.659 93.3739 137.629 93.3499 137.601C93.3269 137.571 93.2994 137.545 93.2683 137.524C93.233 137.506 93.1961 137.491 93.1582 137.479C93.1122 137.472 93.0655 137.472 93.0195 137.479C92.9749 137.472 92.9295 137.472 92.8849 137.479C92.85 137.49 92.817 137.507 92.787 137.528C92.7623 137.548 92.7416 137.573 92.7258 137.601C92.7072 137.63 92.6934 137.662 92.685 137.695C92.6825 137.73 92.6825 137.766 92.685 137.801C92.6831 137.838 92.6831 137.875 92.685 137.911V138.025C92.6827 138.061 92.6827 138.096 92.685 138.132C92.6912 138.169 92.7007 138.206 92.7136 138.242C92.7233 138.278 92.7369 138.314 92.7544 138.348C92.7709 138.381 92.7914 138.413 92.8155 138.442C92.8375 138.472 92.8652 138.499 92.8971 138.519C92.9307 138.542 92.968 138.558 93.0073 138.568C93.0533 138.575 93.0999 138.575 93.1459 138.568C93.1934 138.573 93.2413 138.573 93.2887 138.568Z" fill="white"/>
<path d="M94.8226 138.694C94.7444 138.673 94.6709 138.637 94.6064 138.588C94.5467 138.55 94.493 138.504 94.4473 138.45C94.4079 138.389 94.3763 138.323 94.3535 138.254C94.3316 138.182 94.3152 138.108 94.3045 138.034C94.2393 137.556 94.4391 137.316 94.9001 137.312C95.0014 137.3 95.104 137.31 95.2014 137.341C95.2987 137.371 95.3886 137.422 95.4653 137.489C95.5421 137.556 95.604 137.638 95.6471 137.731C95.6903 137.823 95.7137 137.924 95.7159 138.025C95.7196 138.097 95.7196 138.17 95.7159 138.242C95.7126 138.31 95.6989 138.377 95.6751 138.442C95.6525 138.502 95.6178 138.558 95.5731 138.605C95.5204 138.655 95.4559 138.692 95.3855 138.711C95.2963 138.742 95.2025 138.757 95.1081 138.756C95.0103 138.751 94.9139 138.73 94.8226 138.694ZM95.2305 138.552C95.2654 138.54 95.2984 138.524 95.3284 138.503C95.3531 138.481 95.3738 138.454 95.3896 138.425C95.4227 138.364 95.4396 138.295 95.4385 138.225V138.115V138.009C95.4385 137.968 95.4385 137.928 95.4181 137.895C95.4099 137.858 95.3989 137.821 95.3855 137.785C95.3751 137.748 95.3614 137.713 95.3447 137.679C95.3267 137.646 95.3048 137.616 95.2794 137.589C95.2564 137.559 95.2289 137.533 95.1979 137.512C95.1625 137.493 95.1257 137.478 95.0877 137.467C95.0417 137.46 94.995 137.46 94.949 137.467C94.9044 137.46 94.859 137.46 94.8144 137.467C94.7792 137.477 94.746 137.494 94.7165 137.516C94.6919 137.536 94.6711 137.561 94.6553 137.589C94.6396 137.619 94.6273 137.65 94.6186 137.683C94.614 137.718 94.614 137.754 94.6186 137.789C94.6146 137.825 94.6146 137.862 94.6186 137.899C94.6148 137.937 94.6148 137.975 94.6186 138.013C94.6186 138.05 94.6186 138.087 94.6186 138.119C94.6186 138.152 94.6186 138.189 94.6472 138.229C94.6581 138.266 94.6732 138.302 94.6921 138.335C94.7086 138.369 94.7291 138.401 94.7532 138.429C94.7767 138.46 94.8057 138.487 94.8389 138.507C94.8725 138.529 94.9098 138.546 94.949 138.556C94.9949 138.564 95.0419 138.564 95.0877 138.556C95.1338 138.563 95.1809 138.562 95.2264 138.552H95.2305Z" fill="white"/>
<path d="M96.7599 138.682C96.6817 138.661 96.6082 138.625 96.5437 138.576C96.4834 138.534 96.4322 138.48 96.3928 138.417C96.3509 138.356 96.3166 138.29 96.2908 138.221C96.2693 138.149 96.2529 138.076 96.2418 138.001C96.1684 137.524 96.3642 137.283 96.8251 137.279C96.9263 137.269 97.0284 137.28 97.1252 137.311C97.222 137.342 97.3114 137.392 97.3879 137.459C97.4643 137.526 97.5263 137.608 97.5698 137.7C97.6133 137.792 97.6376 137.891 97.641 137.993C97.6466 138.065 97.6466 138.137 97.641 138.209C97.641 138.277 97.6286 138.345 97.6042 138.409C97.5838 138.471 97.5488 138.527 97.5023 138.572C97.4507 138.622 97.3877 138.658 97.3187 138.678C97.134 138.735 96.9364 138.735 96.7517 138.678L96.7599 138.682ZM97.1678 138.539C97.2034 138.53 97.2367 138.513 97.2657 138.491C97.2904 138.468 97.3111 138.442 97.3269 138.413C97.3425 138.384 97.3535 138.352 97.3595 138.319C97.364 138.283 97.364 138.246 97.3595 138.209C97.3616 138.174 97.3616 138.138 97.3595 138.103C97.3631 138.066 97.3631 138.029 97.3595 137.993C97.3595 137.952 97.3595 137.915 97.3391 137.883C97.3187 137.85 97.3187 137.813 97.3065 137.773C97.2948 137.736 97.2797 137.7 97.2616 137.667C97.2436 137.634 97.2217 137.604 97.1963 137.577C97.1729 137.546 97.1438 137.52 97.1107 137.499C97.076 137.48 97.039 137.465 97.0006 137.454C96.9545 137.448 96.9079 137.448 96.8619 137.454C96.8172 137.448 96.7719 137.448 96.7272 137.454C96.6932 137.465 96.6614 137.481 96.6334 137.503C96.6087 137.524 96.588 137.549 96.5722 137.577C96.5565 137.607 96.5442 137.638 96.5355 137.671C96.5355 137.703 96.5355 137.736 96.5355 137.777C96.5333 137.813 96.5333 137.85 96.5355 137.887V138.001C96.5355 138.038 96.5355 138.074 96.5355 138.107C96.5355 138.14 96.5559 138.176 96.5682 138.217C96.5799 138.254 96.5949 138.289 96.613 138.323C96.6305 138.356 96.651 138.388 96.6742 138.417C96.6996 138.446 96.7284 138.472 96.7599 138.495C96.7943 138.516 96.8313 138.532 96.87 138.544C96.9174 138.55 96.9654 138.55 97.0128 138.544C97.0614 138.553 97.1116 138.552 97.1596 138.539H97.1678Z" fill="white"/>
<path d="M95.3608 142.239C95.4914 143.19 94.545 143.977 93.2356 143.985C91.9262 143.993 90.7882 143.222 90.6944 142.276C90.6005 141.33 91.555 140.583 92.8277 140.575C94.1004 140.567 95.2303 141.305 95.3608 142.239Z" fill="white" stroke="#263238" stroke-width="0.407908" stroke-linecap="round" stroke-linejoin="round"/>
<path d="M98.5262 142.219C98.6812 143.165 97.7511 143.952 96.4458 143.961C95.1405 143.969 93.9984 143.202 93.8638 142.251C93.7292 141.301 94.6796 140.563 95.9523 140.555C97.2249 140.546 98.3752 141.305 98.5262 142.219Z" fill="white" stroke="#263238" stroke-width="0.407908" stroke-linecap="round" stroke-linejoin="round"/>
<path d="M30.5238 158.058C30.5238 158.058 39.6446 138.935 41.0478 135.252C42.451 131.568 62.0999 122.268 63.1523 120.502C64.2047 118.735 65.5998 113.31 66.6644 111.03C67.7291 108.75 66.8398 107.869 67.5414 105.939C68.243 104.01 69.4708 101.73 67.7168 101.73C65.9628 101.73 63.6826 103.659 62.8015 106.816C61.9204 109.974 58.4165 112.609 58.4165 112.609L58.5919 110.504C58.7673 108.395 60.8721 101.905 61.7491 100.502C62.6261 99.0988 67.8922 93.486 68.5938 93.3106C69.2954 93.1352 70.874 94.7138 72.4526 94.7138C74.0312 94.7138 74.382 93.4901 73.505 92.7844C72.628 92.0787 71.9264 89.7985 69.8339 88.3953C67.7413 86.9921 65.4489 88.3953 65.4489 88.3953C64.8636 87.4213 64.2193 86.4841 63.5195 85.5889C62.6384 84.5365 60.8844 82.7825 58.6042 82.2563C57.9364 82.1038 57.2428 82.1035 56.5749 82.2553C55.9069 82.4071 55.2817 82.7072 54.7453 83.1333C53.9376 82.9654 53.1202 82.8482 52.2979 82.7825C50.5439 82.6071 49.3161 83.6595 47.5621 86.4536C45.8081 89.2478 42.9976 94.7015 42.9976 94.7015C42.9976 94.7015 43.6992 89.6108 43.6992 87.506C43.6992 85.4012 43.8746 83.121 42.9976 82.244C42.1206 81.367 41.2436 82.4194 40.8928 85.5766C40.542 88.7338 36.5078 99.7882 35.9979 102.77C35.488 105.752 29.8589 122.244 26.873 126.457C23.8871 130.671 7.75024 149.088 7.75024 149.088M55.7855 95.9538C55.7855 95.9538 58.233 88.9337 58.9427 88.9337C59.6525 88.9337 62.2753 90.8631 62.2753 90.8631L55.7855 95.9538Z" fill="white"/>
<path d="M30.5238 158.058C30.5238 158.058 39.6446 138.935 41.0478 135.252C42.451 131.568 62.0999 122.268 63.1523 120.502C64.2047 118.735 65.5998 113.31 66.6644 111.03C67.7291 108.75 66.8398 107.869 67.5414 105.939C68.243 104.01 69.4708 101.73 67.7168 101.73C65.9628 101.73 63.6826 103.659 62.8015 106.816C61.9204 109.974 58.4165 112.609 58.4165 112.609L58.5919 110.504C58.7673 108.395 60.8721 101.905 61.7491 100.502C62.6261 99.0988 67.8922 93.486 68.5938 93.3106C69.2954 93.1352 70.874 94.7138 72.4526 94.7138C74.0312 94.7138 74.382 93.4901 73.505 92.7844C72.628 92.0787 71.9264 89.7985 69.8339 88.3953C67.7413 86.9921 65.4489 88.3953 65.4489 88.3953C64.8636 87.4213 64.2193 86.4841 63.5194 85.5889C62.6384 84.5365 60.8844 82.7825 58.6042 82.2563C57.9364 82.1038 57.2428 82.1035 56.5749 82.2553C55.9069 82.4071 55.2817 82.7072 54.7453 83.1333C53.9376 82.9654 53.1202 82.8482 52.2979 82.7825C50.5439 82.6071 49.3161 83.6595 47.5621 86.4536C45.8081 89.2478 42.9976 94.7015 42.9976 94.7015C42.9976 94.7015 43.6992 89.6108 43.6992 87.506C43.6992 85.4012 43.8746 83.121 42.9976 82.244C42.1206 81.367 41.2436 82.4194 40.8928 85.5766C40.542 88.7338 36.5078 99.7882 35.9979 102.77C35.488 105.752 29.8589 122.244 26.873 126.457C23.8871 130.671 7.75024 149.088 7.75024 149.088M55.7855 95.9538C55.7855 95.9538 58.233 88.9337 58.9427 88.9337C59.6525 88.9337 62.2753 90.8631 62.2753 90.8631L55.7855 95.9538Z" stroke="#263238" stroke-width="0.407908" stroke-linecap="round" stroke-linejoin="round"/>
<path d="M34.5498 110.394C34.5498 110.394 37.5398 101.04 38.0374 98.6338C38.3923 96.9369 39.6487 98.9152 39.6487 98.9152C39.6487 98.9152 42.0961 97.1653 42.0961 98.6338C42.124 99.5669 42.4451 100.467 43.0139 101.208C43.0139 101.208 42.4632 98.6338 45.0534 97.8996C47.6437 97.1653 48.7246 98.2667 48.178 101.208C47.6314 104.149 48.5451 103.043 49.0958 102.309C49.6465 101.575 48.9123 99.7351 52.2204 98.4502C55.5285 97.1653 57.3682 98.4502 56.8134 101.208C56.2587 103.965 55.345 106.351 55.345 110.394C55.345 114.436 56.0792 118.111 56.8134 118.111C57.5477 118.111 61.5941 113.885 62.3284 116.643C63.0626 119.4 61.5941 119.4 57.7353 122.704C53.8765 126.009 43.7685 128.77 42.1165 132.086C40.4645 135.403 39.3591 137.414 38.2577 137.597C37.1563 137.781 35.3167 131.169 29.9853 131.886C24.654 132.604 19.1431 137.952 20.4321 135.745C21.7211 133.538 26.4936 130.035 29.2511 123.802C32.0085 117.569 34.5498 110.394 34.5498 110.394Z" fill="#E39292"/>
<path opacity="0.4" d="M34.5498 110.394C34.5498 110.394 37.5398 101.04 38.0374 98.6338C38.3923 96.9369 39.6487 98.9152 39.6487 98.9152C39.6487 98.9152 42.0961 97.1653 42.0961 98.6338C42.124 99.5669 42.4451 100.467 43.0139 101.208C43.0139 101.208 42.4632 98.6338 45.0534 97.8996C47.6437 97.1653 48.7246 98.2667 48.178 101.208C47.6314 104.149 48.5451 103.043 49.0958 102.309C49.6465 101.575 48.9123 99.7351 52.2204 98.4502C55.5285 97.1653 57.3682 98.4502 56.8134 101.208C56.2587 103.965 55.345 106.351 55.345 110.394C55.345 114.436 56.0792 118.111 56.8134 118.111C57.5477 118.111 61.5941 113.885 62.3284 116.643C63.0626 119.4 61.5941 119.4 57.7353 122.704C53.8765 126.009 43.7685 128.77 42.1165 132.086C40.4645 135.403 39.3591 137.414 38.2577 137.597C37.1563 137.781 35.3167 131.169 29.9853 131.886C24.654 132.604 19.1431 137.952 20.4321 135.745C21.7211 133.538 26.4936 130.035 29.2511 123.802C32.0085 117.569 34.5498 110.394 34.5498 110.394Z" fill="white"/>
<path d="M54.7332 83.1455C54.7332 83.1455 49.8383 91.5688 48.7696 93.3228C47.7009 95.0768 46.8402 96.6554 45.6083 97.357C44.3764 98.0586 43.5035 99.6372 43.8543 100.163" fill="white"/>
<path d="M54.7332 83.1455C54.7332 83.1455 49.8383 91.5688 48.7696 93.3228C47.7009 95.0768 46.8402 96.6554 45.6083 97.357C44.3764 98.0586 43.5035 99.6372 43.8543 100.163" stroke="#263238" stroke-width="0.407908" stroke-linecap="round" stroke-linejoin="round"/>
<path d="M42.9773 94.726C42.435 95.7194 41.7226 96.6099 40.8725 97.357C39.4693 98.5807 37.8907 99.6372 37.5399 101.028C37.2996 101.918 36.8835 102.75 36.3162 103.476" fill="white"/>
<path d="M42.9773 94.726C42.435 95.7194 41.7226 96.6099 40.8725 97.357C39.4693 98.5808 37.8907 99.6372 37.5399 101.028C37.2996 101.918 36.8835 102.75 36.3162 103.476" stroke="#263238" stroke-width="0.407908" stroke-linecap="round" stroke-linejoin="round"/>
<path d="M55.7857 95.9538C55.7857 95.9538 52.2777 98.234 51.4007 98.9356C50.5237 99.6372 50.177 101.216 50.177 101.216" fill="white"/>
<path d="M55.7857 95.9538C55.7857 95.9538 52.2777 98.234 51.4007 98.9356C50.5237 99.6372 50.177 101.216 50.177 101.216" stroke="#263238" stroke-width="0.407908" stroke-linecap="round" stroke-linejoin="round"/>
<path d="M65.4367 88.4075L62.2754 90.8631" stroke="#263238" stroke-width="0.407908" stroke-linecap="round" stroke-linejoin="round"/>
<path d="M150.763 147.061C150.763 147.061 134.797 131.45 133.57 128.297C132.342 125.144 132.693 124.438 131.64 122.178C130.588 119.918 127.431 116.015 127.255 113.204C127.08 110.394 125.677 103.729 125.677 101.448C125.677 99.1682 125.15 95.8355 124.453 95.3093C123.755 94.7831 119.888 93.9021 119.888 93.9021C119.888 93.9021 117.784 87.2368 116.217 86.886C114.651 86.5352 111.465 88.277 111.465 88.277C111.465 88.277 110.763 87.0533 109.886 85.1198C109.009 83.1863 107.439 83.1904 105.501 83.8961C103.564 84.6018 99.7091 86.1763 99.7091 86.1763C99.7091 86.1763 95.3241 82.8437 93.9209 84.9526C92.5177 87.0614 90.7637 90.9162 90.4129 92.3194C90.0621 93.7226 92.4891 93.6736 93.0153 93.3228C93.5415 92.972 95.5158 91.5199 95.5158 91.5199C95.5158 91.5199 99.3583 94.4242 100.06 96.0069C100.762 97.5896 102.165 104.952 102.34 106.356C102.516 107.759 101.814 112.144 101.814 112.144C101.814 112.144 98.4813 106.18 96.919 104.426C95.3567 102.672 93.0602 101.62 91.3062 101.62C89.5522 101.62 88.3244 103.549 89.7276 104.426C91.1308 105.303 92.7094 106.355 93.0602 107.583C93.411 108.811 96.919 115.13 97.2698 117.41C97.6206 119.69 100.076 124.25 102.356 125.654C104.637 127.057 113.06 128.811 114.639 130.394C116.217 131.976 127.447 154.252 127.447 154.252M102.866 89.5007H105.677L108.659 95.293L102.866 89.5007Z" fill="white"/>
<path d="M150.763 147.061C150.763 147.061 134.797 131.45 133.57 128.297C132.342 125.144 132.693 124.438 131.64 122.178C130.588 119.918 127.431 116.015 127.255 113.204C127.08 110.394 125.677 103.729 125.677 101.448C125.677 99.1682 125.15 95.8355 124.453 95.3093C123.755 94.7831 119.888 93.9021 119.888 93.9021C119.888 93.9021 117.784 87.2368 116.217 86.886C114.651 86.5352 111.465 88.277 111.465 88.277C111.465 88.277 110.763 87.0533 109.886 85.1198C109.009 83.1863 107.439 83.1904 105.501 83.8961C103.564 84.6018 99.7091 86.1763 99.7091 86.1763C99.7091 86.1763 95.3241 82.8437 93.9209 84.9526C92.5177 87.0614 90.7637 90.9162 90.4129 92.3194C90.0621 93.7226 92.4891 93.6736 93.0153 93.3228C93.5415 92.972 95.5158 91.5199 95.5158 91.5199C95.5158 91.5199 99.3583 94.4242 100.06 96.0069C100.762 97.5896 102.165 104.952 102.34 106.356C102.516 107.759 101.814 112.144 101.814 112.144C101.814 112.144 98.4813 106.18 96.919 104.426C95.3567 102.672 93.0602 101.62 91.3062 101.62C89.5522 101.62 88.3244 103.549 89.7276 104.426C91.1308 105.303 92.7094 106.355 93.0602 107.583C93.411 108.811 96.919 115.13 97.2698 117.41C97.6206 119.69 100.076 124.25 102.356 125.654C104.637 127.057 113.06 128.811 114.639 130.394C116.217 131.976 127.447 154.252 127.447 154.252M102.866 89.5007H105.677L108.659 95.293L102.866 89.5007Z" stroke="#263238" stroke-width="0.407908" stroke-linecap="round" stroke-linejoin="round"/>
<path d="M125.142 103.961C125.142 103.961 123.103 98.2503 120.733 99.368C118.363 100.486 117.975 101.024 117.975 101.024C117.975 101.024 116.686 98.9846 114.484 99.7351C112.281 100.486 111.543 99.0009 111.543 99.0009C111.543 99.0009 108.602 97.1653 106.766 98.6338C104.93 100.102 106.399 104.145 107.133 107.453C107.867 110.761 106.215 117.194 105.848 117.744C105.481 118.295 100.517 116.092 99.9662 118.111C99.4155 120.131 101.618 124.544 106.032 126.013C110.445 127.481 113.749 128.219 115.414 129.871C117.078 131.523 121.296 143.471 124.971 144.389C128.646 145.307 132.689 139.979 136.547 140.346C140.406 140.714 145.366 143.471 143.347 141.081C141.328 138.69 132.872 130.067 132.334 126.934C131.795 123.802 129.76 121.603 128.842 120.135C127.924 118.666 126.264 109.843 125.693 107.449C125.394 106.307 125.209 105.139 125.142 103.961Z" fill="#E39292"/>
<path opacity="0.4" d="M125.142 103.961C125.142 103.961 123.103 98.2503 120.733 99.368C118.363 100.486 117.975 101.024 117.975 101.024C117.975 101.024 116.686 98.9846 114.484 99.7351C112.281 100.486 111.543 99.0009 111.543 99.0009C111.543 99.0009 108.602 97.1653 106.766 98.6338C104.93 100.102 106.399 104.145 107.133 107.453C107.867 110.761 106.215 117.194 105.848 117.744C105.481 118.295 100.517 116.092 99.9662 118.111C99.4155 120.131 101.618 124.544 106.032 126.013C110.445 127.481 113.749 128.219 115.414 129.871C117.078 131.523 121.296 143.471 124.971 144.389C128.646 145.307 132.689 139.979 136.547 140.346C140.406 140.714 145.366 143.471 143.347 141.081C141.328 138.69 132.872 130.067 132.334 126.934C131.795 123.802 129.76 121.603 128.842 120.135C127.924 118.666 126.264 109.843 125.693 107.449C125.394 106.307 125.209 105.139 125.142 103.961Z" fill="white"/>
<path d="M111.465 88.277L113.913 92.8374C113.913 92.8374 114.912 95.2318 115.924 96.2394C116.935 97.2469 117.816 98.0056 118.196 99.2701C118.575 100.535 118.697 101.163 118.697 101.163" fill="white"/>
<path d="M111.465 88.277L113.913 92.8374C113.913 92.8374 114.912 95.2318 115.924 96.2394C116.935 97.2469 117.816 98.0056 118.196 99.2701C118.575 100.535 118.697 101.163 118.697 101.163" stroke="#263238" stroke-width="0.407908" stroke-linecap="round" stroke-linejoin="round"/>
<path d="M119.884 93.902L122.344 98.9927" stroke="#263238" stroke-width="0.407908" stroke-linecap="round" stroke-linejoin="round"/>
<path d="M99.7092 86.1844L102.866 89.517" stroke="#263238" stroke-width="0.407908" stroke-linecap="round" stroke-linejoin="round"/>
<path d="M123.001 100.163C123.054 101.223 123.181 102.278 123.38 103.321L123.001 100.163Z" fill="white"/>
<path d="M123.001 100.163C123.054 101.223 123.181 102.278 123.38 103.321" stroke="#263238" stroke-width="0.407908" stroke-linecap="round" stroke-linejoin="round"/>
<path d="M110.38 97.251C110.38 97.251 111.893 98.3849 112.146 99.8983L110.38 97.251Z" fill="white"/>
<path d="M110.38 97.251C110.38 97.251 111.893 98.3849 112.146 99.8983" stroke="#263238" stroke-width="0.407908" stroke-linecap="round" stroke-linejoin="round"/>
<path d="M95.5158 91.5402C95.5158 91.5402 94.1289 90.9855 94.1289 89.876L95.5158 91.5402Z" fill="white"/>
<path d="M95.5158 91.5402C95.5158 91.5402 94.1289 90.9855 94.1289 89.876" stroke="#263238" stroke-width="0.407908" stroke-linecap="round" stroke-linejoin="round"/>
<path d="M105.677 89.5007C105.677 89.5007 104.674 88.7298 104.674 87.759L105.677 89.5007Z" fill="white"/>
<path d="M105.677 89.5007C105.677 89.5007 104.674 88.7298 104.674 87.759" stroke="#263238" stroke-width="0.407908" stroke-linecap="round" stroke-linejoin="round"/>
</g>
</svg>
