<svg width="216" height="225" viewBox="0 0 216 225" fill="none" xmlns="http://www.w3.org/2000/svg">
<path d="M146.727 0.835214C127.707 1.16074 113.042 16.7138 96.7606 26.5521C72.1753 41.4076 40.5989 44.4252 19.8321 64.2722C5.61732 77.8773 -1.39966 98.3599 0.584523 117.928C2.56871 137.496 13.3164 155.839 28.8591 167.899C38.7697 175.583 50.401 180.765 62.2699 184.822C74.299 188.924 86.8242 191.968 99.5353 192.128C117.15 192.35 134.455 187.023 150.39 179.505C161.474 174.281 172.16 167.894 180.877 159.281C189.113 151.147 195.427 141.154 199.752 130.417C210.443 103.878 208.743 73.4594 199.473 46.3887C191.805 23.9995 173.059 0.380505 146.727 0.835214Z" fill="#E39292"/>
<path opacity="0.7" d="M146.727 0.835214C127.707 1.16074 113.042 16.7138 96.7606 26.5521C72.1753 41.4076 40.5989 44.4252 19.8321 64.2722C5.61732 77.8773 -1.39966 98.3599 0.584523 117.928C2.56871 137.496 13.3164 155.839 28.8591 167.899C38.7697 175.583 50.401 180.765 62.2699 184.822C74.299 188.924 86.8242 191.968 99.5353 192.128C117.15 192.35 134.455 187.023 150.39 179.505C161.474 174.281 172.16 167.894 180.877 159.281C189.113 151.147 195.427 141.154 199.752 130.417C210.443 103.878 208.743 73.4594 199.473 46.3887C191.805 23.9995 173.059 0.380505 146.727 0.835214Z" fill="white"/>
<path opacity="0.1" d="M158.518 110.358C158.384 106.467 158.131 102.318 157.712 98.024C157.149 89.4466 156.074 81.4375 154.126 76.3995C143.399 74.2035 87.6714 78.2959 87.6301 78.2959L87.2839 76.7457L87.1444 76.1308L86.8963 75.0509L86.8292 74.8029C86.4675 73.3458 86.0593 71.9041 85.5839 70.4728C85.5839 70.4728 43.3373 66.7008 29.324 70.3591C29.324 70.4832 29.324 70.602 29.324 70.726L29.3654 74.1828C29.4067 80.8743 29.2517 87.1524 29.5979 94.0453V94.097C29.5308 94.091 29.4634 94.091 29.3964 94.097C28.8526 94.1689 28.3393 94.3899 27.9134 94.7355C27.4875 95.0812 27.1656 95.538 26.9833 96.0553C26.8443 96.4566 26.7932 96.8831 26.8335 97.3058L27.0195 99.4812C27.0195 99.5173 27.0195 99.5483 27.0195 99.5845C27.5362 105.072 28.0529 110.508 28.0529 110.508C28.0529 110.508 28.3216 110.534 28.7608 110.554L31.0809 110.72C26.1411 111.174 20.7466 117.695 20.9843 123.302C21.2219 128.908 15.8171 139.465 17.1657 145.52C18.1992 150.254 23.5162 157.865 26.1049 163.647L25.9034 164.794L14.3445 188.005C15.1196 186.868 22.0952 217.199 54.4932 210.776L77.5438 173.221C80.1148 171.283 82.4676 169.07 84.5608 166.623C85.4443 165.745 86.179 164.73 86.7362 163.616C87.5592 162.301 88.1875 160.874 88.6015 159.379C88.7048 158.986 88.8133 158.598 88.927 158.201C90.8079 153.411 93.3191 146.874 95.1586 142.348C119.444 141.624 144.944 140.141 157.748 137.129H157.774C159.014 128.707 159.04 119.256 158.518 110.358ZM33.7988 131.579C33.5983 130.18 33.4775 128.771 33.4371 127.358C33.7213 128.846 34.0313 130.329 34.3568 131.817C34.1708 131.734 33.9848 131.652 33.7988 131.579Z" fill="black"/>
<path d="M11.704 186.522C11.704 186.522 22.0796 217.199 54.4931 210.776C54.4931 210.776 61.6858 177.009 67.7106 172.023C71.5963 168.819 80.179 163.073 82.0133 158.914C83.8476 154.754 91.216 135 92.6421 132.623C94.0682 130.246 77.182 102.897 77.182 102.897L41.6114 121.25L21.8212 156.387C21.8212 156.387 18.0234 179.122 11.704 186.522Z" fill="white"/>
<path d="M21.4751 159.125C21.4751 159.125 18.938 178.094 10.5518 188.005" stroke="#263238" stroke-width="0.516714" stroke-linecap="round" stroke-linejoin="round"/>
<path d="M54.4932 210.776C54.4932 210.776 61.6445 178.104 67.7107 172.023C67.7107 172.023 81.414 164.055 83.8839 154.677C85.5942 148.181 88.7048 140.694 90.193 137.294" stroke="#263238" stroke-width="0.516714" stroke-linecap="round" stroke-linejoin="round"/>
<path d="M57.3765 138.343C56.8598 138.013 65.6697 145.061 66.0108 154.692" stroke="#263238" stroke-width="0.516714" stroke-linecap="round" stroke-linejoin="round"/>
<path d="M153.057 132.437C124.493 139.154 32.4967 138.271 32.4967 138.271C31.7217 136.638 30.7864 132.525 29.8821 127.761C28.0736 118.197 26.384 106.007 26.384 106.007L23.3405 105.795C23.3405 105.795 22.8238 100.36 22.3071 94.872C21.7904 89.3845 24.8907 89.3897 24.8907 89.3897L24.6685 70.3953L24.6117 65.6518C38.625 61.9935 80.8715 65.7655 80.8715 65.7655L82.1891 70.3436L82.9229 73.5886L149.414 71.7129C155.511 87.4778 153.057 132.437 153.057 132.437Z" fill="#E39292"/>
<path d="M142.01 86.359L98.3988 88.5395C96.6038 88.6292 95.2214 90.1571 95.3112 91.9521L95.7543 100.814C95.844 102.609 97.3719 103.991 99.1669 103.901L142.778 101.721C144.573 101.631 145.955 100.103 145.865 98.3082L145.422 89.4466C145.332 87.6516 143.805 86.2692 142.01 86.359Z" fill="#263238"/>
<path d="M145.626 107.511L145.766 108.983L95.5512 110.926L95.5099 109.603L145.626 107.511Z" fill="#263238"/>
<path d="M145.874 112.631L145.92 113.954L95.7113 115.809L95.6648 114.492L145.874 112.631Z" fill="#263238"/>
<path opacity="0.3" d="M149.403 71.713C149.403 71.713 156.813 106.85 153.056 132.437C153.056 132.437 106.201 137.935 90.1567 137.046L89.5005 128.495L90.844 128.288C90.844 128.288 84.3747 79.4792 82.9072 73.5887C82.9072 73.5887 138.707 69.5118 149.403 71.713Z" fill="black"/>
<path opacity="0.8" d="M87.9557 128.371L88.5086 134.835C88.5086 134.835 41.2809 136.902 37.1265 135.398C32.9721 133.894 37.3487 131.497 48.334 130.634C59.3194 129.771 87.9557 128.371 87.9557 128.371Z" fill="white"/>
<path d="M59.7584 100.954C62.1413 100.954 64.073 99.2048 64.073 97.0473C64.073 94.8899 62.1413 93.141 59.7584 93.141C57.3755 93.141 55.4438 94.8899 55.4438 97.0473C55.4438 99.2048 57.3755 100.954 59.7584 100.954Z" fill="#263238"/>
<path d="M26.3838 106.002C27.3572 116.932 29.4028 127.741 32.4914 138.271C52.5244 138.1 72.5522 137.878 92.5801 137.237C112.608 136.597 133.189 135.243 153.036 132.437C153.036 132.437 156.591 101.042 149.382 71.7128C141.415 70.0542 83.1087 73.5781 83.1087 73.5781" stroke="#263238" stroke-width="0.516714" stroke-linecap="round" stroke-linejoin="round"/>
<path d="M87.9557 128.371L88.5085 134.835L43.5544 135.868C41.6994 136.028 38.811 136.271 37.1058 135.398C36.3307 135 35.7727 134.029 36.1395 133.233C36.4702 132.52 37.3383 132.267 38.1134 132.112C43.6112 130.98 49.2228 130.505 54.8188 130.091C66.7997 129.203 78.7995 128.601 90.8183 128.288C90.5651 128.288 87.6353 104.111 87.3098 101.879C86.0386 93.1462 84.8295 84.3776 83.2587 75.6916C82.6918 72.3287 81.8819 69.0113 80.8353 65.7655C62.3163 64.4427 42.9757 63.2181 24.5703 65.6518C24.7408 73.8521 24.436 81.1533 24.8545 89.3897" stroke="#263238" stroke-width="0.516714" stroke-linecap="round" stroke-linejoin="round"/>
<path d="M31.8043 135.837C31.6937 135.503 31.6276 135.155 31.6079 134.804" stroke="#263238" stroke-width="0.516714" stroke-linecap="round" stroke-linejoin="round"/>
<path d="M31.9075 132.845C32.5947 131.125 34.6564 129.182 40.2627 128.562C50.4885 127.425 72.7796 125.379 85.8576 124.883" stroke="#263238" stroke-width="0.516714" stroke-linecap="round" stroke-linejoin="round" stroke-dasharray="2.02 2.02"/>
<path d="M86.8704 124.847L87.9038 124.811L87.7643 123.777" stroke="#263238" stroke-width="0.516714" stroke-linecap="round" stroke-linejoin="round"/>
<path d="M87.4749 121.798C85.1239 104.886 82.5196 88.0979 79.5382 71.2789" stroke="#263238" stroke-width="0.516714" stroke-linecap="round" stroke-linejoin="round" stroke-dasharray="2.01 2.01"/>
<path d="M79.373 70.2919L79.187 69.2585L78.1536 69.1862" stroke="#263238" stroke-width="0.516714" stroke-linecap="round" stroke-linejoin="round"/>
<path d="M76.0661 69.0518C67.4731 68.4783 43.0377 67.047 26.7354 68.1631" stroke="#263238" stroke-width="0.516714" stroke-linecap="round" stroke-linejoin="round" stroke-dasharray="2.1 2.1"/>
<path d="M25.6811 68.2406L24.6477 68.3233" stroke="#263238" stroke-width="0.516714" stroke-linecap="round" stroke-linejoin="round"/>
<path d="M23.3405 105.795L22.1056 92.6192C22.0681 92.2234 22.1108 91.8242 22.2312 91.4454C22.3516 91.0665 22.5472 90.7159 22.8062 90.4144C23.0653 90.1129 23.3825 89.8668 23.7389 89.6907C24.0952 89.5146 24.4835 89.4122 24.8803 89.3897C32.476 88.9505 52.1215 87.9171 59.6604 88.5216C63.2774 88.811 67.2096 89.9736 68.9612 93.4356C70.4184 96.2878 70.6354 100.566 68.1913 102.912C64.471 106.477 57.4127 106.204 52.6175 106.374C43.6887 106.715 23.3457 105.873 23.3405 105.795Z" stroke="#263238" stroke-width="0.516714" stroke-linecap="round" stroke-linejoin="round"/>
<path d="M70.0513 97.7398C70.0513 97.3729 71.9322 105.31 65.0599 107.929C58.1876 110.549 26.3838 109.722 26.3838 109.722V106.002C26.3838 106.002 48.8815 106.477 52.6277 106.374C56.3739 106.271 69.6483 107.516 70.0513 97.7398Z" fill="#263238"/>
<path d="M63.4426 142.074C63.4426 142.074 69.0645 145.365 71.1675 151.551" stroke="#263238" stroke-width="0.516714" stroke-linecap="round" stroke-linejoin="round"/>
<path d="M22.2606 91.3687C22.2606 91.3687 49.8325 90.0717 56.8495 90.3043C63.8665 90.5368 67.3026 92.0818 68.0002 96.479C68.6977 100.876 64.4452 103.615 61.0555 104.132C57.6659 104.648 23.3354 104.798 23.3354 104.798" stroke="#263238" stroke-width="0.516714" stroke-linecap="round" stroke-linejoin="round" stroke-dasharray="2.07 2.07"/>
<path d="M41.2083 144.637C41.2083 144.637 36.9403 129.812 29.0862 126.893C29.0862 126.893 27.5361 116.776 30.8844 116.218C34.2327 115.659 43.6886 109.428 41.2187 101.651C38.7488 93.8748 31.3339 105.553 26.3941 106.002C21.4543 106.452 16.0598 112.978 16.282 118.589C16.5042 124.201 11.1149 134.757 12.4635 140.808C13.8121 146.859 22.1261 157.653 22.7978 163.27" fill="white"/>
<path d="M41.2083 144.637C41.2083 144.637 36.9403 129.812 29.0862 126.893C29.0862 126.893 27.5361 116.776 30.8844 116.218C34.2327 115.659 43.6886 109.428 41.2187 101.651C38.7488 93.8748 31.3339 105.553 26.3941 106.002C21.4543 106.452 16.0598 112.978 16.282 118.589C16.5042 124.201 11.1149 134.757 12.4635 140.808C13.8121 146.859 22.1261 157.653 22.7978 163.27" stroke="#263238" stroke-width="0.516714" stroke-linecap="round" stroke-linejoin="round"/>
<path d="M30.869 103.723C30.869 103.723 36.7854 104.798 39.9994 101.042C43.2133 97.2851 39.5137 97.0474 39.5137 97.0474L30.869 103.723Z" fill="white" stroke="#263238" stroke-width="0.516714" stroke-linecap="round" stroke-linejoin="round"/>
<path d="M20.3021 112.094C21.3821 112.168 22.4265 112.511 23.3404 113.091" stroke="#263238" stroke-width="0.516714" stroke-linecap="round" stroke-linejoin="round"/>
<path d="M20.1213 114.244C21.1971 114.346 22.222 114.751 23.0769 115.411" stroke="#263238" stroke-width="0.516714" stroke-linecap="round" stroke-linejoin="round"/>
<path d="M36.0931 134.101C36.0931 134.101 61.4121 132.794 68.0778 133.176" stroke="#263238" stroke-width="0.516714" stroke-linecap="round" stroke-linejoin="round"/>
<path d="M61.9133 131.244C61.9133 131.244 68.2844 130.727 72.2476 131.244" stroke="#263238" stroke-width="0.516714" stroke-linecap="round" stroke-linejoin="round"/>
<path d="M78.0551 133.104H88.3635" stroke="#263238" stroke-width="0.516714" stroke-linecap="round" stroke-linejoin="round"/>
<path d="M84.2921 76.4822C84.2921 76.4822 129.572 72.4363 147.765 74.746C147.765 74.746 152.674 83.773 151.604 130.034C131.156 132.656 110.582 134.185 89.9708 134.618" stroke="#263238" stroke-width="0.516714" stroke-linecap="round" stroke-linejoin="round" stroke-dasharray="2.07 2.07"/>
<g opacity="0.1">
<path d="M206.867 140.503C205.58 135.031 203.694 132.975 201.803 131.393C201.803 131.393 201.762 128.293 199.338 126.526C198.691 125.956 198 125.438 197.271 124.976C194.998 123.271 192.492 121.359 192.492 121.359C191.314 117.949 189.717 113.82 187.991 109.759L188.079 110.684C186.312 106.369 184.581 102.075 184.095 100.649V100.618C184.612 101.992 185.129 103.32 185.697 104.545L179.228 81.6804C179.073 80.7606 178.913 79.8563 178.752 78.9831C178.442 76.3995 177.6 71.5321 175.569 71.1859C175.494 71.1808 175.418 71.1808 175.342 71.1859C175.342 71.1859 172.95 70.1525 172.95 74.3947C170.103 75.3454 169.002 77.495 168.728 80.0217C168.58 80.8231 168.563 81.6432 168.676 82.4503C168.728 83.3855 168.837 84.3414 168.981 85.2922L159.815 73.2424L158.931 72.0953L147.625 57.2139L132.429 37.1654C131.863 36.4212 131.157 35.7957 130.35 35.3246C129.542 34.8535 128.65 34.546 127.724 34.4198C126.798 34.2936 125.856 34.3512 124.952 34.5891C124.048 34.827 123.2 35.2407 122.456 35.8065L103.591 50.1349L96.2279 55.7258C90.5802 58.6659 92.0528 64.4738 93.6185 66.5355L126.518 109.841C126.346 109.82 126.174 109.811 126.001 109.815C126.001 109.815 125.061 107.599 122.735 107.95C122.24 107.973 121.761 108.132 121.351 108.41C120.975 108.607 120.657 108.897 120.426 109.252C120.168 109.563 119.936 109.895 119.733 110.244C118.55 112.27 119.645 117.225 121.356 123.276C121.464 123.669 121.573 124.046 121.676 124.397V124.454L122.115 125.968C123.789 131.776 126.921 143.18 127.499 148.771C127.541 149.287 127.567 149.84 127.577 150.357C127.613 156.795 124.756 167.574 125.985 172.028C126.146 172.612 126.311 173.17 126.476 173.723C127.391 176.699 128.207 179.515 129.644 182.31C131.39 185.721 133.473 188.992 135.421 192.293C138.996 198.36 142.696 204.354 146.52 210.275C148.282 212.993 150.343 215.473 152.338 218.026C153.252 219.199 155.247 220.961 155.593 222.464C155.593 222.464 173.28 223.927 183.181 217.638L182.25 203.563L188.89 165.404C190.787 162.525 196.641 156.904 197.809 155.126C198.413 154.243 199.002 153.364 199.576 152.506C203.942 148.429 206.128 145.272 207.089 141.599C207.11 141.609 207.042 141.19 206.867 140.503ZM145.636 148.838L145.548 148.672C147.355 149.49 149.269 150.047 151.232 150.326C149.17 150.088 146.84 149.757 145.636 148.838ZM153.097 150.548L154.048 150.615C153.73 150.614 153.413 150.592 153.097 150.548ZM145.45 148.45L144.262 146.094C142.608 141.351 138.872 130.169 138.857 130.122C138.125 126.9 137.148 123.739 135.932 120.666C136.811 120.976 137.754 121.063 138.674 120.919C139.595 120.774 140.466 120.404 141.208 119.84L150.25 112.973C151.186 113.536 152.142 114.042 153.077 114.487L161.546 121.106L154.828 148.714L145.45 148.45ZM179.729 84.8633C180.432 88.16 181.543 92.9034 183.015 97.497C181.586 93.3791 180.483 89.1547 179.719 84.8633H179.729Z" fill="black"/>
<path d="M141.342 217.525L141.394 217.773C141.394 217.773 141.378 217.68 141.342 217.525Z" fill="black"/>
</g>
<path d="M172.733 85.876C173.249 85.535 180.824 81.4116 184.617 93.7766C188.41 106.142 192.859 127.182 192.859 127.182L183.847 128.934C183.847 128.934 175.497 124.49 168.015 113.36C168.015 113.36 157.526 110.642 152.958 104.183C148.824 98.3134 161.577 76.7612 161.577 76.7612L172.733 85.876Z" fill="white"/>
<path d="M169.493 101.264C171.725 104.612 175.952 111.655 181.656 113.877" stroke="#263238" stroke-width="0.516714" stroke-linecap="round" stroke-linejoin="round"/>
<path d="M163.178 104.865C164.212 105.284 166.795 106.772 168.015 106.829C168.015 106.829 173.28 117.251 181.966 120.635" stroke="#263238" stroke-width="0.516714" stroke-linecap="round" stroke-linejoin="round"/>
<path d="M158.347 108.704C161.577 111.407 165.426 113.252 168.015 113.355C168.015 113.355 173.28 123.777 181.966 127.161" stroke="#263238" stroke-width="0.516714" stroke-linecap="round" stroke-linejoin="round"/>
<path d="M131.169 33.1822L102.596 54.8855C100.115 56.7705 99.6312 60.3103 101.516 62.7918L141.2 115.036C143.085 117.518 146.625 118.001 149.107 116.116L177.679 94.4129C180.161 92.528 180.644 88.9882 178.759 86.5067L139.075 34.2624C137.19 31.7808 133.65 31.2972 131.169 33.1822Z" fill="#263238"/>
<path d="M176.866 93.2805L150.648 113.2C149.904 113.767 149.056 114.181 148.152 114.419C147.248 114.658 146.305 114.715 145.379 114.588C144.452 114.462 143.56 114.153 142.753 113.681C141.946 113.209 141.24 112.581 140.676 111.836L102.775 61.9418C102.157 61.1359 101.723 60.2048 101.504 59.2136C101.198 57.8826 101.284 56.4916 101.75 55.2082C102.217 53.9248 103.045 52.8036 104.134 51.9796L111.502 46.3887L130.362 32.0551C131.106 31.4895 131.955 31.0762 132.859 30.8387C133.763 30.6012 134.705 30.5441 135.631 30.6708C136.557 30.7975 137.449 31.1054 138.256 31.577C139.063 32.0486 139.77 32.6746 140.335 33.4192L155.542 53.4367L166.847 68.3181L178.215 83.3028C178.782 84.0463 179.197 84.8942 179.436 85.7982C179.675 86.7022 179.734 87.6445 179.609 88.5712C179.484 89.4979 179.177 90.3908 178.706 91.1989C178.236 92.0069 177.61 92.7143 176.866 93.2805Z" fill="#E39292"/>
<path opacity="0.1" d="M155.521 53.4367L111.486 46.3835L130.362 32.0551C131.106 31.4895 131.955 31.0762 132.859 30.8387C133.763 30.6012 134.705 30.5441 135.631 30.6708C136.557 30.7975 137.449 31.1054 138.256 31.577C139.063 32.0486 139.77 32.6746 140.335 33.4192L155.521 53.4367Z" fill="black"/>
<path opacity="0.1" d="M176.866 93.2807L150.648 113.2C149.905 113.767 149.056 114.181 148.152 114.42C147.248 114.658 146.305 114.715 145.379 114.588C144.452 114.462 143.56 114.153 142.753 113.681C141.946 113.209 141.24 112.582 140.676 111.836L102.775 61.9419C102.157 61.136 101.723 60.2049 101.504 59.2137L167.715 69.5118L178.215 83.3339C179.351 84.8334 179.846 86.7216 179.594 88.5856C179.341 90.4496 178.36 92.1377 176.866 93.2807Z" fill="black"/>
<path d="M134.083 37.121L129.454 40.6371C128.527 41.3414 128.346 42.6639 129.05 43.5911L134.654 50.9688C135.359 51.8959 136.681 52.0766 137.608 51.3724L142.237 47.8562C143.165 47.1519 143.345 45.8294 142.641 44.9022L137.037 37.5245C136.333 36.5974 135.01 36.4167 134.083 37.121Z" fill="white" stroke="#263238" stroke-width="0.516714" stroke-linecap="round" stroke-linejoin="round"/>
<path d="M131.866 38.7982L139.859 49.6596" stroke="#263238" stroke-width="0.516714" stroke-linecap="round" stroke-linejoin="round"/>
<path d="M131.866 47.2982L139.859 41.2372" stroke="#263238" stroke-width="0.516714" stroke-linecap="round" stroke-linejoin="round"/>
<path d="M147.346 109.95L145.982 110.952L129.339 89.0436L130.693 88.0205L147.346 109.95Z" fill="#263238"/>
<path d="M149.656 108.239L148.292 109.252L131.628 87.3072L132.971 86.2841L149.656 108.239Z" fill="#263238"/>
<path d="M151.961 106.539L150.602 107.542L133.912 85.5763L135.261 84.548L151.961 106.539Z" fill="#263238"/>
<path d="M154.271 104.829L152.906 105.832L136.439 84.1554L137.782 83.1271L154.271 104.829Z" fill="#263238"/>
<path d="M156.761 102.99L155.397 103.997L138.903 82.2848L140.252 81.2565L156.761 102.99Z" fill="#263238"/>
<path d="M156.761 77.4432L155.397 78.4456L138.903 56.7333L140.252 55.7102L156.761 77.4432Z" fill="#263238"/>
<path d="M120.84 39.345L118.73 40.9484L165.206 102.134L167.316 100.53L120.84 39.345Z" fill="#263238"/>
<path d="M176.866 93.2805L150.648 113.2C149.904 113.767 149.056 114.181 148.152 114.419C147.248 114.658 146.305 114.715 145.379 114.588C144.452 114.462 143.56 114.153 142.753 113.681C141.946 113.209 141.24 112.581 140.676 111.836L102.775 61.9418C102.157 61.1359 101.723 60.2048 101.504 59.2136C101.198 57.8826 101.284 56.4916 101.75 55.2082C102.217 53.9248 103.045 52.8036 104.134 51.9796L111.502 46.3887L130.362 32.0551C131.106 31.4895 131.955 31.0762 132.859 30.8387C133.763 30.6012 134.705 30.5441 135.631 30.6708C136.557 30.7975 137.449 31.1054 138.256 31.577C139.063 32.0486 139.77 32.6746 140.335 33.4192L155.542 53.4367L166.847 68.3181L178.215 83.3028C178.782 84.0463 179.197 84.8942 179.436 85.7982C179.675 86.7022 179.734 87.6445 179.609 88.5712C179.484 89.4979 179.177 90.3908 178.706 91.1989C178.236 92.0069 177.61 92.7143 176.866 93.2805Z" stroke="#263238" stroke-width="0.516714" stroke-linecap="round" stroke-linejoin="round"/>
<path d="M155.614 222.459C155.614 222.459 186.131 233.31 195.365 209.676C195.365 209.676 180.923 192.107 188.808 177.753C193.768 168.711 207.487 148.75 207.487 148.75C207.487 148.75 213.217 143.309 215 137.842C215 137.842 214.018 131.75 209.698 127.627C209.698 127.627 209.652 124.526 207.229 122.759C204.805 120.992 200.361 117.592 200.361 117.592C200.361 117.592 193.055 100.065 191.97 96.8976C190.885 93.7301 188.704 87.7414 187.614 81.1275C186.524 74.5135 185.516 67.3932 183.201 67.4139C183.201 67.4139 180.814 66.3805 180.814 70.6227C180.814 70.6227 175.802 73.2063 176.541 78.6731C177.28 84.1399 177.962 86.9664 177.765 90.0408C177.569 93.1153 178.556 103.791 181.026 107.139C181.026 107.139 181.853 122.124 183.093 126.025C183.134 126.144 183.17 126.252 183.206 126.35C184.509 129.652 171.498 142.368 164.455 145.81C164.455 145.81 163.716 147.184 160.983 146.807C158.249 146.43 153.625 146.254 152.829 144.223C152.033 142.193 146.737 126.35 146.737 126.35C146.737 126.35 142.453 106.043 133.896 106.049C133.896 106.049 132.599 102.948 129.246 104.643C125.892 106.338 128.089 115.577 129.572 120.63C131.054 125.684 134.811 138.968 135.421 145.081C136.03 151.194 132.568 163.44 133.871 168.256C135.173 173.072 136.619 176.322 140.774 184.207C144.928 192.092 154.131 215.602 155.614 222.459Z" fill="white"/>
<path d="M155.614 222.459C155.614 222.459 149.083 197.874 139.482 181.975C129.882 166.075 135.529 160.453 135.529 147.22C135.529 133.987 124.745 111.459 127.655 106.493C130.564 101.527 134.532 105.501 136.191 110.136C137.849 114.771 135.529 117.421 130.879 117.752" stroke="#263238" stroke-width="0.516714" stroke-linecap="round" stroke-linejoin="round"/>
<path d="M133.896 106.069C133.896 106.069 139.472 105.728 142.898 114.642C146.323 123.555 151.811 146.161 157.526 153.039" stroke="#263238" stroke-width="0.516714" stroke-linecap="round" stroke-linejoin="round"/>
<path d="M153.015 144.689C153.046 144.761 160.998 149.194 173.337 145.309" stroke="#263238" stroke-width="0.516714" stroke-linecap="round" stroke-linejoin="round"/>
<path d="M134.956 132.231C135.576 131.472 136.384 130.89 137.3 130.542C138.216 130.195 139.207 130.095 140.174 130.252" stroke="#263238" stroke-width="0.516714" stroke-linecap="round" stroke-linejoin="round"/>
<path d="M136.015 135.036C136.551 134.396 137.256 133.919 138.05 133.66C138.844 133.402 139.695 133.372 140.505 133.574" stroke="#263238" stroke-width="0.516714" stroke-linecap="round" stroke-linejoin="round"/>
<path d="M180.814 70.6071C172.702 73.3096 178.747 85.5609 177.765 90.0304C176.784 94.5 179.316 103.057 181.264 107.697C181.264 113.138 183.201 126.34 183.201 126.34C182.003 130.541 171.999 142.921 162.28 146.797" stroke="#263238" stroke-width="0.516714" stroke-linecap="round" stroke-linejoin="round"/>
<path d="M186.767 76.7766C186.767 76.7766 186.162 67.3983 183.201 67.3983C180.241 67.3983 180.421 73.7177 181.651 78.4095C182.881 83.1012 187.666 82.4295 186.767 76.7766Z" stroke="#263238" stroke-width="0.516714" stroke-linecap="round" stroke-linejoin="round"/>
<path d="M186.767 76.7768C186.767 76.7768 189.288 91.5186 193.561 100.778" stroke="#263238" stroke-width="0.516714" stroke-linecap="round" stroke-linejoin="round"/>
<path d="M198.599 135.305C200.666 131.957 201.581 128.789 202.345 124.759C202.154 122.232 199.245 113.985 195.866 105.997" stroke="#263238" stroke-width="0.516714" stroke-linecap="round" stroke-linejoin="round"/>
<path d="M200.635 118.372C203.988 120.894 209.822 122.831 209.15 127.182C208.409 131.534 206.886 135.717 204.655 139.526" stroke="#263238" stroke-width="0.516714" stroke-linecap="round" stroke-linejoin="round"/>
<path d="M196.109 210.776C196.109 210.776 184.426 194.557 186.767 183.354C188.487 175.113 199.55 160.701 207.487 148.765C211.858 144.688 214.044 141.531 215 137.858C213.6 130.959 211.326 128.949 209.14 127.182" stroke="#263238" stroke-width="0.516714" stroke-linecap="round" stroke-linejoin="round"/>
<path d="M199.224 121.049C197.923 120.683 196.56 120.588 195.221 120.77C193.882 120.953 192.594 121.408 191.438 122.108" stroke="#263238" stroke-width="0.516714" stroke-linecap="round" stroke-linejoin="round"/>
<path d="M198.568 123.823C196.981 123.583 195.359 123.868 193.949 124.635" stroke="#263238" stroke-width="0.516714" stroke-linecap="round" stroke-linejoin="round"/>
</svg>
