<svg width="47" height="53" viewBox="0 0 47 53" fill="none" xmlns="http://www.w3.org/2000/svg">
<path fill-rule="evenodd" clip-rule="evenodd" d="M29.5548 0C26.0366 1.70712 20.4273 4.7734 16.7629 7.56839C7.81683 14.3898 0 21.7865 0 31.0593C0 40.874 7.67234 48.9031 19.5165 50.3724C21.8666 50.6631 19.8759 52.9066 19.8759 52.9066C19.8759 52.9066 21.4306 52.4054 22.4903 52.0451C22.7977 51.9403 23.3069 53 23.3069 53C23.3069 53 24.2608 51.9015 24.3604 51.9764C25.5072 52.8458 27.0408 53 27.0408 53C27.0408 53 25.0175 50.671 27.5376 50.3345C39.2179 48.771 46.7643 40.7938 46.7643 31.0593C46.7643 21.2897 40.9004 14.4682 29.5231 7.13325C28.0539 6.18632 27.8873 3.51202 29.5548 0ZM25.0959 9.83311C31.1369 15.2971 34.1574 22.1247 34.1574 28.9523C34.1574 35.779 31.1369 42.6066 25.0959 48.0707C33.6306 37.6509 35.4223 21.3698 25.0959 9.83311ZM21.6227 9.83134C15.5817 15.2954 12.5612 22.123 12.5612 28.9506C12.5612 35.7782 15.5817 42.6049 21.6227 48.0689C13.0871 37.6491 11.2963 21.3681 21.6227 9.83134ZM23.3597 47.4179C23.8169 41.1382 24.0459 34.8585 24.0459 28.578C24.0459 22.2983 23.8169 16.0186 23.3597 9.73886C22.027 22.2983 22.027 34.8585 23.3597 47.4179ZM30.8911 11.8794C37.5971 17.472 41.4694 23.9146 41.7821 30.1344C42.094 36.3534 38.8462 42.3494 31.3122 47.048C44.5895 35.5112 41.6385 22.7651 30.8911 11.8794ZM15.8274 11.8785C9.12138 17.4702 5.24908 23.9129 4.93637 30.1327C4.62367 36.3516 7.87143 42.3477 15.4055 47.0462C2.12906 35.5095 5.07909 22.7633 15.8274 11.8785Z" fill="url(#paint0_linear_506_9)"/>
<defs>
<linearGradient id="paint0_linear_506_9" x1="0" y1="31.5826" x2="232.586" y2="31.5826" gradientUnits="userSpaceOnUse">
<stop stop-color="#FF4C1D"/>
<stop offset="1" stop-color="#9B0063"/>
</linearGradient>
</defs>
</svg>
