<svg width="180" height="144" viewBox="0 0 180 144" fill="none" xmlns="http://www.w3.org/2000/svg">
<g opacity="0.9">
<path d="M179.824 76.9438C180.755 64.5649 177.873 51.6286 174.017 40.0857C168.286 22.9827 157.156 5.41213 138.417 1.36673C127.629 -0.97061 116.617 1.53304 107.353 7.38539C98.4441 13.0175 91.495 20.2902 80.5455 21.7016C69.4656 23.1265 58.098 22.5511 46.9597 22.5511C18.3272 22.5511 -4.91135 52.6354 0.896043 83.9693C6.70344 115.303 34.0953 137.009 57.3339 137.009C78.2126 137.009 95.3921 124.482 115.228 121.115C125.063 119.447 134.938 121.421 144.674 118.922C155.983 116.018 166.623 109.087 172.889 99.0497C177.163 92.2354 179.24 84.6975 179.824 76.9438Z" fill="#E39292"/>
<path opacity="0.7" d="M179.824 76.9438C180.755 64.5649 177.873 51.6286 174.017 40.0857C168.286 22.9827 157.156 5.41213 138.417 1.36673C127.629 -0.97061 116.617 1.53304 107.353 7.38539C98.4441 13.0175 91.495 20.2902 80.5455 21.7016C69.4656 23.1265 58.098 22.5511 46.9597 22.5511C18.3272 22.5511 -4.91135 52.6354 0.896043 83.9693C6.70344 115.303 34.0953 137.009 57.3339 137.009C78.2126 137.009 95.3921 124.482 115.228 121.115C125.063 119.447 134.938 121.421 144.674 118.922C155.983 116.018 166.623 109.087 172.889 99.0497C177.163 92.2354 179.24 84.6975 179.824 76.9438Z" fill="white"/>
<path d="M99.7338 130.208V119.555H68.3595V130.208C68.3598 133.684 67.1861 137.058 65.0288 139.782L63.6533 141.517H104.44L103.069 139.782C100.91 137.058 99.7351 133.684 99.7338 130.208Z" fill="white" stroke="#263238" stroke-width="0.422369" stroke-linecap="round" stroke-linejoin="round"/>
<g style="mix-blend-mode:multiply">
<path d="M66.4312 137.665H101.662C100.4 135.383 99.7361 132.817 99.7338 130.208V119.555H68.3595V130.208C68.3595 132.817 67.6959 135.383 66.4312 137.665Z" fill="#E39292" fill-opacity="0.72"/>
</g>
<path d="M99.734 121.156H68.3596V125.655H99.734V121.156Z" fill="#263238" stroke="#263238" stroke-width="0.422369" stroke-linecap="round" stroke-linejoin="round"/>
<path d="M142.925 28.3362H25.1723C22.8661 28.3362 20.9966 30.2057 20.9966 32.5119V118.737C20.9966 121.044 22.8661 122.913 25.1723 122.913H142.925C145.231 122.913 147.101 121.044 147.101 118.737V32.5119C147.101 30.2057 145.231 28.3362 142.925 28.3362Z" fill="#263238" stroke="#263238" stroke-width="0.422369" stroke-linecap="round" stroke-linejoin="round"/>
<path d="M20.9966 108.21H147.101V118.733C147.101 119.84 146.661 120.902 145.878 121.686C145.095 122.469 144.033 122.909 142.925 122.909H25.1589C24.0514 122.909 22.9893 122.469 22.2062 121.686C21.4231 120.902 20.9832 119.84 20.9832 118.733V108.21H20.9966Z" fill="white" stroke="#263238" stroke-width="0.422369" stroke-linecap="round" stroke-linejoin="round"/>
<path d="M140.754 34.2199H27.3394V101.036H140.754V34.2199Z" fill="#F3B1B1" stroke="#263238" stroke-width="0.422369" stroke-linecap="round" stroke-linejoin="round"/>
<path d="M86.3752 115.564C86.3761 115.103 86.2403 114.653 85.985 114.269C85.7297 113.886 85.3664 113.587 84.941 113.41C84.5156 113.233 84.0473 113.186 83.5954 113.275C83.1434 113.365 82.7281 113.586 82.4021 113.911C82.076 114.237 81.8538 114.652 81.7636 115.104C81.6734 115.555 81.7192 116.024 81.8953 116.449C82.0714 116.875 82.3698 117.239 82.7528 117.495C83.1358 117.751 83.5862 117.888 84.0469 117.888C84.6636 117.888 85.2551 117.643 85.6917 117.207C86.1282 116.772 86.374 116.181 86.3752 115.564Z" fill="#263238" stroke="#263238" stroke-width="0.422369" stroke-linecap="round" stroke-linejoin="round"/>
<path d="M104.449 141.517H63.6533V143.419H104.449V141.517Z" fill="white" stroke="#263238" stroke-width="0.422369" stroke-linecap="round" stroke-linejoin="round"/>
<path d="M133.648 41.7039H37.5065C36.6327 41.7039 35.9243 42.4123 35.9243 43.2861V50.1723C35.9243 51.0461 36.6327 51.7545 37.5065 51.7545H133.648C134.522 51.7545 135.23 51.0461 135.23 50.1723V43.2861C135.23 42.4123 134.522 41.7039 133.648 41.7039Z" fill="#263238" stroke="#263238" stroke-width="0.385574" stroke-linecap="round" stroke-linejoin="round"/>
<path d="M62.7367 70.9027H37.0214C36.1476 70.9027 35.4392 71.6111 35.4392 72.4849V91.5747C35.4392 92.4485 36.1476 93.1569 37.0214 93.1569H62.7367C63.6105 93.1569 64.3189 92.4485 64.3189 91.5747V72.4849C64.3189 71.6111 63.6105 70.9027 62.7367 70.9027Z" fill="#263238" stroke="#263238" stroke-width="0.385574" stroke-linecap="round" stroke-linejoin="round"/>
<path d="M54.1019 75.8067C54.1019 75.3097 53.9546 74.8239 53.6785 74.4107C53.4024 73.9975 53.01 73.6755 52.5509 73.4853C52.0917 73.2951 51.5865 73.2454 51.0991 73.3423C50.6117 73.4393 50.164 73.6786 49.8126 74.03C49.4612 74.3814 49.2219 74.8291 49.1249 75.3165C49.028 75.8039 49.0777 76.3091 49.2679 76.7682C49.4581 77.2273 49.7802 77.6198 50.1934 77.8958C50.6066 78.1719 51.0924 78.3193 51.5893 78.3193C51.9193 78.3193 52.246 78.2543 52.5509 78.128C52.8557 78.0018 53.1327 77.8167 53.366 77.5834C53.5993 77.3501 53.7844 77.0731 53.9107 76.7682C54.037 76.4634 54.1019 76.1366 54.1019 75.8067Z" fill="white" stroke="#263238" stroke-width="0.385574" stroke-linecap="round" stroke-linejoin="round"/>
<path d="M37.1199 93.1569H62.6329C63.0799 93.1569 63.5087 92.9793 63.8248 92.6632C64.1409 92.3471 64.3185 91.9184 64.3185 91.4713V83.5693L56.2591 77.8428L50.5147 87.6687L45.7276 82.8816L36.2883 92.9457C36.5425 93.087 36.8291 93.1598 37.1199 93.1569Z" fill="white" stroke="#263238" stroke-width="0.385574" stroke-linecap="round" stroke-linejoin="round"/>
<path d="M79.3135 55.5841H38.2167C37.3429 55.5841 36.6345 56.2925 36.6345 57.1663V64.0525C36.6345 64.9263 37.3429 65.6347 38.2167 65.6347H79.3135C80.1873 65.6347 80.8957 64.9263 80.8957 64.0525V57.1663C80.8957 56.2925 80.1873 55.5841 79.3135 55.5841Z" fill="white" stroke="#263238" stroke-width="0.385574" stroke-linecap="round" stroke-linejoin="round"/>
<path d="M133.652 55.5841H92.5554C91.6815 55.5841 90.9731 56.2925 90.9731 57.1663V64.0525C90.9731 64.9263 91.6815 65.6347 92.5554 65.6347H133.652C134.526 65.6347 135.234 64.9263 135.234 64.0525V57.1663C135.234 56.2925 134.526 55.5841 133.652 55.5841Z" fill="white" stroke="#263238" stroke-width="0.385574" stroke-linecap="round" stroke-linejoin="round"/>
<path d="M134.502 71.3792H71.6138" stroke="#263238" stroke-width="0.385574" stroke-linecap="round" stroke-linejoin="round"/>
<path d="M134.502 75.6853H71.6138" stroke="#263238" stroke-width="0.385574" stroke-linecap="round" stroke-linejoin="round"/>
<path d="M134.502 79.9959H71.6138" stroke="#263238" stroke-width="0.385574" stroke-linecap="round" stroke-linejoin="round"/>
<path d="M134.502 84.302H71.6138" stroke="#263238" stroke-width="0.385574" stroke-linecap="round" stroke-linejoin="round"/>
<path d="M134.502 88.6081H71.6138" stroke="#263238" stroke-width="0.385574" stroke-linecap="round" stroke-linejoin="round"/>
<path d="M134.502 92.9187H71.6138" stroke="#263238" stroke-width="0.385574" stroke-linecap="round" stroke-linejoin="round"/>
<path d="M137.302 38.5126H34.8772V97.8631H137.302V38.5126Z" stroke="white" stroke-width="0.771147" stroke-linecap="round" stroke-linejoin="round"/>
<path d="M36.8593 38.5125C36.8593 38.1205 36.743 37.7372 36.5252 37.4113C36.3074 37.0853 35.9978 36.8312 35.6356 36.6812C35.2734 36.5311 34.8748 36.4919 34.4903 36.5684C34.1058 36.6449 33.7526 36.8336 33.4754 37.1109C33.1981 37.3881 33.0093 37.7413 32.9329 38.1258C32.8564 38.5103 32.8956 38.9089 33.0457 39.2711C33.1957 39.6333 33.4498 39.9429 33.7757 40.1607C34.1017 40.3785 34.485 40.4948 34.877 40.4948C35.1375 40.4954 35.3955 40.4445 35.6363 40.3451C35.8771 40.2457 36.0958 40.0997 36.28 39.9155C36.4642 39.7313 36.6102 39.5126 36.7096 39.2718C36.809 39.031 36.8599 38.773 36.8593 38.5125Z" fill="white"/>
<path d="M139.285 38.5125C139.285 38.1203 139.168 37.7369 138.95 37.4108C138.732 37.0847 138.422 36.8306 138.06 36.6808C137.697 36.5309 137.299 36.4919 136.914 36.5687C136.529 36.6456 136.176 36.8348 135.899 37.1125C135.622 37.3901 135.434 37.7438 135.358 38.1286C135.282 38.5134 135.322 38.9121 135.472 39.2742C135.623 39.6364 135.878 39.9456 136.204 40.1629C136.531 40.3802 136.915 40.4957 137.307 40.4948C137.567 40.4948 137.824 40.4435 138.065 40.3438C138.305 40.2441 138.523 40.098 138.707 39.9139C138.891 39.7298 139.036 39.5112 139.135 39.2708C139.234 39.0303 139.285 38.7726 139.285 38.5125Z" fill="white"/>
<path d="M87.153 38.5125C87.153 38.1205 87.0367 37.7372 86.8189 37.4113C86.6011 37.0853 86.2915 36.8312 85.9293 36.6812C85.5671 36.5311 85.1685 36.4919 84.784 36.5684C84.3995 36.6449 84.0463 36.8336 83.7691 37.1109C83.4918 37.3881 83.3031 37.7413 83.2266 38.1258C83.1501 38.5103 83.1893 38.9089 83.3394 39.2711C83.4894 39.6333 83.7435 39.9429 84.0694 40.1607C84.3954 40.3785 84.7787 40.4948 85.1707 40.4948C85.4312 40.4954 85.6892 40.4445 85.93 40.3451C86.1708 40.2457 86.3895 40.0997 86.5737 39.9155C86.7579 39.7313 86.9039 39.5126 87.0033 39.2718C87.1027 39.031 87.1536 38.773 87.153 38.5125Z" fill="white"/>
<path d="M87.153 97.935C87.1539 97.5428 87.0384 97.1591 86.8211 96.8325C86.6038 96.5059 86.2945 96.2512 85.9324 96.1004C85.5703 95.9497 85.1716 95.9098 84.7868 95.9858C84.402 96.0618 84.0483 96.2502 83.7707 96.5273C83.493 96.8043 83.3037 97.1575 83.2269 97.5421C83.15 97.9268 83.189 98.3256 83.3389 98.688C83.4888 99.0505 83.7429 99.3604 84.069 99.5784C84.395 99.7964 84.7785 99.9127 85.1707 99.9127C85.4308 99.9133 85.6885 99.8626 85.929 99.7635C86.1694 99.6644 86.388 99.5188 86.5721 99.3351C86.7562 99.1514 86.9023 98.9331 87.002 98.6929C87.1017 98.4526 87.153 98.1951 87.153 97.935Z" fill="white"/>
<path d="M36.8593 97.935C36.8602 97.5428 36.7447 97.1591 36.5274 96.8325C36.3101 96.5059 36.0008 96.2512 35.6387 96.1004C35.2766 95.9497 34.8779 95.9098 34.4931 95.9858C34.1082 96.0618 33.7546 96.2502 33.477 96.5273C33.1993 96.8043 33.01 97.1575 32.9332 97.5421C32.8563 97.9268 32.8953 98.3256 33.0452 98.688C33.1951 99.0505 33.4492 99.3604 33.7753 99.5784C34.1014 99.7964 34.4848 99.9127 34.877 99.9127C35.1371 99.9133 35.3948 99.8626 35.6353 99.7635C35.8757 99.6644 36.0943 99.5188 36.2784 99.3351C36.4625 99.1514 36.6086 98.9331 36.7083 98.6929C36.808 98.4526 36.8593 98.1951 36.8593 97.935Z" fill="white"/>
<path d="M139.285 97.2158C139.285 96.8234 139.17 96.4395 138.952 96.1129C138.735 95.7862 138.425 95.5314 138.063 95.3808C137.701 95.2303 137.302 95.1906 136.917 95.267C136.532 95.3433 136.178 95.5322 135.901 95.8097C135.623 96.0872 135.434 96.4408 135.358 96.8257C135.282 97.2107 135.321 97.6096 135.472 97.972C135.622 98.3344 135.877 98.6439 136.204 98.8614C136.531 99.0789 136.914 99.1945 137.307 99.1936C137.831 99.1936 138.334 98.9852 138.705 98.6143C139.076 98.2434 139.285 97.7404 139.285 97.2158Z" fill="white"/>
</g>
</svg>
